G75*
%MOIN*%
%OFA0B0*%
%FSLAX24Y24*%
%IPPOS*%
%LPD*%
%AMOC8*
5,1,8,0,0,1.08239X$1,22.5*
%
%ADD10R,0.0671X0.0356*%
%ADD11R,0.0377X0.0671*%
%ADD12R,0.0356X0.0671*%
%ADD13C,0.0197*%
%ADD14C,0.0040*%
%ADD15R,0.0395X0.0395*%
%ADD16R,0.0316X0.0277*%
%ADD17R,0.0611X0.0237*%
%ADD18R,0.0710X0.0907*%
%ADD19R,0.0828X0.0789*%
%ADD20R,0.0828X0.0828*%
%ADD21R,0.0474X0.0513*%
%ADD22R,0.0316X0.0513*%
%ADD23R,0.0277X0.0316*%
%ADD24R,0.0592X0.0671*%
%ADD25R,0.0513X0.0316*%
%ADD26R,0.0710X0.0789*%
%ADD27R,0.0178X0.0690*%
%ADD28R,0.0690X0.0178*%
%ADD29C,0.0310*%
%ADD30R,0.0710X0.0198*%
%ADD31R,0.1261X0.1261*%
%ADD32R,0.0710X0.0790*%
%ADD33R,0.2029X0.1856*%
%ADD34R,0.0375X0.0346*%
%ADD35R,0.0710X0.1143*%
%ADD36R,0.0690X0.1084*%
%ADD37R,0.1064X0.1360*%
%ADD38R,0.0986X0.1064*%
%ADD39R,0.0336X0.0474*%
%ADD40R,0.0690X0.0198*%
%ADD41R,0.1501X0.2580*%
%ADD42C,0.0259*%
%ADD43R,0.0513X0.0257*%
%ADD44R,0.0356X0.0434*%
%ADD45R,0.0434X0.0356*%
%ADD46R,0.0400X0.0740*%
%ADD47R,0.0769X0.1615*%
%ADD48R,0.0513X0.1615*%
%ADD49C,0.0280*%
%ADD50R,0.0671X0.0592*%
%ADD51R,0.0867X0.0867*%
%ADD52R,0.0867X0.0710*%
%ADD53R,0.0710X0.1340*%
%ADD54R,0.1340X0.0710*%
%ADD55C,0.0671*%
%ADD56R,0.0178X0.0444*%
%ADD57R,0.0395X0.0178*%
%ADD58R,0.0828X0.0592*%
%ADD59R,0.0631X0.0474*%
%ADD60C,0.0725*%
%ADD61R,0.0671X0.1419*%
%ADD62R,0.0474X0.1458*%
%ADD63C,0.1580*%
%ADD64C,0.1660*%
%ADD65C,0.0390*%
%ADD66C,0.0470*%
%ADD67C,0.1015*%
%ADD68C,0.0730*%
%ADD69C,0.0218*%
%ADD70R,0.0474X0.0336*%
%ADD71C,0.0337*%
%ADD72C,0.0377*%
%ADD73C,0.2442*%
D10*
X007812Y013210D03*
X007812Y013604D03*
X007812Y013998D03*
X007812Y014391D03*
X007812Y014785D03*
X007812Y015179D03*
X007812Y015572D03*
X007812Y016754D03*
X007812Y017147D03*
X007812Y017541D03*
X007812Y017935D03*
X007812Y018328D03*
X007812Y018722D03*
X007812Y019116D03*
D11*
X007191Y012589D03*
D12*
X006797Y012589D03*
X006403Y012589D03*
X006009Y012589D03*
X005616Y012589D03*
X005222Y012589D03*
X004828Y012589D03*
X004435Y012589D03*
X004041Y012589D03*
X004041Y019737D03*
X004435Y019737D03*
X004828Y019737D03*
X005222Y019737D03*
X005616Y019737D03*
X006009Y019737D03*
X006403Y019737D03*
X006797Y019737D03*
X007191Y019737D03*
D13*
X004681Y021193D02*
X003637Y021193D01*
X003637Y022236D01*
X004681Y022236D01*
X004681Y021193D01*
X004681Y021237D02*
X003637Y021237D01*
X003637Y021433D02*
X004681Y021433D01*
X004681Y021628D02*
X003637Y021628D01*
X003637Y021823D02*
X004681Y021823D01*
X004681Y022019D02*
X003637Y022019D01*
X003637Y022214D02*
X004681Y022214D01*
D14*
X004966Y022200D02*
X005163Y022200D01*
X005163Y022167D02*
X005163Y022246D01*
X004966Y022246D01*
X004966Y022167D01*
X005163Y022167D01*
X005163Y022239D02*
X004966Y022239D01*
X004966Y022364D02*
X005163Y022364D01*
X005163Y022443D01*
X004986Y022443D01*
X004966Y022423D01*
X004966Y022364D01*
X004966Y022393D02*
X005163Y022393D01*
X005163Y022431D02*
X004974Y022431D01*
X004868Y022521D02*
X004809Y022521D01*
X004809Y022718D01*
X004887Y022718D01*
X004887Y022541D01*
X004868Y022521D01*
X004887Y022547D02*
X004809Y022547D01*
X004809Y022585D02*
X004887Y022585D01*
X004887Y022624D02*
X004809Y022624D01*
X004809Y022662D02*
X004887Y022662D01*
X004887Y022701D02*
X004809Y022701D01*
X004691Y022701D02*
X004612Y022701D01*
X004612Y022718D02*
X004691Y022718D01*
X004691Y022521D01*
X004612Y022521D01*
X004612Y022718D01*
X004612Y022662D02*
X004691Y022662D01*
X004691Y022624D02*
X004612Y022624D01*
X004612Y022585D02*
X004691Y022585D01*
X004691Y022547D02*
X004612Y022547D01*
X004494Y022547D02*
X004415Y022547D01*
X004415Y022521D02*
X004415Y022718D01*
X004494Y022718D01*
X004494Y022521D01*
X004415Y022521D01*
X004415Y022585D02*
X004494Y022585D01*
X004494Y022624D02*
X004415Y022624D01*
X004415Y022662D02*
X004494Y022662D01*
X004494Y022701D02*
X004415Y022701D01*
X004297Y022701D02*
X004218Y022701D01*
X004218Y022718D02*
X004297Y022718D01*
X004297Y022521D01*
X004218Y022521D01*
X004218Y022718D01*
X004218Y022662D02*
X004297Y022662D01*
X004297Y022624D02*
X004218Y022624D01*
X004218Y022585D02*
X004297Y022585D01*
X004297Y022547D02*
X004218Y022547D01*
X004100Y022547D02*
X004021Y022547D01*
X004021Y022521D02*
X004021Y022718D01*
X004100Y022718D01*
X004100Y022521D01*
X004021Y022521D01*
X004021Y022585D02*
X004100Y022585D01*
X004100Y022624D02*
X004021Y022624D01*
X004021Y022662D02*
X004100Y022662D01*
X004100Y022701D02*
X004021Y022701D01*
X003903Y022701D02*
X003824Y022701D01*
X003824Y022718D02*
X003903Y022718D01*
X003903Y022521D01*
X003824Y022521D01*
X003824Y022718D01*
X003824Y022662D02*
X003903Y022662D01*
X003903Y022624D02*
X003824Y022624D01*
X003824Y022585D02*
X003903Y022585D01*
X003903Y022547D02*
X003824Y022547D01*
X003706Y022547D02*
X003628Y022547D01*
X003628Y022521D02*
X003628Y022718D01*
X003706Y022718D01*
X003706Y022521D01*
X003628Y022521D01*
X003628Y022585D02*
X003706Y022585D01*
X003706Y022624D02*
X003628Y022624D01*
X003628Y022662D02*
X003706Y022662D01*
X003706Y022701D02*
X003628Y022701D01*
X003509Y022701D02*
X003431Y022701D01*
X003431Y022718D02*
X003509Y022718D01*
X003509Y022521D01*
X003450Y022521D01*
X003431Y022541D01*
X003431Y022718D01*
X003431Y022662D02*
X003509Y022662D01*
X003509Y022624D02*
X003431Y022624D01*
X003431Y022585D02*
X003509Y022585D01*
X003509Y022547D02*
X003431Y022547D01*
X003332Y022443D02*
X003352Y022423D01*
X003352Y022364D01*
X003155Y022364D01*
X003155Y022443D01*
X003332Y022443D01*
X003344Y022431D02*
X003155Y022431D01*
X003155Y022393D02*
X003352Y022393D01*
X003352Y022246D02*
X003352Y022167D01*
X003155Y022167D01*
X003155Y022246D01*
X003352Y022246D01*
X003352Y022239D02*
X003155Y022239D01*
X003155Y022200D02*
X003352Y022200D01*
X003352Y022049D02*
X003352Y021970D01*
X003155Y021970D01*
X003155Y022049D01*
X003352Y022049D01*
X003352Y022046D02*
X003155Y022046D01*
X003155Y022008D02*
X003352Y022008D01*
X003352Y021852D02*
X003352Y021773D01*
X003155Y021773D01*
X003155Y021852D01*
X003352Y021852D01*
X003352Y021815D02*
X003155Y021815D01*
X003155Y021777D02*
X003352Y021777D01*
X003352Y021655D02*
X003352Y021576D01*
X003155Y021576D01*
X003155Y021655D01*
X003352Y021655D01*
X003352Y021623D02*
X003155Y021623D01*
X003155Y021584D02*
X003352Y021584D01*
X003352Y021458D02*
X003352Y021380D01*
X003155Y021380D01*
X003155Y021458D01*
X003352Y021458D01*
X003352Y021430D02*
X003155Y021430D01*
X003155Y021392D02*
X003352Y021392D01*
X003352Y021261D02*
X003352Y021183D01*
X003155Y021183D01*
X003155Y021261D01*
X003352Y021261D01*
X003352Y021238D02*
X003155Y021238D01*
X003155Y021199D02*
X003352Y021199D01*
X003352Y021065D02*
X003155Y021065D01*
X003155Y020986D01*
X003332Y020986D01*
X003352Y021006D01*
X003352Y021065D01*
X003352Y021045D02*
X003155Y021045D01*
X003155Y021007D02*
X003352Y021007D01*
X003450Y020907D02*
X003509Y020907D01*
X003509Y020710D01*
X003431Y020710D01*
X003431Y020887D01*
X003450Y020907D01*
X003434Y020891D02*
X003509Y020891D01*
X003509Y020853D02*
X003431Y020853D01*
X003431Y020814D02*
X003509Y020814D01*
X003509Y020776D02*
X003431Y020776D01*
X003431Y020737D02*
X003509Y020737D01*
X003628Y020737D02*
X003706Y020737D01*
X003706Y020710D02*
X003628Y020710D01*
X003628Y020907D01*
X003706Y020907D01*
X003706Y020710D01*
X003706Y020776D02*
X003628Y020776D01*
X003628Y020814D02*
X003706Y020814D01*
X003706Y020853D02*
X003628Y020853D01*
X003628Y020891D02*
X003706Y020891D01*
X003824Y020891D02*
X003903Y020891D01*
X003903Y020907D02*
X003903Y020710D01*
X003824Y020710D01*
X003824Y020907D01*
X003903Y020907D01*
X003903Y020853D02*
X003824Y020853D01*
X003824Y020814D02*
X003903Y020814D01*
X003903Y020776D02*
X003824Y020776D01*
X003824Y020737D02*
X003903Y020737D01*
X004021Y020737D02*
X004100Y020737D01*
X004100Y020710D02*
X004021Y020710D01*
X004021Y020907D01*
X004100Y020907D01*
X004100Y020710D01*
X004100Y020776D02*
X004021Y020776D01*
X004021Y020814D02*
X004100Y020814D01*
X004100Y020853D02*
X004021Y020853D01*
X004021Y020891D02*
X004100Y020891D01*
X004218Y020891D02*
X004297Y020891D01*
X004297Y020907D02*
X004297Y020710D01*
X004218Y020710D01*
X004218Y020907D01*
X004297Y020907D01*
X004297Y020853D02*
X004218Y020853D01*
X004218Y020814D02*
X004297Y020814D01*
X004297Y020776D02*
X004218Y020776D01*
X004218Y020737D02*
X004297Y020737D01*
X004415Y020737D02*
X004494Y020737D01*
X004494Y020710D02*
X004415Y020710D01*
X004415Y020907D01*
X004494Y020907D01*
X004494Y020710D01*
X004494Y020776D02*
X004415Y020776D01*
X004415Y020814D02*
X004494Y020814D01*
X004494Y020853D02*
X004415Y020853D01*
X004415Y020891D02*
X004494Y020891D01*
X004612Y020891D02*
X004691Y020891D01*
X004691Y020907D02*
X004691Y020710D01*
X004612Y020710D01*
X004612Y020907D01*
X004691Y020907D01*
X004691Y020853D02*
X004612Y020853D01*
X004612Y020814D02*
X004691Y020814D01*
X004691Y020776D02*
X004612Y020776D01*
X004612Y020737D02*
X004691Y020737D01*
X004809Y020737D02*
X004887Y020737D01*
X004887Y020710D02*
X004809Y020710D01*
X004809Y020907D01*
X004868Y020907D01*
X004887Y020887D01*
X004887Y020710D01*
X004887Y020776D02*
X004809Y020776D01*
X004809Y020814D02*
X004887Y020814D01*
X004887Y020853D02*
X004809Y020853D01*
X004809Y020891D02*
X004884Y020891D01*
X004986Y020986D02*
X004966Y021006D01*
X004966Y021065D01*
X005163Y021065D01*
X005163Y020986D01*
X004986Y020986D01*
X004966Y021007D02*
X005163Y021007D01*
X005163Y021045D02*
X004966Y021045D01*
X004966Y021183D02*
X004966Y021261D01*
X005163Y021261D01*
X005163Y021183D01*
X004966Y021183D01*
X004966Y021199D02*
X005163Y021199D01*
X005163Y021238D02*
X004966Y021238D01*
X004966Y021380D02*
X004966Y021458D01*
X005163Y021458D01*
X005163Y021380D01*
X004966Y021380D01*
X004966Y021392D02*
X005163Y021392D01*
X005163Y021430D02*
X004966Y021430D01*
X004966Y021576D02*
X004966Y021655D01*
X005163Y021655D01*
X005163Y021576D01*
X004966Y021576D01*
X004966Y021584D02*
X005163Y021584D01*
X005163Y021623D02*
X004966Y021623D01*
X004966Y021773D02*
X004966Y021852D01*
X005163Y021852D01*
X005163Y021773D01*
X004966Y021773D01*
X004966Y021777D02*
X005163Y021777D01*
X005163Y021815D02*
X004966Y021815D01*
X004966Y021970D02*
X004966Y022049D01*
X005163Y022049D01*
X005163Y021970D01*
X004966Y021970D01*
X004966Y022008D02*
X005163Y022008D01*
X005163Y022046D02*
X004966Y022046D01*
D15*
X004671Y024057D03*
X004277Y024057D03*
X003883Y024057D03*
X003883Y024647D03*
X004277Y024647D03*
X004671Y024647D03*
X008057Y020946D03*
X008057Y020356D03*
D16*
X008017Y019962D03*
X008017Y019529D03*
X009356Y018427D03*
X009356Y017994D03*
X008883Y016143D03*
X008883Y015710D03*
X009986Y013624D03*
X009986Y013191D03*
X010734Y013269D03*
X010734Y013702D03*
X011521Y014254D03*
X011915Y014254D03*
X012309Y014254D03*
X012309Y014687D03*
X011915Y014687D03*
X011521Y014687D03*
X012702Y014687D03*
X012702Y014254D03*
X013293Y014254D03*
X013687Y014254D03*
X013687Y014687D03*
X013293Y014687D03*
X015065Y014529D03*
X015458Y014529D03*
X015458Y014096D03*
X015065Y014096D03*
X015025Y016261D03*
X015025Y016694D03*
X013687Y017679D03*
X013687Y018112D03*
X011994Y019490D03*
X011994Y019923D03*
X011364Y020907D03*
X011364Y021340D03*
X008923Y021340D03*
X008923Y020907D03*
X005813Y020750D03*
X005813Y021183D03*
X005813Y021498D03*
X005813Y021931D03*
X004277Y023230D03*
X003883Y023230D03*
X003883Y023663D03*
X004277Y023663D03*
X005104Y024293D03*
X005104Y024726D03*
X003017Y023820D03*
X003017Y023387D03*
X010655Y023899D03*
X010655Y024332D03*
X011088Y025553D03*
X011088Y025986D03*
X016718Y016616D03*
X016718Y016183D03*
X019671Y013939D03*
X019671Y013506D03*
X020104Y013230D03*
X020498Y013230D03*
X020891Y013230D03*
X020891Y012797D03*
X020498Y012797D03*
X020104Y012797D03*
X021679Y012954D03*
X021679Y012521D03*
X025891Y014608D03*
X026443Y014450D03*
X026443Y014883D03*
X025891Y015041D03*
X026443Y013584D03*
X026443Y013151D03*
X026443Y012757D03*
X026757Y012757D03*
X026757Y012324D03*
X026443Y012324D03*
X026443Y011813D03*
X026443Y011380D03*
X026443Y010828D03*
X026443Y010395D03*
X027072Y010120D03*
X027072Y009687D03*
X027072Y009411D03*
X027072Y008978D03*
X026797Y006655D03*
X026797Y006222D03*
X025694Y005868D03*
X025694Y005435D03*
X024159Y005435D03*
X024159Y005868D03*
X023332Y005789D03*
X023332Y005356D03*
X015813Y006380D03*
X015458Y006380D03*
X015458Y006813D03*
X015813Y006813D03*
X014671Y006813D03*
X014277Y006813D03*
X013883Y006813D03*
X013490Y006813D03*
X013096Y006813D03*
X012702Y006813D03*
X012309Y006813D03*
X011915Y006813D03*
X011521Y006813D03*
X011521Y006380D03*
X011915Y006380D03*
X012309Y006380D03*
X012702Y006380D03*
X013096Y006380D03*
X013490Y006380D03*
X013883Y006380D03*
X014277Y006380D03*
X014671Y006380D03*
X009002Y010710D03*
X008687Y010710D03*
X008687Y011143D03*
X009002Y011143D03*
X007191Y011498D03*
X006797Y011498D03*
X006797Y011931D03*
X007191Y011931D03*
X001876Y006655D03*
X001561Y006655D03*
X001561Y006222D03*
X001876Y006222D03*
X005380Y006065D03*
X005734Y005946D03*
X005734Y006380D03*
X005380Y005631D03*
X028175Y016852D03*
X028175Y017285D03*
D17*
X002319Y021478D03*
X002319Y021734D03*
X002319Y021990D03*
X002319Y022246D03*
X002319Y022502D03*
D18*
X002269Y023210D03*
X002269Y020769D03*
D19*
X001265Y020494D03*
X001265Y023486D03*
D20*
X001265Y022462D03*
X001265Y021517D03*
D21*
X005183Y023191D03*
X005183Y023860D03*
D22*
X009848Y024923D03*
X010222Y024923D03*
X010616Y024923D03*
X010616Y025986D03*
X009848Y025986D03*
X015478Y016694D03*
X016246Y016694D03*
X016246Y015631D03*
X015852Y015631D03*
X015478Y015631D03*
D23*
X015084Y017108D03*
X014651Y017108D03*
X012250Y017069D03*
X012250Y017462D03*
X011817Y017462D03*
X011817Y017069D03*
X011817Y017856D03*
X011817Y018250D03*
X012250Y018250D03*
X012250Y017856D03*
X011108Y018053D03*
X010675Y018053D03*
X010281Y018053D03*
X009848Y018053D03*
X009179Y018761D03*
X009179Y019076D03*
X009179Y019391D03*
X008746Y019391D03*
X008746Y019076D03*
X008746Y018761D03*
X008824Y018210D03*
X008824Y017856D03*
X008391Y017856D03*
X008391Y018210D03*
X008391Y017462D03*
X008824Y017462D03*
X008667Y015100D03*
X009100Y015100D03*
X009100Y014706D03*
X009100Y014313D03*
X008667Y014313D03*
X008667Y014706D03*
X008785Y012502D03*
X009218Y012502D03*
X009494Y012305D03*
X009218Y012108D03*
X009494Y011911D03*
X009218Y011714D03*
X009494Y011517D03*
X009336Y011124D03*
X009336Y010730D03*
X009336Y010336D03*
X009336Y009943D03*
X009769Y009943D03*
X009769Y010336D03*
X009769Y010730D03*
X009769Y011124D03*
X009927Y011517D03*
X009927Y011911D03*
X009927Y012305D03*
X008785Y012108D03*
X008785Y011714D03*
X008313Y011163D03*
X007880Y011163D03*
X009336Y009509D03*
X009769Y009509D03*
X009769Y008958D03*
X009336Y008958D03*
X009336Y008368D03*
X009769Y008368D03*
X009848Y007817D03*
X009848Y007423D03*
X010281Y007423D03*
X010281Y007817D03*
X011147Y004864D03*
X011580Y004864D03*
X016147Y006399D03*
X016147Y006793D03*
X016580Y006793D03*
X016580Y006399D03*
X017210Y008368D03*
X017210Y008761D03*
X017643Y008761D03*
X017643Y008368D03*
X017643Y009234D03*
X017919Y009549D03*
X017643Y009746D03*
X017643Y010139D03*
X017919Y010336D03*
X017643Y010533D03*
X017643Y010927D03*
X017643Y011320D03*
X017210Y011320D03*
X017210Y010927D03*
X017210Y010533D03*
X017210Y010139D03*
X017210Y009746D03*
X017210Y009234D03*
X018352Y009549D03*
X018903Y009588D03*
X018903Y009194D03*
X019336Y009194D03*
X019336Y009588D03*
X019691Y009588D03*
X020124Y009588D03*
X020872Y009391D03*
X020872Y008998D03*
X021305Y008998D03*
X021659Y008998D03*
X021659Y009391D03*
X021305Y009391D03*
X021659Y009785D03*
X021659Y010179D03*
X022092Y010179D03*
X022092Y009785D03*
X022092Y009391D03*
X022092Y008998D03*
X022722Y008604D03*
X023155Y008604D03*
X024100Y007423D03*
X024533Y007423D03*
X024887Y007423D03*
X024927Y007817D03*
X024494Y007817D03*
X025399Y007935D03*
X025832Y007935D03*
X025320Y007423D03*
X026069Y006635D03*
X026069Y006242D03*
X026502Y006242D03*
X026502Y006635D03*
X026502Y005848D03*
X026502Y005454D03*
X026069Y005454D03*
X026069Y005848D03*
X024927Y005848D03*
X024927Y005454D03*
X024494Y005454D03*
X024494Y005848D03*
X027368Y007974D03*
X027368Y008368D03*
X027801Y008368D03*
X027801Y007974D03*
X029139Y003683D03*
X029572Y003683D03*
X020124Y010376D03*
X019691Y010376D03*
X019336Y010376D03*
X019336Y009982D03*
X018903Y009982D03*
X018903Y010376D03*
X018352Y010336D03*
X018903Y010769D03*
X018903Y011163D03*
X019336Y011163D03*
X019691Y011163D03*
X020124Y011163D03*
X019336Y010769D03*
X017643Y011714D03*
X017643Y012108D03*
X017210Y012108D03*
X017210Y011714D03*
X017210Y012502D03*
X017643Y012502D03*
X017801Y014155D03*
X017368Y014155D03*
X020088Y014313D03*
X020084Y013919D03*
X020517Y013919D03*
X020521Y014313D03*
X021265Y013919D03*
X021265Y013525D03*
X021698Y013525D03*
X021698Y013919D03*
X020517Y013525D03*
X020084Y013525D03*
X021817Y012226D03*
X022250Y012226D03*
X022368Y011596D03*
X021935Y011596D03*
X024415Y015139D03*
X024848Y015139D03*
X027565Y013013D03*
X027565Y012620D03*
X027998Y012620D03*
X027998Y013013D03*
X015360Y022029D03*
X014927Y022029D03*
X011974Y020257D03*
X011541Y020257D03*
X011935Y018998D03*
X012368Y018998D03*
X008746Y019943D03*
X008313Y019943D03*
X007565Y020415D03*
X007131Y020415D03*
X007840Y021754D03*
X008273Y021754D03*
X006580Y023919D03*
X006147Y023919D03*
X009809Y024431D03*
X010242Y024431D03*
X011305Y025179D03*
X011738Y025179D03*
X010439Y027108D03*
X010006Y027108D03*
X003470Y020376D03*
X003037Y020376D03*
X004021Y007265D03*
X004454Y007265D03*
X005320Y006990D03*
X005320Y006675D03*
X005754Y006675D03*
X005754Y006990D03*
X004730Y004706D03*
X004297Y004706D03*
X001935Y005887D03*
X001502Y005887D03*
D24*
X019257Y021675D03*
X020006Y021675D03*
X024257Y015691D03*
X025006Y015691D03*
X026344Y015376D03*
X027092Y015376D03*
X025832Y008446D03*
X025084Y008446D03*
X008037Y022462D03*
X007289Y022462D03*
X006659Y022462D03*
X005911Y022462D03*
X009848Y026596D03*
X010596Y026596D03*
D25*
X007407Y021754D03*
X007407Y021360D03*
X007407Y020986D03*
X006344Y020986D03*
X006344Y021754D03*
D26*
X005813Y023289D03*
X006915Y023289D03*
X003844Y011360D03*
X002742Y011360D03*
D27*
X011128Y013525D03*
X011324Y013525D03*
X011521Y013525D03*
X011718Y013525D03*
X011915Y013525D03*
X012112Y013525D03*
X012309Y013525D03*
X012506Y013525D03*
X012702Y013525D03*
X012899Y013525D03*
X013096Y013525D03*
X013293Y013525D03*
X013490Y013525D03*
X013687Y013525D03*
X013883Y013525D03*
X014080Y013525D03*
X014277Y013525D03*
X014474Y013525D03*
X014671Y013525D03*
X014868Y013525D03*
X015065Y013525D03*
X015261Y013525D03*
X015458Y013525D03*
X015655Y013525D03*
X015852Y013525D03*
X015852Y007541D03*
X015655Y007541D03*
X015458Y007541D03*
X015261Y007541D03*
X015065Y007541D03*
X014868Y007541D03*
X014671Y007541D03*
X014474Y007541D03*
X014277Y007541D03*
X014080Y007541D03*
X013883Y007541D03*
X013687Y007541D03*
X013490Y007541D03*
X013293Y007541D03*
X013096Y007541D03*
X012899Y007541D03*
X012702Y007541D03*
X012506Y007541D03*
X012309Y007541D03*
X012112Y007541D03*
X011915Y007541D03*
X011718Y007541D03*
X011521Y007541D03*
X011324Y007541D03*
X011128Y007541D03*
D28*
X010498Y008171D03*
X010498Y008368D03*
X010498Y008565D03*
X010498Y008761D03*
X010498Y008958D03*
X010498Y009155D03*
X010498Y009352D03*
X010498Y009549D03*
X010498Y009746D03*
X010498Y009943D03*
X010498Y010139D03*
X010498Y010336D03*
X010498Y010533D03*
X010498Y010730D03*
X010498Y010927D03*
X010498Y011124D03*
X010498Y011320D03*
X010498Y011517D03*
X010498Y011714D03*
X010498Y011911D03*
X010498Y012108D03*
X010498Y012305D03*
X010498Y012502D03*
X010498Y012698D03*
X010498Y012895D03*
X016482Y012895D03*
X016482Y012698D03*
X016482Y012502D03*
X016482Y012305D03*
X016482Y012108D03*
X016482Y011911D03*
X016482Y011714D03*
X016482Y011517D03*
X016482Y011320D03*
X016482Y011124D03*
X016482Y010927D03*
X016482Y010730D03*
X016482Y010533D03*
X016482Y010336D03*
X016482Y010139D03*
X016482Y009943D03*
X016482Y009746D03*
X016482Y009549D03*
X016482Y009352D03*
X016482Y009155D03*
X016482Y008958D03*
X016482Y008761D03*
X016482Y008565D03*
X016482Y008368D03*
X016482Y008171D03*
D29*
X019061Y006537D03*
X019651Y006537D03*
X019651Y005946D03*
X019061Y005946D03*
X025242Y002876D03*
X025832Y002876D03*
X025832Y002285D03*
X025242Y002285D03*
X012525Y002364D03*
X012525Y002954D03*
X011935Y002954D03*
X011935Y002364D03*
X003982Y005710D03*
X003391Y005710D03*
X003391Y006301D03*
X003982Y006301D03*
D30*
X004789Y006389D03*
X004789Y006133D03*
X004789Y005878D03*
X004789Y005622D03*
X004789Y005366D03*
X004789Y005110D03*
X004789Y006645D03*
X004789Y006901D03*
X002584Y006901D03*
X002584Y006645D03*
X002584Y006389D03*
X002584Y006133D03*
X002584Y005878D03*
X002584Y005622D03*
X002584Y005366D03*
X002584Y005110D03*
D31*
X003687Y006006D03*
D32*
X003735Y004509D03*
X002615Y004509D03*
D33*
X015419Y018407D03*
X020694Y020218D03*
X031718Y016281D03*
X032112Y013919D03*
X031718Y011557D03*
X032112Y009194D03*
X031718Y006832D03*
X032112Y004470D03*
D34*
X030771Y004210D03*
X030771Y003691D03*
X030771Y004730D03*
X030771Y005250D03*
X033059Y006053D03*
X033059Y006572D03*
X033059Y007092D03*
X033059Y007612D03*
X030771Y008415D03*
X030771Y008935D03*
X030771Y009454D03*
X030771Y009974D03*
X033059Y010777D03*
X033059Y011297D03*
X033059Y011817D03*
X033059Y012336D03*
X030771Y013139D03*
X030771Y013659D03*
X030771Y014179D03*
X030771Y014698D03*
X033059Y015502D03*
X033059Y016021D03*
X033059Y016541D03*
X033059Y017061D03*
X019354Y019439D03*
X019354Y019958D03*
X019354Y020478D03*
X019354Y020998D03*
X014078Y019187D03*
X014078Y018667D03*
X014078Y018147D03*
X014078Y017628D03*
D35*
X024080Y017856D03*
X025183Y017856D03*
X025183Y016675D03*
X024080Y016675D03*
X029198Y016675D03*
X030301Y016675D03*
X030301Y011950D03*
X029198Y011950D03*
X029198Y007226D03*
X030301Y007226D03*
D36*
X029366Y006035D03*
X028559Y006035D03*
X028559Y004480D03*
X029366Y004480D03*
X029366Y009204D03*
X028559Y009204D03*
X028559Y010759D03*
X029366Y010759D03*
X029366Y013929D03*
X028559Y013929D03*
X028559Y015484D03*
X029366Y015484D03*
D37*
X023057Y017069D03*
X020694Y017069D03*
D38*
X019120Y016498D03*
X019120Y014805D03*
D39*
X021019Y011714D03*
X021630Y011714D03*
D40*
X022939Y011781D03*
X022939Y011584D03*
X022939Y011387D03*
X022939Y011191D03*
X022939Y010994D03*
X022939Y010797D03*
X022939Y010600D03*
X022939Y010403D03*
X022939Y010206D03*
X022939Y010009D03*
X022939Y009813D03*
X022939Y009616D03*
X022939Y009419D03*
X022939Y009222D03*
X022939Y009025D03*
X025891Y009025D03*
X025891Y009222D03*
X025891Y009419D03*
X025891Y009616D03*
X025891Y009813D03*
X025891Y010009D03*
X025891Y010206D03*
X025891Y010403D03*
X025891Y010600D03*
X025891Y010797D03*
X025891Y010994D03*
X025891Y011191D03*
X025891Y011387D03*
X025891Y011584D03*
X025891Y011781D03*
X025891Y011978D03*
X025891Y012175D03*
X025891Y012372D03*
X025891Y012569D03*
X025891Y012765D03*
X025891Y012962D03*
X025891Y013159D03*
X025891Y013356D03*
X025891Y013553D03*
X025891Y013750D03*
X025891Y013946D03*
X025891Y014143D03*
X025891Y014340D03*
X022939Y014340D03*
X022939Y014143D03*
X022939Y013946D03*
X022939Y013750D03*
X022939Y013553D03*
X022939Y013356D03*
X022939Y013159D03*
X022939Y012962D03*
X022939Y012765D03*
X022939Y012569D03*
X022939Y012372D03*
X022939Y012175D03*
X022939Y011978D03*
D41*
X024415Y011683D03*
D42*
X024671Y011683D03*
X024671Y012194D03*
X024671Y012706D03*
X024159Y012706D03*
X024159Y012194D03*
X024159Y011683D03*
X024159Y011171D03*
X024671Y011171D03*
X024671Y010659D03*
X024159Y010659D03*
D43*
X024198Y007019D03*
X024198Y006763D03*
X024198Y006507D03*
X024198Y006252D03*
X025222Y006252D03*
X025222Y006507D03*
X025222Y006763D03*
X025222Y007019D03*
D44*
X016974Y007777D03*
X016462Y007777D03*
X004013Y012037D03*
X003502Y012037D03*
D45*
X010372Y013187D03*
X010372Y013698D03*
D46*
X017227Y014691D03*
X017927Y014691D03*
X017927Y016691D03*
X017227Y016691D03*
D47*
X015941Y020691D03*
X013480Y020691D03*
D48*
X014710Y020691D03*
D49*
X014710Y020691D03*
X014592Y020887D03*
X014710Y021084D03*
X014828Y020887D03*
X014828Y020494D03*
X014710Y020297D03*
X014592Y020494D03*
X014592Y020100D03*
X014828Y020100D03*
X014828Y021281D03*
X014592Y021281D03*
D50*
X013135Y018269D03*
X013135Y017521D03*
D51*
X011049Y016439D03*
D52*
X009474Y016901D03*
X009474Y015976D03*
D53*
X019317Y007659D03*
X019317Y005691D03*
X030931Y021202D03*
X030931Y023171D03*
X034080Y023171D03*
X034080Y021202D03*
D54*
X013687Y002698D03*
X011718Y002698D03*
X006285Y001990D03*
X004317Y001990D03*
X024986Y002541D03*
X026954Y002541D03*
D55*
X023470Y002069D03*
X022092Y004037D03*
X020714Y002069D03*
X019336Y004037D03*
X017958Y002069D03*
X016580Y004037D03*
X009927Y002069D03*
X008549Y004037D03*
X017998Y023407D03*
X016620Y025376D03*
D56*
X011462Y019859D03*
X011265Y019859D03*
X011069Y019859D03*
X010872Y019859D03*
X010675Y019859D03*
X010478Y019859D03*
X010281Y019859D03*
X010084Y019859D03*
X009887Y019859D03*
X009691Y019859D03*
X009691Y018451D03*
X009887Y018451D03*
X010084Y018451D03*
X010281Y018451D03*
X010478Y018451D03*
X010675Y018451D03*
X010872Y018451D03*
X011069Y018451D03*
X011265Y018451D03*
X011462Y018451D03*
D57*
X011570Y018860D03*
X011570Y019057D03*
X011570Y019254D03*
X011570Y019450D03*
X009582Y019450D03*
X009582Y019254D03*
X009582Y019057D03*
X009582Y018860D03*
D58*
X009513Y020907D03*
X010773Y020907D03*
X010773Y023072D03*
X009513Y023072D03*
D59*
X011285Y023939D03*
X012151Y024313D03*
X011285Y024687D03*
X014513Y023191D03*
X014513Y022443D03*
X015380Y022817D03*
X013096Y016734D03*
X013096Y015986D03*
X012230Y016360D03*
D60*
X008647Y024943D03*
X008647Y025730D03*
X007663Y025730D03*
X007663Y024943D03*
X006679Y024943D03*
X006679Y025730D03*
D61*
X012761Y026557D03*
X015399Y026557D03*
D62*
X014474Y024293D03*
X013687Y024293D03*
D63*
X022763Y021006D03*
X022763Y019756D03*
X025713Y019756D03*
X025713Y021006D03*
D64*
X027583Y026176D03*
X020893Y026176D03*
D65*
X007637Y009364D03*
X007137Y009364D03*
X007137Y008864D03*
X007637Y008864D03*
X007637Y008364D03*
X007137Y008364D03*
X007137Y007864D03*
X007137Y007364D03*
X007637Y007364D03*
X007637Y007864D03*
X004415Y008787D03*
X004415Y009287D03*
X003915Y009287D03*
X003915Y008787D03*
X003415Y008787D03*
X003415Y009287D03*
X002915Y009287D03*
X002915Y008787D03*
X002415Y008787D03*
X002415Y009287D03*
D66*
X001915Y009037D03*
X004915Y008637D03*
X004915Y009437D03*
X007387Y009864D03*
X006987Y006864D03*
X007787Y006864D03*
D67*
X008387Y007614D03*
X006387Y007614D03*
X004165Y008037D03*
X001915Y008037D03*
X001915Y010037D03*
X004165Y010037D03*
X006387Y009864D03*
X008387Y009864D03*
D68*
X008490Y005651D03*
X007490Y005651D03*
X006490Y005651D03*
X009490Y005651D03*
X010490Y005651D03*
X034868Y009376D03*
X034868Y010376D03*
X034868Y011376D03*
X007234Y026911D03*
X006234Y026911D03*
X005234Y026911D03*
X004234Y026911D03*
D69*
X004828Y011242D03*
X004828Y010848D03*
X005222Y010848D03*
X005222Y011242D03*
X005616Y011242D03*
X005616Y010848D03*
X005616Y010454D03*
X005222Y010454D03*
X004828Y010454D03*
D70*
X006049Y010543D03*
X006049Y011153D03*
D71*
X006128Y011478D03*
X005773Y011478D03*
X005419Y011478D03*
X004907Y011320D03*
X003490Y012462D03*
X003096Y012462D03*
X003096Y012069D03*
X002939Y010769D03*
X002545Y010769D03*
X001403Y009234D03*
X005025Y004746D03*
X005025Y004313D03*
X004671Y004313D03*
X004710Y002974D03*
X004317Y002974D03*
X004317Y002580D03*
X004710Y002580D03*
X003923Y002580D03*
X003923Y002974D03*
X007112Y002305D03*
X007506Y002305D03*
X007506Y001911D03*
X007506Y001517D03*
X007112Y001517D03*
X007112Y001911D03*
X013529Y001754D03*
X013962Y002108D03*
X013962Y002502D03*
X013529Y002502D03*
X013962Y002856D03*
X015222Y003643D03*
X015537Y003643D03*
X015537Y003958D03*
X015222Y003958D03*
X013962Y001399D03*
X017309Y007620D03*
X017309Y007935D03*
X018057Y009234D03*
X018372Y009234D03*
X019159Y007935D03*
X019513Y007935D03*
X019907Y007935D03*
X020301Y007935D03*
X020301Y007502D03*
X019907Y007502D03*
X019513Y007502D03*
X025813Y007580D03*
X026206Y007580D03*
X026206Y007187D03*
X025813Y007187D03*
X026797Y005691D03*
X027112Y005691D03*
X027112Y005336D03*
X026797Y005336D03*
X029868Y005809D03*
X029868Y006281D03*
X029750Y006832D03*
X029750Y007620D03*
X030931Y007620D03*
X031324Y007226D03*
X030931Y006832D03*
X031324Y006439D03*
X030931Y006045D03*
X031718Y006045D03*
X032112Y006439D03*
X032506Y006832D03*
X032112Y007226D03*
X031718Y007620D03*
X031718Y006832D03*
X032506Y006045D03*
X032506Y007620D03*
X029868Y010533D03*
X029868Y011006D03*
X029750Y011557D03*
X029750Y012344D03*
X030931Y012344D03*
X031324Y011950D03*
X031718Y012344D03*
X032112Y011950D03*
X032506Y011557D03*
X032112Y011163D03*
X031718Y011557D03*
X031324Y011163D03*
X030931Y011557D03*
X030931Y010769D03*
X031718Y010769D03*
X032506Y010769D03*
X032506Y012344D03*
X029868Y015257D03*
X029868Y015730D03*
X029750Y016281D03*
X029750Y017069D03*
X030931Y017069D03*
X031324Y016675D03*
X030931Y016281D03*
X031324Y015887D03*
X031718Y016281D03*
X032112Y015887D03*
X032506Y015494D03*
X032506Y016281D03*
X032112Y016675D03*
X032506Y017069D03*
X031718Y017069D03*
X031718Y015494D03*
X030931Y015494D03*
X026836Y013407D03*
X026836Y013131D03*
X025813Y015494D03*
X025419Y015494D03*
X025419Y015887D03*
X025813Y015887D03*
X026206Y015887D03*
X026206Y016281D03*
X025813Y016281D03*
X025813Y016675D03*
X026206Y016675D03*
X026206Y017069D03*
X026206Y017462D03*
X025813Y017462D03*
X025813Y017069D03*
X025813Y017856D03*
X026206Y017856D03*
X026206Y018250D03*
X025813Y018250D03*
X023450Y018250D03*
X023057Y018250D03*
X022663Y018250D03*
X022663Y017856D03*
X023057Y017856D03*
X023450Y017856D03*
X023450Y016281D03*
X023057Y016281D03*
X023057Y015887D03*
X023450Y015887D03*
X023844Y015887D03*
X023844Y015494D03*
X023450Y015494D03*
X021088Y015494D03*
X020694Y015494D03*
X020301Y015100D03*
X019907Y015100D03*
X019907Y014706D03*
X020301Y014706D03*
X020694Y015887D03*
X021088Y015887D03*
X018726Y018250D03*
X018332Y018643D03*
X017939Y018250D03*
X017545Y018643D03*
X017151Y018250D03*
X017151Y019037D03*
X017545Y019431D03*
X017939Y019824D03*
X018332Y020218D03*
X017939Y020612D03*
X018332Y021006D03*
X017939Y021399D03*
X018332Y021793D03*
X018726Y021399D03*
X018726Y020612D03*
X018726Y019824D03*
X018332Y019431D03*
X017939Y019037D03*
X018726Y019037D03*
X017545Y020218D03*
X017151Y019824D03*
X017151Y020612D03*
X017545Y021006D03*
X017151Y021399D03*
X017545Y021793D03*
X014671Y022069D03*
X014356Y022069D03*
X014041Y022069D03*
X014041Y022423D03*
X012663Y022265D03*
X012269Y022580D03*
X011876Y022265D03*
X012269Y021911D03*
X011876Y021596D03*
X012269Y021242D03*
X012663Y021557D03*
X012663Y020927D03*
X011876Y020927D03*
X011876Y022895D03*
X012663Y022895D03*
X010616Y025454D03*
X010222Y025454D03*
X009828Y025454D03*
X009317Y025966D03*
X009317Y026360D03*
X009317Y026754D03*
X011049Y027108D03*
X011443Y026714D03*
X011049Y026320D03*
X011443Y025927D03*
X007427Y023880D03*
X006954Y023880D03*
X007427Y023486D03*
X007427Y023092D03*
X012978Y017069D03*
X013293Y017069D03*
X016718Y015887D03*
X009671Y013210D03*
X026403Y000730D03*
X026797Y002423D03*
X027230Y002423D03*
X027230Y002777D03*
D72*
X028569Y002895D03*
X028962Y002502D03*
X028569Y002108D03*
X028962Y001714D03*
X029356Y002108D03*
X029750Y002502D03*
X030143Y002108D03*
X029750Y001714D03*
X030143Y001320D03*
X029750Y000927D03*
X029356Y001320D03*
X028962Y000927D03*
X028569Y001320D03*
X028569Y000533D03*
X029356Y000533D03*
X030143Y000533D03*
X030537Y000927D03*
X030931Y001320D03*
X031324Y000927D03*
X031718Y001320D03*
X032112Y000927D03*
X032506Y001320D03*
X032899Y000927D03*
X032506Y000533D03*
X033293Y000533D03*
X032899Y001714D03*
X032506Y002108D03*
X032899Y002502D03*
X032506Y002895D03*
X032112Y002502D03*
X031718Y002108D03*
X031324Y002502D03*
X030931Y002108D03*
X031324Y001714D03*
X030537Y001714D03*
X030537Y002502D03*
X030143Y002895D03*
X029356Y002895D03*
X030931Y002895D03*
X031718Y002895D03*
X032112Y001714D03*
X033293Y002895D03*
X031718Y000533D03*
X030931Y000533D03*
X032112Y020612D03*
X032506Y021006D03*
X032899Y021399D03*
X033293Y021006D03*
X032899Y020612D03*
X032112Y021399D03*
X031718Y021006D03*
X031718Y021793D03*
X032112Y022580D03*
X031718Y022974D03*
X032112Y023368D03*
X031718Y023761D03*
X031324Y024155D03*
X030537Y024155D03*
X030143Y023761D03*
X029750Y023368D03*
X030143Y022974D03*
X029750Y022580D03*
X030143Y021793D03*
X029750Y021399D03*
X030143Y021006D03*
X029750Y020612D03*
X032899Y022580D03*
X033293Y022974D03*
X032899Y023368D03*
X033293Y023761D03*
X033687Y024155D03*
X034474Y024155D03*
X034868Y023761D03*
X035261Y023368D03*
X034868Y022974D03*
X035261Y022580D03*
X034868Y021793D03*
X035261Y021399D03*
X034868Y021006D03*
X035261Y020612D03*
X033293Y021793D03*
X032899Y024155D03*
X032112Y024155D03*
X029750Y024155D03*
X035261Y024155D03*
D73*
X002191Y001714D03*
X002191Y026124D03*
X034474Y026124D03*
X034474Y001714D03*
M02*
