%
M48
M72
T01C0.0079
T02C0.0100
T03C0.0130
T04C0.0157
T05C0.0197
T06C0.0390
T07C0.0394
T08C0.0430
T09C0.0433
T10C0.0700
T11C0.0935
T12C0.1180
T13C0.1181
%
T01
X2033Y5612
X2112Y6399
X1285Y7462
X2978Y8407
X3450Y8486
X4159Y9037
X5104Y9037
X5340Y8998
X4868Y8210
X5143Y7698
X5419Y7738
X4946Y7108
X6009Y6675
X5970Y5927
X7348Y6399
X9080Y6084
X10025Y6045
X10222Y6202
X10734Y6596
X11521Y6163
X11915Y6242
X12112Y6124
X12309Y6242
X12702Y6084
X12978Y6045
X13254Y6084
X13883Y6242
X14513Y6163
X14868Y6006
X15143Y5927
X15419Y5848
X15694Y5376
X17387Y6242
X17820Y6635
X16757Y7069
X16128Y6990
X16049Y7541
X15065Y6714
X14868Y7029
X14277Y7069
X13293Y7069
X14395Y8053
X14002Y8525
X14986Y8761
X15616Y9628
X16009Y9903
X14395Y10376
X15301Y11242
X16915Y11281
X17899Y10927
X18293Y10887
X18254Y11124
X18254Y11399
X18254Y11635
X18254Y11872
X18293Y12383
X17939Y12620
X16954Y12305
X16954Y11911
X15340Y12738
X15340Y13053
X15773Y14037
X15261Y14667
X14750Y14628
X14553Y14509
X14317Y14588
X14120Y14864
X13962Y14667
X13293Y14864
X12978Y14706
X13096Y13958
X14710Y15139
X14513Y15297
X14592Y15533
X15025Y16006
X15852Y16045
X14592Y16714
X13490Y15612
X12230Y16793
X11561Y17069
X10655Y17817
X11364Y18053
X11994Y17856
X12466Y18250
X12269Y19273
X12742Y19667
X12230Y19982
X12230Y20218
X11049Y19155
X11049Y18919
X9907Y19391
X9159Y19667
X8962Y19943
X8529Y19470
X8529Y19194
X8726Y18525
X8962Y17856
X9041Y17462
X9356Y17423
X9435Y17659
X9592Y18013
X10143Y17147
X8883Y16399
X8372Y16754
X8372Y17147
X9789Y15494
X10340Y15494
X9513Y14667
X9356Y14470
X9986Y13880
X10891Y13053
X12466Y11675
X12466Y11399
X13057Y11911
X13214Y11675
X12427Y10494
X12033Y10494
X11757Y10612
X10025Y10927
X9238Y11399
X8372Y12108
X8529Y12305
X8411Y12502
X8175Y12620
X6521Y13525
X5734Y11990
X5458Y12147
X6600Y11163
X6876Y11202
X7309Y10572
X8450Y10691
X9120Y10257
X10025Y9943
X9750Y9194
X10065Y8722
X10537Y7817
X9553Y7817
X9553Y7383
X7978Y8565
X7348Y8171
X6797Y8880
X8923Y9037
X3765Y7423
X3214Y9667
X2151Y11281
X8726Y13880
X2939Y19076
X3017Y20139
X3490Y20139
X4041Y20415
X3017Y20848
X2466Y20100
X2820Y21994
X2820Y22222
X2978Y22423
X3490Y22856
X4238Y22817
X5143Y22698
X5419Y22222
X5419Y21994
X6167Y21360
X5419Y21045
X5655Y20494
X5931Y20179
X6246Y20257
X6797Y20297
X7624Y19746
X7584Y19470
X9828Y20218
X8490Y21754
X10143Y22935
X11757Y23919
X7387Y24234
X5104Y24982
X4671Y24982
X4277Y24982
X3883Y24982
X3017Y24076
X5065Y20336
X16482Y21911
X16639Y14982
X19395Y13958
X19868Y14313
X20970Y13919
X21088Y13525
X21246Y13092
X21206Y12580
X21403Y12423
X21324Y12187
X21561Y12226
X22033Y12462
X22112Y12226
X22269Y12659
X22466Y12777
X22427Y13289
X22112Y13525
X22033Y12974
X20891Y12580
X20498Y12580
X20222Y11950
X20813Y11714
X20340Y11163
X20340Y10376
X20537Y9903
X20380Y9706
X21443Y9785
X21482Y9391
X21482Y8998
X21797Y8643
X20576Y8761
X19159Y8958
X18883Y8840
X18726Y9588
X18135Y9824
X18254Y10061
X17978Y10061
X18647Y10376
X18332Y10612
X19120Y10966
X19120Y10179
X19513Y11911
X19789Y12777
X19828Y13171
X23647Y13218
X24159Y13218
X24159Y12706
X24159Y12194
X23647Y12194
X23647Y12706
X23647Y11683
X24159Y11683
X24671Y11683
X25183Y11683
X25183Y12194
X24671Y12194
X24671Y12706
X25183Y12706
X25183Y13218
X24671Y13218
X24671Y13730
X25183Y13730
X25183Y14242
X24671Y14242
X24159Y14242
X23647Y14242
X23647Y13730
X24159Y13730
X26443Y12305
X26757Y12305
X26994Y11990
X27230Y11714
X26757Y11714
X26718Y11439
X26679Y11163
X27191Y10533
X26679Y10376
X26561Y10139
X26679Y9943
X26403Y9943
X25183Y10147
X25183Y9635
X24671Y9635
X24671Y10147
X24159Y10147
X24159Y9635
X23647Y9635
X23647Y10147
X23647Y10659
X24159Y10659
X24159Y11171
X23647Y11171
X24671Y11171
X25183Y11171
X25183Y10659
X24671Y10659
X24671Y9124
X25183Y9124
X24159Y9124
X23647Y9124
X22309Y9785
X23883Y7423
X23765Y5966
X24159Y5257
X25340Y5494
X25261Y4470
X24868Y4155
X25970Y4037
X27346Y6121
X27508Y6283
X28450Y5372
X28450Y5143
X25498Y7423
X26521Y7856
X26679Y8289
X26915Y8643
X27112Y8486
X27387Y8722
X27466Y8958
X26403Y8801
X27573Y12305
X27832Y12305
X26994Y12738
X27269Y13289
X27269Y13565
X27573Y13761
X27832Y13761
X21403Y6478
X21285Y5533
X21009Y4982
X17820Y5602
X12742Y4943
X11915Y4785
X11836Y4391
X11324Y4391
X11049Y1045
X11049Y612
X12545Y612
X24002Y887
T02
X14828Y20100
X14710Y20297
X14592Y20494
X14710Y20691
X14592Y20887
X14710Y21084
X14828Y20887
X14828Y20494
X14592Y20100
X14592Y21281
X14828Y21281
T03
X19061Y6537
X19651Y6537
X19651Y5946
X19061Y5946
X25242Y2876
X25832Y2876
X25832Y2285
X25242Y2285
X12525Y2364
X12525Y2954
X11935Y2954
X11935Y2364
X3982Y5710
X3391Y5710
X3391Y6301
X3982Y6301
T04
X5025Y4746
X5025Y4313
X4671Y4313
X4710Y2974
X4317Y2974
X4317Y2580
X4710Y2580
X3923Y2580
X3923Y2974
X7112Y2305
X7506Y2305
X7506Y1911
X7506Y1517
X7112Y1517
X7112Y1911
X13529Y1754
X13962Y2108
X13962Y2502
X13529Y2502
X13962Y2856
X15222Y3643
X15537Y3643
X15537Y3958
X15222Y3958
X13962Y1399
X17309Y7620
X17309Y7935
X18057Y9234
X18372Y9234
X19159Y7935
X19513Y7935
X19907Y7935
X20301Y7935
X20301Y7502
X19907Y7502
X19513Y7502
X25813Y7580
X26206Y7580
X26206Y7187
X25813Y7187
X26797Y5691
X27112Y5691
X27112Y5336
X26797Y5336
X29868Y5809
X29868Y6281
X29750Y6832
X29750Y7620
X30931Y7620
X31324Y7226
X30931Y6832
X31324Y6439
X30931Y6045
X31718Y6045
X32112Y6439
X32506Y6832
X32112Y7226
X31718Y7620
X31718Y6832
X32506Y6045
X32506Y7620
X29868Y10533
X29868Y11006
X29750Y11557
X29750Y12344
X30931Y12344
X31324Y11950
X31718Y12344
X32112Y11950
X32506Y11557
X32112Y11163
X31718Y11557
X31324Y11163
X30931Y11557
X30931Y10769
X31718Y10769
X32506Y10769
X32506Y12344
X29868Y15257
X29868Y15730
X29750Y16281
X29750Y17069
X30931Y17069
X31324Y16675
X30931Y16281
X31324Y15887
X31718Y16281
X32112Y15887
X32506Y15494
X32506Y16281
X32112Y16675
X32506Y17069
X31718Y17069
X31718Y15494
X30931Y15494
X26836Y13407
X26836Y13131
X25813Y15494
X25419Y15494
X25419Y15887
X25813Y15887
X26206Y15887
X26206Y16281
X25813Y16281
X25813Y16675
X26206Y16675
X26206Y17069
X26206Y17462
X25813Y17462
X25813Y17069
X25813Y17856
X26206Y17856
X26206Y18250
X25813Y18250
X23450Y18250
X23057Y18250
X22663Y18250
X22663Y17856
X23057Y17856
X23450Y17856
X23450Y16281
X23057Y16281
X23057Y15887
X23450Y15887
X23844Y15887
X23844Y15494
X23450Y15494
X21088Y15494
X20694Y15494
X20301Y15100
X19907Y15100
X19907Y14706
X20301Y14706
X20694Y15887
X21088Y15887
X18726Y18250
X18332Y18643
X17939Y18250
X17545Y18643
X17151Y18250
X17151Y19037
X17545Y19431
X17939Y19824
X18332Y20218
X17939Y20612
X18332Y21006
X17939Y21399
X18332Y21793
X18726Y21399
X18726Y20612
X18726Y19824
X18332Y19431
X17939Y19037
X18726Y19037
X17545Y20218
X17151Y19824
X17151Y20612
X17545Y21006
X17151Y21399
X17545Y21793
X14671Y22069
X14356Y22069
X14041Y22069
X14041Y22423
X12663Y22265
X12269Y22580
X11876Y22265
X12269Y21911
X11876Y21596
X12269Y21242
X12663Y21557
X12663Y20927
X11876Y20927
X11876Y22895
X12663Y22895
X10616Y25454
X10222Y25454
X9828Y25454
X9317Y25966
X9317Y26360
X9317Y26754
X11049Y27108
X11443Y26714
X11049Y26320
X11443Y25927
X7427Y23880
X6954Y23880
X7427Y23486
X7427Y23092
X12978Y17069
X13293Y17069
X16718Y15887
X9671Y13210
X6128Y11478
X5773Y11478
X5419Y11478
X4907Y11320
X3490Y12462
X3096Y12462
X3096Y12069
X2939Y10769
X2545Y10769
X1403Y9234
X26403Y730
X26797Y2423
X27230Y2423
X27230Y2777
T05
X28569Y2895
X28962Y2502
X28569Y2108
X28962Y1714
X29356Y2108
X29750Y2502
X30143Y2108
X29750Y1714
X30143Y1320
X29750Y927
X29356Y1320
X28962Y927
X28569Y1320
X28569Y533
X29356Y533
X30143Y533
X30537Y927
X30931Y1320
X31324Y927
X31718Y1320
X32112Y927
X32506Y1320
X32899Y927
X32506Y533
X33293Y533
X32899Y1714
X32506Y2108
X32899Y2502
X32506Y2895
X32112Y2502
X31718Y2108
X31324Y2502
X30931Y2108
X31324Y1714
X30537Y1714
X30537Y2502
X30143Y2895
X29356Y2895
X30931Y2895
X31718Y2895
X32112Y1714
X33293Y2895
X31718Y533
X30931Y533
X32112Y20612
X32506Y21006
X32899Y21399
X33293Y21006
X32899Y20612
X32112Y21399
X31718Y21006
X31718Y21793
X32112Y22580
X31718Y22974
X32112Y23368
X31718Y23761
X31324Y24155
X30537Y24155
X30143Y23761
X29750Y23368
X30143Y22974
X29750Y22580
X30143Y21793
X29750Y21399
X30143Y21006
X29750Y20612
X32899Y22580
X33293Y22974
X32899Y23368
X33293Y23761
X33687Y24155
X34474Y24155
X34868Y23761
X35261Y23368
X34868Y22974
X35261Y22580
X34868Y21793
X35261Y21399
X34868Y21006
X35261Y20612
X33293Y21793
X32899Y24155
X32112Y24155
X29750Y24155
X35261Y24155
T06
X7787Y6864
X6987Y6864
X4915Y8637
X4915Y9437
X7387Y9864
X1915Y9037
T07
X8549Y4037
X9927Y2069
X16580Y4037
X17958Y2069
X19336Y4037
X20714Y2069
X22092Y4037
X23470Y2069
X17998Y23407
X16620Y25376
T08
X8647Y25730
X8647Y24943
X7663Y24943
X7663Y25730
X6679Y25730
X6679Y24943
T09
X6234Y26911
X5234Y26911
X4234Y26911
X7234Y26911
X34868Y11376
X34868Y10376
X34868Y9376
X10490Y5651
X9490Y5651
X8490Y5651
X7490Y5651
X6490Y5651
T10
X22763Y19756
X22763Y21006
X25713Y21006
X25713Y19756
T11
X8387Y9864
X6387Y9864
X4165Y10037
X1915Y10037
X1915Y8037
X4165Y8037
X6387Y7614
X8387Y7614
T12
X20893Y26176
X27583Y26176
T13
X2191Y1714
X2191Y26124
X34474Y26124
X34474Y1714
M30
