G75*
%MOIN*%
%OFA0B0*%
%FSLAX24Y24*%
%IPPOS*%
%LPD*%
%AMOC8*
5,1,8,0,0,1.08239X$1,22.5*
%
%ADD10C,0.0230*%
%ADD11C,0.0179*%
%ADD12C,0.0200*%
%ADD13C,0.0591*%
%ADD14C,0.0645*%
%ADD15C,0.1050*%
%ADD16C,0.1580*%
%ADD17C,0.0650*%
%ADD18C,0.0257*%
%ADD19C,0.0079*%
%ADD20C,0.0297*%
%ADD21C,0.1581*%
D10*
X003391Y005710D03*
X003982Y005710D03*
X003982Y006301D03*
X003391Y006301D03*
X011935Y002954D03*
X012525Y002954D03*
X012525Y002364D03*
X011935Y002364D03*
X019061Y005946D03*
X019651Y005946D03*
X019651Y006537D03*
X019061Y006537D03*
X025242Y002876D03*
X025832Y002876D03*
X025832Y002285D03*
X025242Y002285D03*
D11*
X024002Y000887D03*
X024671Y004234D03*
X025025Y004194D03*
X025261Y004470D03*
X025970Y004037D03*
X025340Y005494D03*
X024159Y005257D03*
X023765Y005966D03*
X023883Y007423D03*
X025498Y007423D03*
X026521Y007856D03*
X026679Y008289D03*
X026915Y008643D03*
X027112Y008486D03*
X027387Y008722D03*
X027466Y008958D03*
X026403Y008801D03*
X025183Y009124D03*
X024671Y009124D03*
X024671Y009635D03*
X025183Y009635D03*
X025183Y010147D03*
X024671Y010147D03*
X024159Y010147D03*
X024159Y009635D03*
X023647Y009635D03*
X023647Y010147D03*
X023647Y010659D03*
X024159Y010659D03*
X024159Y011171D03*
X023647Y011171D03*
X023647Y011683D03*
X024159Y011683D03*
X024159Y012194D03*
X023647Y012194D03*
X023647Y012706D03*
X024159Y012706D03*
X024671Y012706D03*
X024671Y012194D03*
X025183Y012194D03*
X025183Y012706D03*
X025183Y013218D03*
X024671Y013218D03*
X024671Y013730D03*
X025183Y013730D03*
X025183Y014242D03*
X024671Y014242D03*
X024159Y014242D03*
X023647Y014242D03*
X023647Y013730D03*
X024159Y013730D03*
X024159Y013218D03*
X023647Y013218D03*
X022427Y013289D03*
X022112Y013525D03*
X022033Y012974D03*
X022269Y012659D03*
X022466Y012777D03*
X022033Y012462D03*
X022112Y012226D03*
X021561Y012226D03*
X021324Y012187D03*
X021403Y012423D03*
X021206Y012580D03*
X020891Y012580D03*
X020498Y012580D03*
X020222Y011950D03*
X020813Y011714D03*
X020340Y011163D03*
X020340Y010376D03*
X020537Y009903D03*
X020380Y009706D03*
X021443Y009785D03*
X021482Y009391D03*
X021482Y008998D03*
X021797Y008643D03*
X021206Y008565D03*
X020576Y008683D03*
X019159Y008958D03*
X018883Y008840D03*
X018726Y009588D03*
X018569Y009785D03*
X018293Y010061D03*
X017899Y009824D03*
X017663Y010179D03*
X018332Y010612D03*
X018293Y010887D03*
X018254Y011124D03*
X018254Y011399D03*
X018254Y011635D03*
X018254Y011872D03*
X018293Y012383D03*
X017939Y012620D03*
X017191Y012817D03*
X016954Y012305D03*
X016954Y011911D03*
X016915Y011281D03*
X017899Y010966D03*
X018647Y010376D03*
X019120Y010179D03*
X019120Y010966D03*
X019513Y011911D03*
X019789Y012777D03*
X019828Y013171D03*
X019395Y013958D03*
X019868Y014313D03*
X020970Y013919D03*
X021088Y013525D03*
X021246Y013092D03*
X024671Y011683D03*
X025183Y011683D03*
X025183Y011171D03*
X024671Y011171D03*
X024671Y010659D03*
X025183Y010659D03*
X026403Y009943D03*
X026561Y010139D03*
X026679Y009943D03*
X026679Y010376D03*
X027191Y010533D03*
X026679Y011163D03*
X026718Y011439D03*
X026757Y011714D03*
X026994Y011990D03*
X027230Y011714D03*
X027573Y012305D03*
X027832Y012305D03*
X026994Y012738D03*
X027269Y013289D03*
X027269Y013565D03*
X027573Y013761D03*
X027832Y013761D03*
X026757Y012305D03*
X026443Y012305D03*
X024159Y009124D03*
X023647Y009124D03*
X022309Y009785D03*
X021403Y006478D03*
X021285Y005533D03*
X021009Y004982D03*
X017820Y005563D03*
X017860Y005927D03*
X017387Y006242D03*
X017820Y006635D03*
X016757Y007069D03*
X016128Y006990D03*
X016049Y007541D03*
X015301Y008486D03*
X014868Y008604D03*
X014159Y008722D03*
X014002Y008525D03*
X014395Y008053D03*
X014277Y007069D03*
X014868Y007029D03*
X015065Y006714D03*
X014868Y006006D03*
X015143Y005927D03*
X015419Y005848D03*
X015694Y004982D03*
X014513Y006163D03*
X013883Y006242D03*
X013254Y006084D03*
X012978Y006045D03*
X012702Y006084D03*
X012309Y006242D03*
X012112Y006124D03*
X011915Y006242D03*
X011521Y006163D03*
X010734Y006596D03*
X010143Y006202D03*
X010025Y006006D03*
X009080Y006124D03*
X009946Y005257D03*
X011049Y005257D03*
X011364Y004667D03*
X011324Y004391D03*
X011836Y004391D03*
X011915Y004785D03*
X012269Y004706D03*
X012663Y004824D03*
X010616Y003919D03*
X007348Y006399D03*
X006009Y006675D03*
X005970Y005927D03*
X004946Y007108D03*
X005143Y007698D03*
X005419Y007738D03*
X004868Y008210D03*
X005104Y009037D03*
X005340Y008998D03*
X004159Y009037D03*
X003450Y008486D03*
X002978Y008407D03*
X003765Y007423D03*
X002112Y006399D03*
X002033Y005612D03*
X001285Y007462D03*
X003214Y009667D03*
X002151Y011281D03*
X005458Y012147D03*
X005734Y011990D03*
X006600Y011163D03*
X006876Y011202D03*
X007309Y010572D03*
X008450Y010691D03*
X009120Y010257D03*
X010025Y009943D03*
X009750Y009194D03*
X010104Y008761D03*
X009631Y008643D03*
X008923Y009037D03*
X008687Y009116D03*
X007978Y008565D03*
X007348Y008171D03*
X006797Y008880D03*
X009553Y007226D03*
X010537Y007738D03*
X010852Y007620D03*
X011954Y008053D03*
X013293Y007069D03*
X015616Y009431D03*
X016009Y009903D03*
X014395Y010376D03*
X013726Y009746D03*
X012820Y009746D03*
X012427Y010494D03*
X012033Y010494D03*
X012466Y011399D03*
X013214Y011675D03*
X015301Y011242D03*
X015970Y012383D03*
X015340Y012738D03*
X015773Y014037D03*
X015261Y014667D03*
X014750Y014628D03*
X014553Y014509D03*
X014317Y014588D03*
X014120Y014864D03*
X013962Y014667D03*
X013293Y014864D03*
X012978Y014706D03*
X013096Y013958D03*
X014710Y015139D03*
X014513Y015297D03*
X014592Y015533D03*
X015025Y016006D03*
X015852Y016045D03*
X014592Y016714D03*
X013490Y015612D03*
X012230Y016793D03*
X011561Y017069D03*
X010655Y017817D03*
X011364Y018053D03*
X011994Y017856D03*
X012466Y018250D03*
X012269Y019273D03*
X012742Y019667D03*
X012230Y019982D03*
X012230Y020218D03*
X011049Y019155D03*
X011049Y018919D03*
X009907Y019391D03*
X009159Y019667D03*
X008962Y019943D03*
X008529Y019470D03*
X008529Y019194D03*
X008726Y018525D03*
X008962Y017856D03*
X009041Y017462D03*
X009356Y017423D03*
X009435Y017659D03*
X009592Y018013D03*
X010143Y017147D03*
X008883Y016399D03*
X008372Y016754D03*
X008372Y017147D03*
X009789Y015494D03*
X010340Y015494D03*
X009513Y014667D03*
X009356Y014470D03*
X009986Y013880D03*
X010891Y013053D03*
X008726Y013880D03*
X008175Y012620D03*
X008411Y012502D03*
X008529Y012305D03*
X008372Y012108D03*
X009238Y011399D03*
X010025Y010927D03*
X011009Y009746D03*
X006521Y013525D03*
X002939Y019076D03*
X003017Y020139D03*
X003490Y020139D03*
X004041Y020415D03*
X003017Y020848D03*
X002466Y020100D03*
X002820Y021994D03*
X002820Y022222D03*
X002978Y022423D03*
X003490Y022856D03*
X004238Y022817D03*
X005143Y022698D03*
X005419Y022222D03*
X005419Y021994D03*
X006167Y021360D03*
X005419Y021045D03*
X005655Y020494D03*
X005931Y020179D03*
X006246Y020257D03*
X006797Y020297D03*
X007624Y019746D03*
X007584Y019470D03*
X009828Y020218D03*
X008490Y021754D03*
X010143Y022935D03*
X011757Y023919D03*
X007387Y024234D03*
X005104Y024982D03*
X004671Y024982D03*
X004277Y024982D03*
X003883Y024982D03*
X003017Y024076D03*
X005065Y020336D03*
X016482Y021911D03*
X016639Y014982D03*
X027508Y006283D03*
X027346Y006121D03*
X028450Y005372D03*
X028450Y005143D03*
X012545Y000612D03*
X011049Y000612D03*
X011049Y001045D03*
D12*
X014592Y020100D03*
X014710Y020297D03*
X014592Y020494D03*
X014710Y020691D03*
X014592Y020887D03*
X014710Y021084D03*
X014828Y020887D03*
X014828Y020494D03*
X014828Y020100D03*
X014828Y021281D03*
X014592Y021281D03*
D13*
X017998Y023407D03*
X016620Y025376D03*
X016580Y004037D03*
X017958Y002069D03*
X019336Y004037D03*
X020714Y002069D03*
X022092Y004037D03*
X023470Y002069D03*
X009927Y002069D03*
X008549Y004037D03*
D14*
X008647Y024943D03*
X008647Y025730D03*
X007663Y025730D03*
X007663Y024943D03*
X006679Y024943D03*
X006679Y025730D03*
D15*
X022763Y021006D03*
X022763Y019756D03*
X025713Y019756D03*
X025713Y021006D03*
D16*
X027583Y026176D03*
X020893Y026176D03*
D17*
X007234Y026911D03*
X006234Y026911D03*
X005234Y026911D03*
X004234Y026911D03*
X006490Y005651D03*
X007490Y005651D03*
X008490Y005651D03*
X009490Y005651D03*
X010490Y005651D03*
X034868Y009376D03*
X034868Y010376D03*
X034868Y011376D03*
D18*
X032506Y011557D03*
X032112Y011950D03*
X031718Y012344D03*
X031324Y011950D03*
X030931Y012344D03*
X030931Y011557D03*
X031324Y011163D03*
X030931Y010769D03*
X031718Y010769D03*
X032112Y011163D03*
X031718Y011557D03*
X032506Y012344D03*
X032506Y010769D03*
X029868Y010533D03*
X029868Y011006D03*
X029750Y011557D03*
X029750Y012344D03*
X026836Y013131D03*
X026836Y013407D03*
X025813Y015494D03*
X025419Y015494D03*
X025419Y015887D03*
X025813Y015887D03*
X026206Y015887D03*
X026206Y016281D03*
X025813Y016281D03*
X025813Y016675D03*
X026206Y016675D03*
X026206Y017069D03*
X026206Y017462D03*
X025813Y017462D03*
X025813Y017069D03*
X025813Y017856D03*
X026206Y017856D03*
X026206Y018250D03*
X025813Y018250D03*
X023450Y018250D03*
X023057Y018250D03*
X022663Y018250D03*
X022663Y017856D03*
X023057Y017856D03*
X023450Y017856D03*
X023450Y016281D03*
X023057Y016281D03*
X023057Y015887D03*
X023450Y015887D03*
X023844Y015887D03*
X023844Y015494D03*
X023450Y015494D03*
X021088Y015494D03*
X020694Y015494D03*
X020301Y015100D03*
X019907Y015100D03*
X019907Y014706D03*
X020301Y014706D03*
X020694Y015887D03*
X021088Y015887D03*
X018726Y018250D03*
X018332Y018643D03*
X017939Y018250D03*
X017545Y018643D03*
X017151Y018250D03*
X017151Y019037D03*
X017545Y019431D03*
X017939Y019824D03*
X018332Y020218D03*
X017939Y020612D03*
X018332Y021006D03*
X017939Y021399D03*
X018332Y021793D03*
X018726Y021399D03*
X018726Y020612D03*
X018726Y019824D03*
X018332Y019431D03*
X017939Y019037D03*
X018726Y019037D03*
X017545Y020218D03*
X017151Y019824D03*
X017151Y020612D03*
X017545Y021006D03*
X017151Y021399D03*
X017545Y021793D03*
X014671Y022069D03*
X014356Y022069D03*
X014041Y022069D03*
X014041Y022423D03*
X012663Y022265D03*
X012269Y022580D03*
X011876Y022265D03*
X012269Y021911D03*
X011876Y021596D03*
X012269Y021242D03*
X012663Y021557D03*
X012663Y020927D03*
X011876Y020927D03*
X011876Y022895D03*
X012663Y022895D03*
X010616Y025454D03*
X010222Y025454D03*
X009828Y025454D03*
X009317Y025966D03*
X009317Y026360D03*
X009317Y026754D03*
X011049Y027108D03*
X011443Y026714D03*
X011049Y026320D03*
X011443Y025927D03*
X007427Y023880D03*
X006954Y023880D03*
X007427Y023486D03*
X007427Y023092D03*
X012978Y017069D03*
X013293Y017069D03*
X016718Y015887D03*
X009671Y013210D03*
X006128Y011478D03*
X005773Y011478D03*
X005419Y011478D03*
X004907Y011478D03*
X003490Y012462D03*
X003096Y012462D03*
X003096Y012069D03*
X002939Y010769D03*
X002545Y010769D03*
X001403Y009234D03*
X005025Y004746D03*
X005025Y004313D03*
X004671Y004313D03*
X004710Y002974D03*
X004317Y002974D03*
X004317Y002580D03*
X004710Y002580D03*
X003923Y002580D03*
X003923Y002974D03*
X007112Y002305D03*
X007506Y002305D03*
X007506Y001911D03*
X007506Y001517D03*
X007112Y001517D03*
X007112Y001911D03*
X013529Y001754D03*
X013962Y002108D03*
X013962Y002502D03*
X013529Y002502D03*
X013962Y002856D03*
X015222Y003643D03*
X015537Y003643D03*
X015537Y003958D03*
X015222Y003958D03*
X013962Y001399D03*
X017309Y007620D03*
X017309Y007935D03*
X018057Y009234D03*
X018372Y009234D03*
X019159Y007935D03*
X019513Y007935D03*
X019907Y007935D03*
X020301Y007935D03*
X020301Y007502D03*
X019907Y007502D03*
X019513Y007502D03*
X025813Y007580D03*
X026206Y007580D03*
X026206Y007187D03*
X025813Y007187D03*
X026797Y005691D03*
X027112Y005691D03*
X027112Y005336D03*
X026797Y005336D03*
X029868Y005809D03*
X029868Y006281D03*
X029750Y006832D03*
X029750Y007620D03*
X030931Y007620D03*
X031324Y007226D03*
X030931Y006832D03*
X031324Y006439D03*
X030931Y006045D03*
X031718Y006045D03*
X032112Y006439D03*
X032506Y006832D03*
X032112Y007226D03*
X031718Y007620D03*
X031718Y006832D03*
X032506Y006045D03*
X032506Y007620D03*
X027230Y002777D03*
X027230Y002423D03*
X026797Y002423D03*
X026403Y000730D03*
X029868Y015257D03*
X029868Y015730D03*
X029750Y016281D03*
X029750Y017069D03*
X030931Y017069D03*
X031324Y016675D03*
X030931Y016281D03*
X031324Y015887D03*
X031718Y016281D03*
X032112Y015887D03*
X032506Y015494D03*
X032506Y016281D03*
X032112Y016675D03*
X032506Y017069D03*
X031718Y017069D03*
X031718Y015494D03*
X030931Y015494D03*
D19*
X001012Y000810D02*
X000818Y001146D01*
X000718Y001520D01*
X000705Y001714D01*
X000705Y012620D01*
X002945Y012620D01*
X002878Y012553D01*
X002878Y012372D01*
X002984Y012265D01*
X002878Y012159D01*
X002878Y011978D01*
X003006Y011850D01*
X003186Y011850D01*
X003314Y011978D01*
X003314Y012159D01*
X003208Y012265D01*
X003293Y012351D01*
X003399Y012244D01*
X003580Y012244D01*
X003708Y012372D01*
X003708Y012553D01*
X003641Y012620D01*
X005340Y012620D01*
X005340Y019746D01*
X000705Y019746D01*
X000705Y026124D01*
X000718Y026318D01*
X000818Y026692D01*
X001012Y027028D01*
X001286Y027302D01*
X001622Y027496D01*
X001997Y027596D01*
X002191Y027609D01*
X034474Y027609D01*
X034668Y027596D01*
X035042Y027496D01*
X035378Y027302D01*
X035652Y027028D01*
X035846Y026692D01*
X035947Y026318D01*
X035959Y026124D01*
X035959Y001714D01*
X035947Y001520D01*
X035846Y001146D01*
X035652Y000810D01*
X035378Y000536D01*
X035042Y000342D01*
X034668Y000241D01*
X034474Y000229D01*
X002191Y000229D01*
X001997Y000241D01*
X001622Y000342D01*
X001286Y000536D01*
X001012Y000810D01*
X000998Y000835D02*
X002015Y000835D01*
X002016Y000834D02*
X002366Y000834D01*
X002689Y000968D01*
X002937Y001216D01*
X003070Y001539D01*
X003070Y001889D01*
X002937Y002213D01*
X002689Y002460D01*
X002366Y002594D01*
X002016Y002594D01*
X001692Y002460D01*
X001445Y002213D01*
X001311Y001889D01*
X001311Y001539D01*
X001445Y001216D01*
X001692Y000968D01*
X002016Y000834D01*
X001828Y000912D02*
X000953Y000912D01*
X000909Y000989D02*
X001671Y000989D01*
X001594Y001066D02*
X000864Y001066D01*
X000819Y001143D02*
X001517Y001143D01*
X001443Y001221D02*
X000798Y001221D01*
X000777Y001298D02*
X001411Y001298D01*
X001379Y001375D02*
X000757Y001375D01*
X000736Y001452D02*
X001347Y001452D01*
X001315Y001530D02*
X000717Y001530D01*
X000712Y001607D02*
X001311Y001607D01*
X001311Y001684D02*
X000707Y001684D01*
X000705Y001761D02*
X001311Y001761D01*
X001311Y001839D02*
X000705Y001839D01*
X000705Y001916D02*
X001322Y001916D01*
X001354Y001993D02*
X000705Y001993D01*
X000705Y002070D02*
X001386Y002070D01*
X001418Y002148D02*
X000705Y002148D01*
X000705Y002225D02*
X001457Y002225D01*
X001534Y002302D02*
X000705Y002302D01*
X000705Y002379D02*
X001611Y002379D01*
X001689Y002457D02*
X000705Y002457D01*
X000705Y002534D02*
X001870Y002534D01*
X002511Y002534D02*
X003705Y002534D01*
X003705Y002490D02*
X003832Y002362D01*
X004013Y002362D01*
X004120Y002469D01*
X004226Y002362D01*
X004407Y002362D01*
X004513Y002469D01*
X004620Y002362D01*
X004801Y002362D01*
X004928Y002490D01*
X004928Y002671D01*
X004822Y002777D01*
X004928Y002884D01*
X004928Y003064D01*
X004801Y003192D01*
X004620Y003192D01*
X004513Y003086D01*
X004407Y003192D01*
X004226Y003192D01*
X004120Y003086D01*
X004013Y003192D01*
X003832Y003192D01*
X003705Y003064D01*
X003705Y002884D01*
X003811Y002777D01*
X003705Y002671D01*
X003705Y002490D01*
X003738Y002457D02*
X002693Y002457D01*
X002770Y002379D02*
X003815Y002379D01*
X004030Y002379D02*
X004209Y002379D01*
X004132Y002457D02*
X004108Y002457D01*
X004424Y002379D02*
X004603Y002379D01*
X004526Y002457D02*
X004501Y002457D01*
X004818Y002379D02*
X009694Y002379D01*
X009709Y002395D02*
X009601Y002286D01*
X009542Y002145D01*
X009542Y001992D01*
X009601Y001851D01*
X009709Y001742D01*
X009850Y001684D01*
X010003Y001684D01*
X010145Y001742D01*
X010253Y001851D01*
X010311Y001992D01*
X010311Y002145D01*
X010253Y002286D01*
X010145Y002395D01*
X010003Y002453D01*
X009850Y002453D01*
X009709Y002395D01*
X009616Y002302D02*
X002847Y002302D01*
X002924Y002225D02*
X009575Y002225D01*
X009543Y002148D02*
X002963Y002148D01*
X002995Y002070D02*
X009542Y002070D01*
X009542Y001993D02*
X003027Y001993D01*
X003059Y001916D02*
X009574Y001916D01*
X009613Y001839D02*
X003070Y001839D01*
X003070Y001761D02*
X009690Y001761D01*
X009849Y001684D02*
X003070Y001684D01*
X003070Y001607D02*
X013367Y001607D01*
X013311Y001663D02*
X013439Y001535D01*
X013619Y001535D01*
X013747Y001663D01*
X013747Y001844D01*
X013619Y001972D01*
X013439Y001972D01*
X013311Y001844D01*
X013311Y001663D01*
X013311Y001684D02*
X010004Y001684D01*
X010164Y001761D02*
X013311Y001761D01*
X013311Y001839D02*
X010241Y001839D01*
X010280Y001916D02*
X013383Y001916D01*
X013675Y001916D02*
X013846Y001916D01*
X013872Y001890D02*
X014053Y001890D01*
X014180Y002018D01*
X014180Y002198D01*
X014074Y002305D01*
X014180Y002411D01*
X014180Y002592D01*
X014093Y002679D01*
X014180Y002766D01*
X014180Y002946D01*
X014053Y003074D01*
X013872Y003074D01*
X013744Y002946D01*
X013744Y002766D01*
X013831Y002679D01*
X013746Y002593D01*
X013619Y002720D01*
X013439Y002720D01*
X013311Y002592D01*
X013311Y002411D01*
X013439Y002283D01*
X013619Y002283D01*
X013746Y002410D01*
X013851Y002305D01*
X013744Y002198D01*
X013744Y002018D01*
X013872Y001890D01*
X013747Y001839D02*
X017644Y001839D01*
X017632Y001851D02*
X017740Y001742D01*
X017882Y001684D01*
X018035Y001684D01*
X018176Y001742D01*
X018284Y001851D01*
X018343Y001992D01*
X018343Y002145D01*
X018284Y002286D01*
X018176Y002395D01*
X018035Y002453D01*
X017882Y002453D01*
X017740Y002395D01*
X017632Y002286D01*
X017574Y002145D01*
X017574Y001992D01*
X017632Y001851D01*
X017605Y001916D02*
X014079Y001916D01*
X014156Y001993D02*
X017574Y001993D01*
X017574Y002070D02*
X014180Y002070D01*
X014180Y002148D02*
X017575Y002148D01*
X017607Y002225D02*
X014154Y002225D01*
X014076Y002302D02*
X017648Y002302D01*
X017725Y002379D02*
X014148Y002379D01*
X014180Y002457D02*
X026579Y002457D01*
X026579Y002513D02*
X026579Y002332D01*
X026707Y002205D01*
X026887Y002205D01*
X027013Y002331D01*
X027140Y002205D01*
X027320Y002205D01*
X027448Y002332D01*
X027448Y002513D01*
X027361Y002600D01*
X027448Y002687D01*
X027448Y002868D01*
X027320Y002995D01*
X027140Y002995D01*
X027012Y002868D01*
X027012Y002687D01*
X027099Y002600D01*
X027013Y002515D01*
X026887Y002641D01*
X026707Y002641D01*
X026579Y002513D01*
X026599Y002534D02*
X014180Y002534D01*
X014161Y002611D02*
X026677Y002611D01*
X026917Y002611D02*
X027088Y002611D01*
X027032Y002534D02*
X026994Y002534D01*
X027012Y002688D02*
X014103Y002688D01*
X014180Y002766D02*
X027012Y002766D01*
X027012Y002843D02*
X014180Y002843D01*
X014180Y002920D02*
X027064Y002920D01*
X027396Y002920D02*
X028331Y002920D01*
X028331Y002994D02*
X028331Y002797D01*
X028470Y002657D01*
X028667Y002657D01*
X028806Y002797D01*
X028806Y002994D01*
X028667Y003133D01*
X028470Y003133D01*
X028331Y002994D01*
X028334Y002997D02*
X014129Y002997D01*
X013795Y002997D02*
X004928Y002997D01*
X004928Y002920D02*
X013744Y002920D01*
X013744Y002843D02*
X004887Y002843D01*
X004833Y002766D02*
X013744Y002766D01*
X013821Y002688D02*
X013651Y002688D01*
X013728Y002611D02*
X013763Y002611D01*
X013776Y002379D02*
X013715Y002379D01*
X013638Y002302D02*
X013848Y002302D01*
X013771Y002225D02*
X010278Y002225D01*
X010310Y002148D02*
X013744Y002148D01*
X013744Y002070D02*
X010311Y002070D01*
X010311Y001993D02*
X013768Y001993D01*
X013747Y001761D02*
X017721Y001761D01*
X017881Y001684D02*
X013747Y001684D01*
X013691Y001607D02*
X013861Y001607D01*
X013872Y001617D02*
X013744Y001490D01*
X013744Y001309D01*
X013872Y001181D01*
X014053Y001181D01*
X014180Y001309D01*
X014180Y001490D01*
X014053Y001617D01*
X013872Y001617D01*
X013784Y001530D02*
X003067Y001530D01*
X003035Y001452D02*
X013744Y001452D01*
X013744Y001375D02*
X003003Y001375D01*
X002971Y001298D02*
X013755Y001298D01*
X013832Y001221D02*
X002939Y001221D01*
X002864Y001143D02*
X028409Y001143D01*
X028470Y001083D02*
X028667Y001083D01*
X028806Y001222D01*
X028806Y001419D01*
X028667Y001558D01*
X028470Y001558D01*
X028331Y001419D01*
X028331Y001222D01*
X028470Y001083D01*
X028332Y001221D02*
X014092Y001221D01*
X014169Y001298D02*
X028331Y001298D01*
X028331Y001375D02*
X014180Y001375D01*
X014180Y001452D02*
X028364Y001452D01*
X028441Y001530D02*
X014140Y001530D01*
X014063Y001607D02*
X028733Y001607D01*
X028724Y001616D02*
X028864Y001476D01*
X029061Y001476D01*
X029200Y001616D01*
X029200Y001813D01*
X029061Y001952D01*
X028864Y001952D01*
X028724Y001813D01*
X028724Y001616D01*
X028724Y001684D02*
X023547Y001684D01*
X023688Y001742D01*
X023796Y001851D01*
X023855Y001992D01*
X023855Y002145D01*
X023796Y002286D01*
X023688Y002395D01*
X023547Y002453D01*
X023394Y002453D01*
X023252Y002395D01*
X023144Y002286D01*
X023085Y002145D01*
X023085Y001992D01*
X023144Y001851D01*
X023252Y001742D01*
X023394Y001684D01*
X023547Y001684D01*
X023393Y001684D02*
X020791Y001684D01*
X020932Y001742D01*
X021040Y001851D01*
X021099Y001992D01*
X021099Y002145D01*
X021040Y002286D01*
X020932Y002395D01*
X020791Y002453D01*
X020638Y002453D01*
X020496Y002395D01*
X020388Y002286D01*
X020330Y002145D01*
X020330Y001992D01*
X020388Y001851D01*
X020496Y001742D01*
X020638Y001684D01*
X020791Y001684D01*
X020637Y001684D02*
X018036Y001684D01*
X018195Y001761D02*
X020477Y001761D01*
X020400Y001839D02*
X018272Y001839D01*
X018311Y001916D02*
X020361Y001916D01*
X020330Y001993D02*
X018343Y001993D01*
X018343Y002070D02*
X020330Y002070D01*
X020331Y002148D02*
X018342Y002148D01*
X018310Y002225D02*
X020363Y002225D01*
X020404Y002302D02*
X018269Y002302D01*
X018191Y002379D02*
X020481Y002379D01*
X020947Y002379D02*
X023237Y002379D01*
X023160Y002302D02*
X021025Y002302D01*
X021066Y002225D02*
X023119Y002225D01*
X023087Y002148D02*
X021098Y002148D01*
X021099Y002070D02*
X023085Y002070D01*
X023085Y001993D02*
X021099Y001993D01*
X021067Y001916D02*
X023117Y001916D01*
X023156Y001839D02*
X021028Y001839D01*
X020951Y001761D02*
X023233Y001761D01*
X023707Y001761D02*
X028724Y001761D01*
X028750Y001839D02*
X023784Y001839D01*
X023823Y001916D02*
X028424Y001916D01*
X028470Y001870D02*
X028667Y001870D01*
X028806Y002009D01*
X028806Y002206D01*
X028667Y002346D01*
X028470Y002346D01*
X028331Y002206D01*
X028331Y002009D01*
X028470Y001870D01*
X028347Y001993D02*
X023855Y001993D01*
X023855Y002070D02*
X028331Y002070D01*
X028331Y002148D02*
X023854Y002148D01*
X023822Y002225D02*
X026686Y002225D01*
X026609Y002302D02*
X023780Y002302D01*
X023703Y002379D02*
X026579Y002379D01*
X026907Y002225D02*
X027119Y002225D01*
X027042Y002302D02*
X026985Y002302D01*
X027340Y002225D02*
X028349Y002225D01*
X028426Y002302D02*
X027418Y002302D01*
X027448Y002379D02*
X028748Y002379D01*
X028724Y002403D02*
X028864Y002264D01*
X029061Y002264D01*
X029200Y002403D01*
X029200Y002600D01*
X029061Y002739D01*
X028864Y002739D01*
X028724Y002600D01*
X028724Y002403D01*
X028724Y002457D02*
X027448Y002457D01*
X027427Y002534D02*
X028724Y002534D01*
X028735Y002611D02*
X027372Y002611D01*
X027448Y002688D02*
X028439Y002688D01*
X028362Y002766D02*
X027448Y002766D01*
X027448Y002843D02*
X028331Y002843D01*
X028411Y003075D02*
X004918Y003075D01*
X004841Y003152D02*
X035959Y003152D01*
X035959Y003229D02*
X000705Y003229D01*
X000705Y003306D02*
X035959Y003306D01*
X035959Y003383D02*
X000705Y003383D01*
X000705Y003461D02*
X035959Y003461D01*
X035959Y003538D02*
X000705Y003538D01*
X000705Y003615D02*
X035959Y003615D01*
X035959Y003692D02*
X022265Y003692D01*
X022310Y003711D02*
X022418Y003819D01*
X022477Y003960D01*
X022477Y004114D01*
X022418Y004255D01*
X022310Y004363D01*
X022169Y004422D01*
X022016Y004422D01*
X021874Y004363D01*
X021766Y004255D01*
X021707Y004114D01*
X021707Y003960D01*
X021766Y003819D01*
X021874Y003711D01*
X022016Y003652D01*
X022169Y003652D01*
X022310Y003711D01*
X022369Y003770D02*
X035959Y003770D01*
X035959Y003847D02*
X022430Y003847D01*
X022462Y003924D02*
X025830Y003924D01*
X025791Y003963D02*
X025896Y003858D01*
X026044Y003858D01*
X026149Y003963D01*
X026149Y004111D01*
X026044Y004216D01*
X025896Y004216D01*
X025791Y004111D01*
X025791Y003963D01*
X025791Y004001D02*
X022477Y004001D01*
X022477Y004079D02*
X024573Y004079D01*
X024597Y004055D02*
X024745Y004055D01*
X024846Y004157D01*
X024846Y004120D01*
X024951Y004016D01*
X025099Y004016D01*
X025204Y004120D01*
X025204Y004269D01*
X025099Y004373D01*
X024951Y004373D01*
X024850Y004272D01*
X024850Y004308D01*
X024745Y004413D01*
X024597Y004413D01*
X024492Y004308D01*
X024492Y004160D01*
X024597Y004055D01*
X024496Y004156D02*
X022459Y004156D01*
X022427Y004233D02*
X024492Y004233D01*
X024495Y004310D02*
X022363Y004310D01*
X022251Y004388D02*
X024572Y004388D01*
X024770Y004388D02*
X025091Y004388D01*
X025083Y004396D02*
X025187Y004291D01*
X025335Y004291D01*
X025440Y004396D01*
X025440Y004544D01*
X025335Y004649D01*
X025187Y004649D01*
X025083Y004544D01*
X025083Y004396D01*
X025083Y004465D02*
X012015Y004465D01*
X011910Y004570D01*
X011762Y004570D01*
X011657Y004465D01*
X011503Y004465D01*
X011459Y004509D01*
X011543Y004593D01*
X011543Y004741D01*
X011438Y004846D01*
X011290Y004846D01*
X011185Y004741D01*
X011185Y004593D01*
X011229Y004549D01*
X011146Y004465D01*
X005181Y004465D01*
X005243Y004403D02*
X005117Y004529D01*
X005243Y004655D01*
X005243Y004836D01*
X005116Y004964D01*
X004935Y004964D01*
X004807Y004836D01*
X004807Y004655D01*
X004933Y004529D01*
X004848Y004444D01*
X004761Y004531D01*
X004581Y004531D01*
X004453Y004403D01*
X004453Y004222D01*
X004581Y004094D01*
X004761Y004094D01*
X004848Y004181D01*
X004935Y004094D01*
X005116Y004094D01*
X005243Y004222D01*
X005243Y004403D01*
X005243Y004388D02*
X008390Y004388D01*
X008331Y004363D02*
X008223Y004255D01*
X008164Y004114D01*
X008164Y003960D01*
X008223Y003819D01*
X008331Y003711D01*
X008472Y003652D01*
X008625Y003652D01*
X008767Y003711D01*
X008875Y003819D01*
X008933Y003960D01*
X008933Y004114D01*
X008875Y004255D01*
X008767Y004363D01*
X008625Y004422D01*
X008472Y004422D01*
X008331Y004363D01*
X008278Y004310D02*
X005243Y004310D01*
X005243Y004233D02*
X008214Y004233D01*
X008182Y004156D02*
X005177Y004156D01*
X004873Y004156D02*
X004823Y004156D01*
X004519Y004156D02*
X000705Y004156D01*
X000705Y004233D02*
X004453Y004233D01*
X004453Y004310D02*
X000705Y004310D01*
X000705Y004388D02*
X004453Y004388D01*
X004515Y004465D02*
X000705Y004465D01*
X000705Y004542D02*
X004920Y004542D01*
X004869Y004465D02*
X004827Y004465D01*
X004843Y004619D02*
X000705Y004619D01*
X000705Y004697D02*
X004807Y004697D01*
X004807Y004774D02*
X000705Y004774D01*
X000705Y004851D02*
X004822Y004851D01*
X004899Y004928D02*
X000705Y004928D01*
X000705Y005006D02*
X015516Y005006D01*
X015516Y005056D02*
X015516Y004908D01*
X015620Y004803D01*
X015769Y004803D01*
X015873Y004908D01*
X015873Y005056D01*
X015769Y005161D01*
X015620Y005161D01*
X015516Y005056D01*
X015543Y005083D02*
X011127Y005083D01*
X011123Y005079D02*
X011228Y005183D01*
X011228Y005332D01*
X011123Y005436D01*
X010975Y005436D01*
X010870Y005332D01*
X010870Y005183D01*
X010975Y005079D01*
X011123Y005079D01*
X011204Y005160D02*
X015620Y005160D01*
X015769Y005160D02*
X028272Y005160D01*
X028272Y005217D02*
X028272Y005069D01*
X028376Y004964D01*
X028524Y004964D01*
X028629Y005069D01*
X028629Y005217D01*
X028589Y005257D01*
X028629Y005298D01*
X028629Y005446D01*
X028524Y005551D01*
X028376Y005551D01*
X028272Y005446D01*
X028272Y005298D01*
X028312Y005257D01*
X028272Y005217D01*
X028292Y005237D02*
X011228Y005237D01*
X011228Y005314D02*
X028272Y005314D01*
X028272Y005392D02*
X025491Y005392D01*
X025519Y005420D02*
X025414Y005315D01*
X025266Y005315D01*
X025161Y005420D01*
X025161Y005568D01*
X025266Y005672D01*
X025414Y005672D01*
X025519Y005568D01*
X025519Y005420D01*
X025519Y005469D02*
X028295Y005469D01*
X028372Y005546D02*
X025519Y005546D01*
X025463Y005623D02*
X035959Y005623D01*
X035959Y005546D02*
X028529Y005546D01*
X028606Y005469D02*
X035959Y005469D01*
X035959Y005392D02*
X028629Y005392D01*
X028629Y005314D02*
X035959Y005314D01*
X035959Y005237D02*
X028609Y005237D01*
X028629Y005160D02*
X035959Y005160D01*
X035959Y005083D02*
X028629Y005083D01*
X028566Y005006D02*
X035959Y005006D01*
X035959Y004928D02*
X015873Y004928D01*
X015873Y005006D02*
X028335Y005006D01*
X028272Y005083D02*
X015846Y005083D01*
X015816Y004851D02*
X035959Y004851D01*
X035959Y004774D02*
X012842Y004774D01*
X012842Y004750D02*
X012737Y004646D01*
X012589Y004646D01*
X012484Y004750D01*
X012484Y004898D01*
X012589Y005003D01*
X012737Y005003D01*
X012842Y004898D01*
X012842Y004750D01*
X012788Y004697D02*
X035959Y004697D01*
X035959Y004619D02*
X025365Y004619D01*
X025440Y004542D02*
X035959Y004542D01*
X035959Y004465D02*
X025440Y004465D01*
X025432Y004388D02*
X035959Y004388D01*
X035959Y004310D02*
X025354Y004310D01*
X025204Y004233D02*
X035959Y004233D01*
X035959Y004156D02*
X026104Y004156D01*
X026149Y004079D02*
X035959Y004079D01*
X035959Y004001D02*
X026149Y004001D01*
X026110Y003924D02*
X035959Y003924D01*
X035959Y003075D02*
X033450Y003075D01*
X033391Y003133D02*
X033531Y002994D01*
X033531Y002797D01*
X033391Y002657D01*
X033194Y002657D01*
X033055Y002797D01*
X033055Y002994D01*
X033194Y003133D01*
X033391Y003133D01*
X033527Y002997D02*
X035959Y002997D01*
X035959Y002920D02*
X033531Y002920D01*
X033531Y002843D02*
X035959Y002843D01*
X035959Y002766D02*
X033499Y002766D01*
X033422Y002688D02*
X035959Y002688D01*
X035959Y002611D02*
X033126Y002611D01*
X033137Y002600D02*
X032998Y002739D01*
X032801Y002739D01*
X032661Y002600D01*
X032661Y002403D01*
X032801Y002264D01*
X032998Y002264D01*
X033137Y002403D01*
X033137Y002600D01*
X033137Y002534D02*
X034153Y002534D01*
X034299Y002594D02*
X033976Y002460D01*
X033728Y002213D01*
X033594Y001889D01*
X033594Y001539D01*
X033728Y001216D01*
X033976Y000968D01*
X034299Y000834D01*
X034649Y000834D01*
X034972Y000968D01*
X035220Y001216D01*
X035354Y001539D01*
X035354Y001889D01*
X035220Y002213D01*
X034972Y002460D01*
X034649Y002594D01*
X034299Y002594D01*
X033972Y002457D02*
X033137Y002457D01*
X033113Y002379D02*
X033895Y002379D01*
X033818Y002302D02*
X033036Y002302D01*
X032762Y002302D02*
X032648Y002302D01*
X032604Y002346D02*
X032407Y002346D01*
X032268Y002206D01*
X032268Y002009D01*
X032407Y001870D01*
X032604Y001870D01*
X032743Y002009D01*
X032743Y002206D01*
X032604Y002346D01*
X032685Y002379D02*
X032326Y002379D01*
X032350Y002403D02*
X032210Y002264D01*
X032013Y002264D01*
X031874Y002403D01*
X031874Y002600D01*
X032013Y002739D01*
X032210Y002739D01*
X032350Y002600D01*
X032350Y002403D01*
X032350Y002457D02*
X032661Y002457D01*
X032661Y002534D02*
X032350Y002534D01*
X032339Y002611D02*
X032672Y002611D01*
X032604Y002657D02*
X032743Y002797D01*
X032743Y002994D01*
X032604Y003133D01*
X032407Y003133D01*
X032268Y002994D01*
X032268Y002797D01*
X032407Y002657D01*
X032604Y002657D01*
X032635Y002688D02*
X032750Y002688D01*
X032712Y002766D02*
X033086Y002766D01*
X033055Y002843D02*
X032743Y002843D01*
X032743Y002920D02*
X033055Y002920D01*
X033059Y002997D02*
X032740Y002997D01*
X032663Y003075D02*
X033136Y003075D01*
X033164Y002688D02*
X033049Y002688D01*
X032725Y002225D02*
X033740Y002225D01*
X033701Y002148D02*
X032743Y002148D01*
X032743Y002070D02*
X033669Y002070D01*
X033637Y001993D02*
X032727Y001993D01*
X032801Y001952D02*
X032661Y001813D01*
X032661Y001616D01*
X032801Y001476D01*
X032998Y001476D01*
X033137Y001616D01*
X033137Y001813D01*
X032998Y001952D01*
X032801Y001952D01*
X032765Y001916D02*
X032650Y001916D01*
X032687Y001839D02*
X032324Y001839D01*
X032350Y001813D02*
X032210Y001952D01*
X032013Y001952D01*
X031874Y001813D01*
X031874Y001616D01*
X032013Y001476D01*
X032210Y001476D01*
X032350Y001616D01*
X032350Y001813D01*
X032350Y001761D02*
X032661Y001761D01*
X032661Y001684D02*
X032350Y001684D01*
X032341Y001607D02*
X032670Y001607D01*
X032604Y001558D02*
X032407Y001558D01*
X032268Y001419D01*
X032268Y001222D01*
X032407Y001083D01*
X032604Y001083D01*
X032743Y001222D01*
X032743Y001419D01*
X032604Y001558D01*
X032633Y001530D02*
X032747Y001530D01*
X032710Y001452D02*
X033630Y001452D01*
X033662Y001375D02*
X032743Y001375D01*
X032743Y001298D02*
X033694Y001298D01*
X033726Y001221D02*
X032742Y001221D01*
X032801Y001165D02*
X032661Y001025D01*
X032661Y000828D01*
X032801Y000689D01*
X032998Y000689D01*
X033137Y000828D01*
X033137Y001025D01*
X032998Y001165D01*
X032801Y001165D01*
X032780Y001143D02*
X032665Y001143D01*
X032702Y001066D02*
X032309Y001066D01*
X032350Y001025D02*
X032210Y001165D01*
X032013Y001165D01*
X031874Y001025D01*
X031874Y000828D01*
X032013Y000689D01*
X032210Y000689D01*
X032350Y000828D01*
X032350Y001025D01*
X032350Y000989D02*
X032661Y000989D01*
X032661Y000912D02*
X032350Y000912D01*
X032350Y000835D02*
X032661Y000835D01*
X032604Y000771D02*
X032407Y000771D01*
X032268Y000632D01*
X032268Y000435D01*
X032407Y000295D01*
X032604Y000295D01*
X032743Y000435D01*
X032743Y000632D01*
X032604Y000771D01*
X032618Y000757D02*
X032732Y000757D01*
X032695Y000680D02*
X033104Y000680D01*
X033055Y000632D02*
X033055Y000435D01*
X033194Y000295D01*
X033391Y000295D01*
X033531Y000435D01*
X033531Y000632D01*
X033391Y000771D01*
X033194Y000771D01*
X033055Y000632D01*
X033055Y000603D02*
X032743Y000603D01*
X032743Y000526D02*
X033055Y000526D01*
X033055Y000448D02*
X032743Y000448D01*
X032680Y000371D02*
X033119Y000371D01*
X033467Y000371D02*
X035093Y000371D01*
X035227Y000448D02*
X033531Y000448D01*
X033531Y000526D02*
X035361Y000526D01*
X035445Y000603D02*
X033531Y000603D01*
X033482Y000680D02*
X035523Y000680D01*
X035600Y000757D02*
X033405Y000757D01*
X033181Y000757D02*
X033066Y000757D01*
X033137Y000835D02*
X034298Y000835D01*
X034112Y000912D02*
X033137Y000912D01*
X033137Y000989D02*
X033955Y000989D01*
X033878Y001066D02*
X033096Y001066D01*
X033019Y001143D02*
X033800Y001143D01*
X033598Y001530D02*
X033051Y001530D01*
X033128Y001607D02*
X033594Y001607D01*
X033594Y001684D02*
X033137Y001684D01*
X033137Y001761D02*
X033594Y001761D01*
X033594Y001839D02*
X033111Y001839D01*
X033034Y001916D02*
X033605Y001916D01*
X032361Y001916D02*
X032246Y001916D01*
X032284Y001993D02*
X031940Y001993D01*
X031956Y002009D02*
X031817Y001870D01*
X031620Y001870D01*
X031480Y002009D01*
X031480Y002206D01*
X031620Y002346D01*
X031817Y002346D01*
X031956Y002206D01*
X031956Y002009D01*
X031956Y002070D02*
X032268Y002070D01*
X032268Y002148D02*
X031956Y002148D01*
X031937Y002225D02*
X032286Y002225D01*
X032249Y002302D02*
X032363Y002302D01*
X032376Y002688D02*
X032261Y002688D01*
X032299Y002766D02*
X031925Y002766D01*
X031956Y002797D02*
X031817Y002657D01*
X031620Y002657D01*
X031480Y002797D01*
X031480Y002994D01*
X031620Y003133D01*
X031817Y003133D01*
X031956Y002994D01*
X031956Y002797D01*
X031956Y002843D02*
X032268Y002843D01*
X032268Y002920D02*
X031956Y002920D01*
X031952Y002997D02*
X032271Y002997D01*
X032348Y003075D02*
X031875Y003075D01*
X031561Y003075D02*
X031088Y003075D01*
X031029Y003133D02*
X031169Y002994D01*
X031169Y002797D01*
X031029Y002657D01*
X030832Y002657D01*
X030693Y002797D01*
X030693Y002994D01*
X030832Y003133D01*
X031029Y003133D01*
X031165Y002997D02*
X031484Y002997D01*
X031480Y002920D02*
X031169Y002920D01*
X031169Y002843D02*
X031480Y002843D01*
X031512Y002766D02*
X031137Y002766D01*
X031175Y002688D02*
X031060Y002688D01*
X031098Y002611D02*
X030764Y002611D01*
X030775Y002600D02*
X030636Y002739D01*
X030439Y002739D01*
X030299Y002600D01*
X030299Y002403D01*
X030439Y002264D01*
X030636Y002264D01*
X030775Y002403D01*
X030775Y002600D01*
X030775Y002534D02*
X031087Y002534D01*
X031087Y002600D02*
X031087Y002403D01*
X031226Y002264D01*
X031423Y002264D01*
X031562Y002403D01*
X031562Y002600D01*
X031423Y002739D01*
X031226Y002739D01*
X031087Y002600D01*
X031087Y002457D02*
X030775Y002457D01*
X030751Y002379D02*
X031110Y002379D01*
X031073Y002302D02*
X031188Y002302D01*
X031150Y002225D02*
X031499Y002225D01*
X031480Y002148D02*
X031169Y002148D01*
X031169Y002206D02*
X031029Y002346D01*
X030832Y002346D01*
X030693Y002206D01*
X030693Y002009D01*
X030832Y001870D01*
X031029Y001870D01*
X031169Y002009D01*
X031169Y002206D01*
X031169Y002070D02*
X031480Y002070D01*
X031497Y001993D02*
X031152Y001993D01*
X031226Y001952D02*
X031087Y001813D01*
X031087Y001616D01*
X031226Y001476D01*
X031423Y001476D01*
X031562Y001616D01*
X031562Y001813D01*
X031423Y001952D01*
X031226Y001952D01*
X031190Y001916D02*
X031075Y001916D01*
X031113Y001839D02*
X030749Y001839D01*
X030775Y001813D02*
X030636Y001952D01*
X030439Y001952D01*
X030299Y001813D01*
X030299Y001616D01*
X030439Y001476D01*
X030636Y001476D01*
X030775Y001616D01*
X030775Y001813D01*
X030775Y001761D02*
X031087Y001761D01*
X031087Y001684D02*
X030775Y001684D01*
X030766Y001607D02*
X031095Y001607D01*
X031029Y001558D02*
X030832Y001558D01*
X030693Y001419D01*
X030693Y001222D01*
X030832Y001083D01*
X031029Y001083D01*
X031169Y001222D01*
X031169Y001419D01*
X031029Y001558D01*
X031058Y001530D02*
X031173Y001530D01*
X031135Y001452D02*
X031514Y001452D01*
X031480Y001419D02*
X031480Y001222D01*
X031620Y001083D01*
X031817Y001083D01*
X031956Y001222D01*
X031956Y001419D01*
X031817Y001558D01*
X031620Y001558D01*
X031480Y001419D01*
X031480Y001375D02*
X031169Y001375D01*
X031169Y001298D02*
X031480Y001298D01*
X031482Y001221D02*
X031167Y001221D01*
X031226Y001165D02*
X031087Y001025D01*
X031087Y000828D01*
X031226Y000689D01*
X031423Y000689D01*
X031562Y000828D01*
X031562Y001025D01*
X031423Y001165D01*
X031226Y001165D01*
X031205Y001143D02*
X031090Y001143D01*
X031128Y001066D02*
X030734Y001066D01*
X030775Y001025D02*
X030636Y001165D01*
X030439Y001165D01*
X030299Y001025D01*
X030299Y000828D01*
X030439Y000689D01*
X030636Y000689D01*
X030775Y000828D01*
X030775Y001025D01*
X030775Y000989D02*
X031087Y000989D01*
X031087Y000912D02*
X030775Y000912D01*
X030775Y000835D02*
X031087Y000835D01*
X031029Y000771D02*
X030832Y000771D01*
X030693Y000632D01*
X030693Y000435D01*
X030832Y000295D01*
X031029Y000295D01*
X031169Y000435D01*
X031169Y000632D01*
X031029Y000771D01*
X031043Y000757D02*
X031158Y000757D01*
X031120Y000680D02*
X031529Y000680D01*
X031480Y000632D02*
X031480Y000435D01*
X031620Y000295D01*
X031817Y000295D01*
X031956Y000435D01*
X031956Y000632D01*
X031817Y000771D01*
X031620Y000771D01*
X031480Y000632D01*
X031480Y000603D02*
X031169Y000603D01*
X031169Y000526D02*
X031480Y000526D01*
X031480Y000448D02*
X031169Y000448D01*
X031105Y000371D02*
X031544Y000371D01*
X031892Y000371D02*
X032331Y000371D01*
X032268Y000448D02*
X031956Y000448D01*
X031956Y000526D02*
X032268Y000526D01*
X032268Y000603D02*
X031956Y000603D01*
X031907Y000680D02*
X032316Y000680D01*
X032279Y000757D02*
X032393Y000757D01*
X031945Y000757D02*
X031830Y000757D01*
X031874Y000835D02*
X031562Y000835D01*
X031562Y000912D02*
X031874Y000912D01*
X031874Y000989D02*
X031562Y000989D01*
X031521Y001066D02*
X031915Y001066D01*
X031877Y001143D02*
X031992Y001143D01*
X031955Y001221D02*
X032269Y001221D01*
X032268Y001298D02*
X031956Y001298D01*
X031956Y001375D02*
X032268Y001375D01*
X032301Y001452D02*
X031922Y001452D01*
X031960Y001530D02*
X031845Y001530D01*
X031883Y001607D02*
X031553Y001607D01*
X031562Y001684D02*
X031874Y001684D01*
X031874Y001761D02*
X031562Y001761D01*
X031536Y001839D02*
X031900Y001839D01*
X031862Y001916D02*
X031977Y001916D01*
X031574Y001916D02*
X031459Y001916D01*
X031476Y001530D02*
X031591Y001530D01*
X031559Y001143D02*
X031444Y001143D01*
X031491Y000757D02*
X031606Y000757D01*
X032231Y001143D02*
X032346Y001143D01*
X032378Y001530D02*
X032264Y001530D01*
X031975Y002302D02*
X031860Y002302D01*
X031898Y002379D02*
X031538Y002379D01*
X031562Y002457D02*
X031874Y002457D01*
X031874Y002534D02*
X031562Y002534D01*
X031551Y002611D02*
X031885Y002611D01*
X031847Y002688D02*
X031962Y002688D01*
X031589Y002688D02*
X031474Y002688D01*
X031461Y002302D02*
X031576Y002302D01*
X030789Y002302D02*
X030674Y002302D01*
X030711Y002225D02*
X030363Y002225D01*
X030381Y002206D02*
X030242Y002346D01*
X030045Y002346D01*
X029906Y002206D01*
X029906Y002009D01*
X030045Y001870D01*
X030242Y001870D01*
X030381Y002009D01*
X030381Y002206D01*
X030381Y002148D02*
X030693Y002148D01*
X030693Y002070D02*
X030381Y002070D01*
X030365Y001993D02*
X030709Y001993D01*
X030672Y001916D02*
X030786Y001916D01*
X030402Y001916D02*
X030288Y001916D01*
X030325Y001839D02*
X029961Y001839D01*
X029987Y001813D02*
X029848Y001952D01*
X029651Y001952D01*
X029512Y001813D01*
X029512Y001616D01*
X029651Y001476D01*
X029848Y001476D01*
X029987Y001616D01*
X029987Y001813D01*
X029987Y001761D02*
X030299Y001761D01*
X030299Y001684D02*
X029987Y001684D01*
X029979Y001607D02*
X030308Y001607D01*
X030242Y001558D02*
X030381Y001419D01*
X030381Y001222D01*
X030242Y001083D01*
X030045Y001083D01*
X029906Y001222D01*
X029906Y001419D01*
X030045Y001558D01*
X030242Y001558D01*
X030270Y001530D02*
X030385Y001530D01*
X030348Y001452D02*
X030726Y001452D01*
X030693Y001375D02*
X030381Y001375D01*
X030381Y001298D02*
X030693Y001298D01*
X030694Y001221D02*
X030380Y001221D01*
X030417Y001143D02*
X030303Y001143D01*
X030340Y001066D02*
X029946Y001066D01*
X029987Y001025D02*
X029848Y001165D01*
X029651Y001165D01*
X029512Y001025D01*
X029512Y000828D01*
X029651Y000689D01*
X029848Y000689D01*
X029987Y000828D01*
X029987Y001025D01*
X029987Y000989D02*
X030299Y000989D01*
X030299Y000912D02*
X029987Y000912D01*
X029987Y000835D02*
X030299Y000835D01*
X030242Y000771D02*
X030381Y000632D01*
X030381Y000435D01*
X030242Y000295D01*
X030045Y000295D01*
X029906Y000435D01*
X029906Y000632D01*
X030045Y000771D01*
X030242Y000771D01*
X030255Y000757D02*
X030370Y000757D01*
X030333Y000680D02*
X030741Y000680D01*
X030704Y000757D02*
X030819Y000757D01*
X030693Y000603D02*
X030381Y000603D01*
X030381Y000526D02*
X030693Y000526D01*
X030693Y000448D02*
X030381Y000448D01*
X030318Y000371D02*
X030756Y000371D01*
X029969Y000371D02*
X029530Y000371D01*
X029594Y000435D02*
X029454Y000295D01*
X029257Y000295D01*
X029118Y000435D01*
X029118Y000632D01*
X029257Y000771D01*
X029454Y000771D01*
X029594Y000632D01*
X029594Y000435D01*
X029594Y000448D02*
X029906Y000448D01*
X029906Y000526D02*
X029594Y000526D01*
X029594Y000603D02*
X029906Y000603D01*
X029954Y000680D02*
X029545Y000680D01*
X029583Y000757D02*
X029468Y000757D01*
X029512Y000835D02*
X029200Y000835D01*
X029200Y000828D02*
X029061Y000689D01*
X028864Y000689D01*
X028724Y000828D01*
X028724Y001025D01*
X028864Y001165D01*
X029061Y001165D01*
X029200Y001025D01*
X029200Y000828D01*
X029244Y000757D02*
X029129Y000757D01*
X029167Y000680D02*
X028758Y000680D01*
X028806Y000632D02*
X028667Y000771D01*
X028470Y000771D01*
X028331Y000632D01*
X028331Y000435D01*
X028470Y000295D01*
X028667Y000295D01*
X028806Y000435D01*
X028806Y000632D01*
X028806Y000603D02*
X029118Y000603D01*
X029118Y000526D02*
X028806Y000526D01*
X028806Y000448D02*
X029118Y000448D01*
X029182Y000371D02*
X028743Y000371D01*
X028394Y000371D02*
X001571Y000371D01*
X001622Y000342D02*
X001622Y000342D01*
X001801Y000294D02*
X034863Y000294D01*
X034650Y000835D02*
X035667Y000835D01*
X035711Y000912D02*
X034836Y000912D01*
X034993Y000989D02*
X035756Y000989D01*
X035800Y001066D02*
X035070Y001066D01*
X035148Y001143D02*
X035845Y001143D01*
X035866Y001221D02*
X035222Y001221D01*
X035254Y001298D02*
X035887Y001298D01*
X035908Y001375D02*
X035286Y001375D01*
X035318Y001452D02*
X035929Y001452D01*
X035947Y001530D02*
X035350Y001530D01*
X035354Y001607D02*
X035952Y001607D01*
X035957Y001684D02*
X035354Y001684D01*
X035354Y001761D02*
X035959Y001761D01*
X035959Y001839D02*
X035354Y001839D01*
X035343Y001916D02*
X035959Y001916D01*
X035959Y001993D02*
X035311Y001993D01*
X035279Y002070D02*
X035959Y002070D01*
X035959Y002148D02*
X035247Y002148D01*
X035208Y002225D02*
X035959Y002225D01*
X035959Y002302D02*
X035130Y002302D01*
X035053Y002379D02*
X035959Y002379D01*
X035959Y002457D02*
X034976Y002457D01*
X034795Y002534D02*
X035959Y002534D01*
X035959Y005701D02*
X021370Y005701D01*
X021359Y005712D02*
X021211Y005712D01*
X021106Y005607D01*
X021106Y005459D01*
X021211Y005354D01*
X021359Y005354D01*
X021464Y005459D01*
X021464Y005607D01*
X021359Y005712D01*
X021447Y005623D02*
X025217Y005623D01*
X025161Y005546D02*
X021464Y005546D01*
X021464Y005469D02*
X025161Y005469D01*
X025189Y005392D02*
X021396Y005392D01*
X021174Y005392D02*
X017902Y005392D01*
X017895Y005384D02*
X017999Y005489D01*
X017999Y005637D01*
X017895Y005741D01*
X017746Y005741D01*
X017642Y005637D01*
X017642Y005489D01*
X017746Y005384D01*
X017895Y005384D01*
X017980Y005469D02*
X021106Y005469D01*
X021106Y005546D02*
X017999Y005546D01*
X017999Y005623D02*
X021123Y005623D01*
X021200Y005701D02*
X017935Y005701D01*
X017934Y005748D02*
X018039Y005853D01*
X018039Y006001D01*
X017934Y006106D01*
X017786Y006106D01*
X017681Y006001D01*
X017681Y005853D01*
X017786Y005748D01*
X017934Y005748D01*
X017964Y005778D02*
X035959Y005778D01*
X035959Y005855D02*
X032624Y005855D01*
X032596Y005827D02*
X032724Y005955D01*
X032724Y006135D01*
X032596Y006263D01*
X032415Y006263D01*
X032287Y006135D01*
X032287Y005955D01*
X032415Y005827D01*
X032596Y005827D01*
X032701Y005932D02*
X035959Y005932D01*
X035959Y006010D02*
X032724Y006010D01*
X032724Y006087D02*
X035959Y006087D01*
X035959Y006164D02*
X032695Y006164D01*
X032617Y006241D02*
X035959Y006241D01*
X035959Y006319D02*
X032300Y006319D01*
X032330Y006348D02*
X032202Y006220D01*
X032021Y006220D01*
X031894Y006348D01*
X031894Y006529D01*
X032021Y006657D01*
X032202Y006657D01*
X032330Y006529D01*
X032330Y006348D01*
X032330Y006396D02*
X035959Y006396D01*
X035959Y006473D02*
X032330Y006473D01*
X032309Y006550D02*
X035959Y006550D01*
X035959Y006628D02*
X032609Y006628D01*
X032596Y006614D02*
X032724Y006742D01*
X032724Y006923D01*
X032596Y007050D01*
X032415Y007050D01*
X032287Y006923D01*
X032287Y006742D01*
X032415Y006614D01*
X032596Y006614D01*
X032686Y006705D02*
X035959Y006705D01*
X035959Y006782D02*
X032724Y006782D01*
X032724Y006859D02*
X035959Y006859D01*
X035959Y006937D02*
X032710Y006937D01*
X032632Y007014D02*
X035959Y007014D01*
X035959Y007091D02*
X032285Y007091D01*
X032330Y007136D02*
X032202Y007008D01*
X032021Y007008D01*
X031894Y007136D01*
X031894Y007316D01*
X032021Y007444D01*
X032202Y007444D01*
X032330Y007316D01*
X032330Y007136D01*
X032330Y007168D02*
X035959Y007168D01*
X035959Y007245D02*
X032330Y007245D01*
X032324Y007323D02*
X035959Y007323D01*
X035959Y007400D02*
X032246Y007400D01*
X032340Y007477D02*
X031884Y007477D01*
X031936Y007529D02*
X031808Y007402D01*
X031628Y007402D01*
X031500Y007529D01*
X031500Y007710D01*
X031628Y007838D01*
X031808Y007838D01*
X031936Y007710D01*
X031936Y007529D01*
X031936Y007554D02*
X032287Y007554D01*
X032287Y007529D02*
X032415Y007402D01*
X032596Y007402D01*
X032724Y007529D01*
X032724Y007710D01*
X032596Y007838D01*
X032415Y007838D01*
X032287Y007710D01*
X032287Y007529D01*
X032287Y007632D02*
X031936Y007632D01*
X031936Y007709D02*
X032287Y007709D01*
X032364Y007786D02*
X031860Y007786D01*
X031576Y007786D02*
X031073Y007786D01*
X031021Y007838D02*
X030840Y007838D01*
X030713Y007710D01*
X030713Y007529D01*
X030840Y007402D01*
X031021Y007402D01*
X031149Y007529D01*
X031149Y007710D01*
X031021Y007838D01*
X031149Y007709D02*
X031500Y007709D01*
X031500Y007632D02*
X031149Y007632D01*
X031149Y007554D02*
X031500Y007554D01*
X031552Y007477D02*
X031097Y007477D01*
X031190Y007400D02*
X026334Y007400D01*
X026318Y007383D02*
X026424Y007490D01*
X026424Y007671D01*
X026297Y007798D01*
X026116Y007798D01*
X026009Y007692D01*
X025903Y007798D01*
X025722Y007798D01*
X025594Y007671D01*
X025594Y007490D01*
X025701Y007383D01*
X025594Y007277D01*
X025594Y007096D01*
X025722Y006969D01*
X025903Y006969D01*
X026009Y007075D01*
X026116Y006969D01*
X026297Y006969D01*
X026424Y007096D01*
X026424Y007277D01*
X026318Y007383D01*
X026379Y007323D02*
X031113Y007323D01*
X031106Y007316D02*
X031106Y007136D01*
X031234Y007008D01*
X031415Y007008D01*
X031543Y007136D01*
X031543Y007316D01*
X031415Y007444D01*
X031234Y007444D01*
X031106Y007316D01*
X031106Y007245D02*
X026424Y007245D01*
X026424Y007168D02*
X031106Y007168D01*
X031151Y007091D02*
X026419Y007091D01*
X026342Y007014D02*
X030804Y007014D01*
X030840Y007050D02*
X030713Y006923D01*
X030713Y006742D01*
X030840Y006614D01*
X031021Y006614D01*
X031149Y006742D01*
X031149Y006923D01*
X031021Y007050D01*
X030840Y007050D01*
X030726Y006937D02*
X016306Y006937D01*
X016306Y006916D02*
X016202Y006811D01*
X016054Y006811D01*
X015949Y006916D01*
X015949Y007064D01*
X016054Y007169D01*
X016202Y007169D01*
X016306Y007064D01*
X016306Y006916D01*
X016250Y006859D02*
X030713Y006859D01*
X030713Y006782D02*
X017927Y006782D01*
X017895Y006814D02*
X017746Y006814D01*
X017642Y006709D01*
X017642Y006561D01*
X017746Y006457D01*
X017895Y006457D01*
X017999Y006561D01*
X017999Y006709D01*
X017895Y006814D01*
X017999Y006705D02*
X030750Y006705D01*
X030827Y006628D02*
X021506Y006628D01*
X021477Y006657D02*
X021329Y006657D01*
X021224Y006552D01*
X021224Y006404D01*
X021329Y006299D01*
X021477Y006299D01*
X021582Y006404D01*
X021582Y006552D01*
X021477Y006657D01*
X021582Y006550D02*
X031128Y006550D01*
X031106Y006529D02*
X031106Y006348D01*
X031234Y006220D01*
X031415Y006220D01*
X031543Y006348D01*
X031543Y006529D01*
X031415Y006657D01*
X031234Y006657D01*
X031106Y006529D01*
X031106Y006473D02*
X021582Y006473D01*
X021574Y006396D02*
X027367Y006396D01*
X027329Y006357D02*
X027329Y006300D01*
X027272Y006300D01*
X027167Y006196D01*
X027167Y006047D01*
X027272Y005943D01*
X027420Y005943D01*
X027525Y006047D01*
X027525Y006104D01*
X027582Y006104D01*
X027686Y006209D01*
X027686Y006357D01*
X027582Y006462D01*
X027434Y006462D01*
X027329Y006357D01*
X027329Y006319D02*
X021497Y006319D01*
X021310Y006319D02*
X017563Y006319D01*
X017566Y006316D02*
X017461Y006420D01*
X017313Y006420D01*
X017209Y006316D01*
X017209Y006168D01*
X017313Y006063D01*
X017461Y006063D01*
X017566Y006168D01*
X017566Y006316D01*
X017566Y006241D02*
X027213Y006241D01*
X027167Y006164D02*
X017563Y006164D01*
X017485Y006087D02*
X017767Y006087D01*
X017690Y006010D02*
X015510Y006010D01*
X015493Y006027D02*
X015345Y006027D01*
X015320Y006002D01*
X015217Y006106D01*
X015069Y006106D01*
X015045Y006081D01*
X014942Y006184D01*
X014794Y006184D01*
X014689Y006080D01*
X014689Y005931D01*
X014794Y005827D01*
X014942Y005827D01*
X014966Y005851D01*
X015069Y005748D01*
X015217Y005748D01*
X015242Y005772D01*
X015345Y005669D01*
X015493Y005669D01*
X015598Y005774D01*
X015598Y005922D01*
X015493Y006027D01*
X015587Y005932D02*
X017681Y005932D01*
X017681Y005855D02*
X015598Y005855D01*
X015598Y005778D02*
X017756Y005778D01*
X017706Y005701D02*
X015524Y005701D01*
X015313Y005701D02*
X009904Y005701D01*
X009904Y005734D02*
X009841Y005886D01*
X009724Y006002D01*
X009572Y006065D01*
X009407Y006065D01*
X009255Y006002D01*
X009139Y005886D01*
X009076Y005734D01*
X009076Y005569D01*
X009139Y005417D01*
X009255Y005300D01*
X009407Y005237D01*
X008573Y005237D01*
X008572Y005237D02*
X008724Y005300D01*
X008841Y005417D01*
X008904Y005569D01*
X008904Y005734D01*
X008841Y005886D01*
X008724Y006002D01*
X008572Y006065D01*
X008407Y006065D01*
X008255Y006002D01*
X008139Y005886D01*
X008076Y005734D01*
X008076Y005569D01*
X008139Y005417D01*
X008255Y005300D01*
X008407Y005237D01*
X007573Y005237D01*
X007572Y005237D02*
X007724Y005300D01*
X007841Y005417D01*
X007904Y005569D01*
X007904Y005734D01*
X007841Y005886D01*
X007724Y006002D01*
X007572Y006065D01*
X007407Y006065D01*
X007255Y006002D01*
X007139Y005886D01*
X007076Y005734D01*
X007076Y005569D01*
X007139Y005417D01*
X007255Y005300D01*
X007407Y005237D01*
X006573Y005237D01*
X006572Y005237D02*
X006724Y005300D01*
X006841Y005417D01*
X006904Y005569D01*
X006904Y005734D01*
X006841Y005886D01*
X006724Y006002D01*
X006572Y006065D01*
X006407Y006065D01*
X006255Y006002D01*
X006149Y005896D01*
X006149Y006001D01*
X006044Y006106D01*
X005896Y006106D01*
X005791Y006001D01*
X005791Y005853D01*
X005896Y005748D01*
X006044Y005748D01*
X006108Y005812D01*
X006076Y005734D01*
X006076Y005569D01*
X006139Y005417D01*
X006255Y005300D01*
X006407Y005237D01*
X000705Y005237D01*
X000705Y005160D02*
X009791Y005160D01*
X009768Y005183D02*
X009872Y005079D01*
X010020Y005079D01*
X010125Y005183D01*
X010125Y005332D01*
X010020Y005436D01*
X009872Y005436D01*
X009768Y005332D01*
X009768Y005183D01*
X009768Y005237D02*
X009573Y005237D01*
X009572Y005237D02*
X009724Y005300D01*
X009841Y005417D01*
X009904Y005569D01*
X009904Y005734D01*
X009886Y005778D02*
X015039Y005778D01*
X014765Y005855D02*
X010128Y005855D01*
X010099Y005827D02*
X010204Y005931D01*
X010204Y006024D01*
X010217Y006024D01*
X010322Y006128D01*
X010322Y006276D01*
X010217Y006381D01*
X010069Y006381D01*
X009965Y006276D01*
X009965Y006184D01*
X009951Y006184D01*
X009846Y006080D01*
X009846Y005931D01*
X009951Y005827D01*
X010099Y005827D01*
X010204Y005932D02*
X012601Y005932D01*
X012628Y005906D02*
X012776Y005906D01*
X012820Y005950D01*
X012904Y005866D01*
X013052Y005866D01*
X013157Y005971D01*
X013157Y006119D01*
X013052Y006224D01*
X012904Y006224D01*
X012860Y006180D01*
X012776Y006263D01*
X012628Y006263D01*
X012524Y006158D01*
X012524Y006010D01*
X012251Y006010D01*
X012291Y006050D02*
X012291Y006063D01*
X012383Y006063D01*
X012487Y006168D01*
X012487Y006316D01*
X012383Y006420D01*
X012235Y006420D01*
X012130Y006316D01*
X012130Y006302D01*
X012094Y006302D01*
X012094Y006316D01*
X011989Y006420D01*
X011841Y006420D01*
X011736Y006316D01*
X011736Y006168D01*
X011841Y006063D01*
X011933Y006063D01*
X011933Y006050D01*
X012038Y005945D01*
X012186Y005945D01*
X012291Y006050D01*
X012407Y006087D02*
X012524Y006087D01*
X012524Y006010D02*
X012628Y005906D01*
X012803Y005932D02*
X012838Y005932D01*
X013118Y005932D02*
X014689Y005932D01*
X014689Y006010D02*
X014613Y006010D01*
X014587Y005984D02*
X014692Y006089D01*
X014692Y006237D01*
X014587Y006342D01*
X014439Y006342D01*
X014335Y006237D01*
X014335Y006089D01*
X014439Y005984D01*
X014587Y005984D01*
X014690Y006087D02*
X014696Y006087D01*
X014692Y006164D02*
X014774Y006164D01*
X014688Y006241D02*
X017209Y006241D01*
X017212Y006164D02*
X014962Y006164D01*
X015039Y006087D02*
X015051Y006087D01*
X015236Y006087D02*
X017289Y006087D01*
X017211Y006319D02*
X014611Y006319D01*
X014416Y006319D02*
X014059Y006319D01*
X014062Y006316D02*
X013958Y006420D01*
X013809Y006420D01*
X013705Y006316D01*
X013705Y006168D01*
X013809Y006063D01*
X013958Y006063D01*
X014062Y006168D01*
X014062Y006316D01*
X014062Y006241D02*
X014339Y006241D01*
X014335Y006164D02*
X014059Y006164D01*
X013981Y006087D02*
X014337Y006087D01*
X014414Y006010D02*
X013157Y006010D01*
X013157Y006087D02*
X013786Y006087D01*
X013708Y006164D02*
X013111Y006164D01*
X012798Y006241D02*
X013705Y006241D01*
X013708Y006319D02*
X012485Y006319D01*
X012487Y006241D02*
X012607Y006241D01*
X012529Y006164D02*
X012484Y006164D01*
X012407Y006396D02*
X013785Y006396D01*
X013982Y006396D02*
X017289Y006396D01*
X017486Y006396D02*
X021232Y006396D01*
X021224Y006473D02*
X017911Y006473D01*
X017988Y006550D02*
X021224Y006550D01*
X021300Y006628D02*
X017999Y006628D01*
X017730Y006473D02*
X010864Y006473D01*
X010913Y006522D02*
X010808Y006417D01*
X010660Y006417D01*
X010555Y006522D01*
X010555Y006670D01*
X010660Y006775D01*
X010808Y006775D01*
X010913Y006670D01*
X010913Y006522D01*
X010913Y006550D02*
X014976Y006550D01*
X014991Y006535D02*
X015139Y006535D01*
X015243Y006640D01*
X015243Y006788D01*
X015139Y006893D01*
X014991Y006893D01*
X014886Y006788D01*
X014886Y006640D01*
X014991Y006535D01*
X014898Y006628D02*
X010913Y006628D01*
X010878Y006705D02*
X014886Y006705D01*
X014886Y006782D02*
X008061Y006782D01*
X008072Y006807D02*
X008028Y006703D01*
X007948Y006623D01*
X007844Y006579D01*
X007731Y006579D01*
X007626Y006623D01*
X007546Y006703D01*
X007503Y006807D01*
X007503Y006920D01*
X007546Y007025D01*
X007626Y007105D01*
X007731Y007148D01*
X007844Y007148D01*
X007948Y007105D01*
X008028Y007025D01*
X008072Y006920D01*
X008072Y006807D01*
X008072Y006859D02*
X014785Y006859D01*
X014794Y006850D02*
X014942Y006850D01*
X015046Y006955D01*
X015046Y007103D01*
X014942Y007208D01*
X014794Y007208D01*
X014689Y007103D01*
X014689Y006955D01*
X014794Y006850D01*
X014708Y006937D02*
X014398Y006937D01*
X014351Y006890D02*
X014456Y006994D01*
X014456Y007143D01*
X014351Y007247D01*
X014203Y007247D01*
X014098Y007143D01*
X014098Y006994D01*
X014203Y006890D01*
X014351Y006890D01*
X014456Y007014D02*
X014689Y007014D01*
X014689Y007091D02*
X014456Y007091D01*
X014430Y007168D02*
X014754Y007168D01*
X014981Y007168D02*
X016053Y007168D01*
X015976Y007091D02*
X015046Y007091D01*
X015046Y007014D02*
X015949Y007014D01*
X015949Y006937D02*
X015028Y006937D01*
X014957Y006859D02*
X014951Y006859D01*
X015172Y006859D02*
X016005Y006859D01*
X016306Y007014D02*
X025677Y007014D01*
X025600Y007091D02*
X016279Y007091D01*
X016202Y007168D02*
X025594Y007168D01*
X025594Y007245D02*
X023959Y007245D01*
X023958Y007244D02*
X024062Y007349D01*
X024062Y007497D01*
X023958Y007602D01*
X023809Y007602D01*
X023705Y007497D01*
X023705Y007349D01*
X023809Y007244D01*
X023958Y007244D01*
X024036Y007323D02*
X025640Y007323D01*
X025684Y007400D02*
X024062Y007400D01*
X024062Y007477D02*
X025607Y007477D01*
X025594Y007554D02*
X024005Y007554D01*
X023762Y007554D02*
X020519Y007554D01*
X020519Y007592D02*
X020393Y007718D01*
X020519Y007844D01*
X020519Y008025D01*
X020391Y008153D01*
X020210Y008153D01*
X020104Y008046D01*
X019997Y008153D01*
X019817Y008153D01*
X019710Y008046D01*
X019604Y008153D01*
X019423Y008153D01*
X019336Y008066D01*
X019249Y008153D01*
X019069Y008153D01*
X018941Y008025D01*
X018941Y007844D01*
X019069Y007717D01*
X019249Y007717D01*
X019336Y007803D01*
X019421Y007718D01*
X019295Y007592D01*
X019295Y007411D01*
X019423Y007283D01*
X019604Y007283D01*
X019710Y007390D01*
X019817Y007283D01*
X019997Y007283D01*
X020104Y007390D01*
X020210Y007283D01*
X020391Y007283D01*
X020519Y007411D01*
X020519Y007592D01*
X020479Y007632D02*
X025594Y007632D01*
X025633Y007709D02*
X020402Y007709D01*
X020461Y007786D02*
X025710Y007786D01*
X025915Y007786D02*
X026104Y007786D01*
X026026Y007709D02*
X025992Y007709D01*
X026309Y007786D02*
X026343Y007786D01*
X026343Y007782D02*
X026447Y007677D01*
X026595Y007677D01*
X026700Y007782D01*
X026700Y007930D01*
X026595Y008035D01*
X026447Y008035D01*
X026343Y007930D01*
X026343Y007782D01*
X026343Y007863D02*
X020519Y007863D01*
X020519Y007941D02*
X026353Y007941D01*
X026430Y008018D02*
X020519Y008018D01*
X020449Y008095D02*
X035959Y008095D01*
X035959Y008018D02*
X026612Y008018D01*
X026605Y008110D02*
X026753Y008110D01*
X026857Y008215D01*
X026857Y008363D01*
X026753Y008468D01*
X026605Y008468D01*
X026500Y008363D01*
X026500Y008215D01*
X026605Y008110D01*
X026543Y008172D02*
X014528Y008172D01*
X014574Y008127D02*
X014469Y008231D01*
X014321Y008231D01*
X014217Y008127D01*
X014217Y007979D01*
X014321Y007874D01*
X014469Y007874D01*
X014574Y007979D01*
X014574Y008127D01*
X014574Y008095D02*
X017161Y008095D01*
X017218Y008153D02*
X017091Y008025D01*
X017091Y007844D01*
X017158Y007777D01*
X017091Y007710D01*
X017091Y007529D01*
X017218Y007402D01*
X017399Y007402D01*
X017527Y007529D01*
X017527Y007710D01*
X017460Y007777D01*
X017527Y007844D01*
X017527Y008025D01*
X017399Y008153D01*
X017218Y008153D01*
X017091Y008018D02*
X014574Y008018D01*
X014536Y007941D02*
X017091Y007941D01*
X017091Y007863D02*
X010664Y007863D01*
X010716Y007812D02*
X010611Y007917D01*
X010463Y007917D01*
X010358Y007812D01*
X010358Y007664D01*
X010463Y007559D01*
X010611Y007559D01*
X010716Y007664D01*
X010716Y007812D01*
X010716Y007786D02*
X017149Y007786D01*
X017091Y007709D02*
X016134Y007709D01*
X016123Y007720D02*
X015975Y007720D01*
X015870Y007615D01*
X015870Y007467D01*
X015975Y007362D01*
X016123Y007362D01*
X016228Y007467D01*
X016228Y007615D01*
X016123Y007720D01*
X016211Y007632D02*
X017091Y007632D01*
X017091Y007554D02*
X016228Y007554D01*
X016228Y007477D02*
X017143Y007477D01*
X017475Y007477D02*
X019295Y007477D01*
X019295Y007554D02*
X017527Y007554D01*
X017527Y007632D02*
X019335Y007632D01*
X019412Y007709D02*
X017527Y007709D01*
X017469Y007786D02*
X018999Y007786D01*
X018941Y007863D02*
X017527Y007863D01*
X017527Y007941D02*
X018941Y007941D01*
X018941Y008018D02*
X017527Y008018D01*
X017457Y008095D02*
X019011Y008095D01*
X019307Y008095D02*
X019365Y008095D01*
X019661Y008095D02*
X019759Y008095D01*
X020055Y008095D02*
X020153Y008095D01*
X020502Y008504D02*
X020650Y008504D01*
X020755Y008609D01*
X020755Y008757D01*
X020650Y008861D01*
X020502Y008861D01*
X020398Y008757D01*
X020398Y008609D01*
X020502Y008504D01*
X020448Y008559D02*
X015480Y008559D01*
X015480Y008560D02*
X015375Y008665D01*
X015227Y008665D01*
X015122Y008560D01*
X015122Y008412D01*
X015227Y008307D01*
X015375Y008307D01*
X015480Y008412D01*
X015480Y008560D01*
X015480Y008481D02*
X021037Y008481D01*
X021028Y008491D02*
X021132Y008386D01*
X021280Y008386D01*
X021385Y008491D01*
X021385Y008639D01*
X021280Y008743D01*
X021132Y008743D01*
X021028Y008639D01*
X021028Y008491D01*
X021028Y008559D02*
X020705Y008559D01*
X020755Y008636D02*
X021028Y008636D01*
X021102Y008713D02*
X020755Y008713D01*
X020722Y008790D02*
X021691Y008790D01*
X021723Y008822D02*
X021618Y008717D01*
X021618Y008569D01*
X021723Y008465D01*
X021871Y008465D01*
X021976Y008569D01*
X021976Y008717D01*
X021871Y008822D01*
X021723Y008822D01*
X021661Y008924D02*
X021661Y009072D01*
X021556Y009176D01*
X021408Y009176D01*
X021303Y009072D01*
X021303Y008924D01*
X021408Y008819D01*
X021556Y008819D01*
X021661Y008924D01*
X021661Y008945D02*
X026294Y008945D01*
X026329Y008980D02*
X026224Y008875D01*
X026224Y008727D01*
X026329Y008622D01*
X026477Y008622D01*
X026582Y008727D01*
X026582Y008875D01*
X026477Y008980D01*
X026329Y008980D01*
X026224Y008868D02*
X021605Y008868D01*
X021618Y008713D02*
X021311Y008713D01*
X021385Y008636D02*
X021618Y008636D01*
X021629Y008559D02*
X021385Y008559D01*
X021376Y008481D02*
X021706Y008481D01*
X021888Y008481D02*
X026824Y008481D01*
X026841Y008465D02*
X026933Y008465D01*
X026933Y008412D01*
X027038Y008307D01*
X027186Y008307D01*
X027291Y008412D01*
X027291Y008560D01*
X027186Y008665D01*
X027094Y008665D01*
X027094Y008717D01*
X026989Y008822D01*
X026841Y008822D01*
X026736Y008717D01*
X026736Y008569D01*
X026841Y008465D01*
X026816Y008404D02*
X026941Y008404D01*
X027018Y008327D02*
X026857Y008327D01*
X026857Y008250D02*
X035959Y008250D01*
X035959Y008327D02*
X027206Y008327D01*
X027283Y008404D02*
X035959Y008404D01*
X035959Y008481D02*
X027291Y008481D01*
X027313Y008543D02*
X027209Y008648D01*
X027209Y008796D01*
X027292Y008880D01*
X027287Y008884D01*
X027287Y009032D01*
X027392Y009137D01*
X027540Y009137D01*
X027645Y009032D01*
X027645Y008884D01*
X027561Y008801D01*
X027566Y008796D01*
X027566Y008648D01*
X027461Y008543D01*
X027313Y008543D01*
X027298Y008559D02*
X027291Y008559D01*
X027221Y008636D02*
X027215Y008636D01*
X027209Y008713D02*
X027094Y008713D01*
X027021Y008790D02*
X027209Y008790D01*
X027280Y008868D02*
X026582Y008868D01*
X026582Y008790D02*
X026809Y008790D01*
X026736Y008713D02*
X026568Y008713D01*
X026491Y008636D02*
X026736Y008636D01*
X026747Y008559D02*
X021965Y008559D01*
X021976Y008636D02*
X026315Y008636D01*
X026238Y008713D02*
X021976Y008713D01*
X021903Y008790D02*
X026224Y008790D01*
X026512Y008945D02*
X027287Y008945D01*
X027287Y009022D02*
X021661Y009022D01*
X021633Y009099D02*
X027354Y009099D01*
X027578Y009099D02*
X034558Y009099D01*
X034517Y009141D02*
X034633Y009024D01*
X034785Y008961D01*
X034950Y008961D01*
X035102Y009024D01*
X035219Y009141D01*
X035282Y009293D01*
X035282Y009458D01*
X035219Y009610D01*
X035102Y009727D01*
X034950Y009790D01*
X034785Y009790D01*
X034633Y009727D01*
X034517Y009610D01*
X034454Y009458D01*
X034454Y009293D01*
X034517Y009141D01*
X034502Y009176D02*
X009928Y009176D01*
X009928Y009120D02*
X009824Y009016D01*
X009676Y009016D01*
X009571Y009120D01*
X009571Y009269D01*
X009676Y009373D01*
X009824Y009373D01*
X009928Y009269D01*
X009928Y009120D01*
X009907Y009099D02*
X019047Y009099D01*
X019085Y009137D02*
X018980Y009032D01*
X018980Y008996D01*
X018958Y009019D01*
X018809Y009019D01*
X018705Y008914D01*
X018705Y008766D01*
X018809Y008661D01*
X018958Y008661D01*
X019062Y008766D01*
X019062Y008802D01*
X019085Y008780D01*
X019233Y008780D01*
X019338Y008884D01*
X019338Y009032D01*
X019233Y009137D01*
X019085Y009137D01*
X018980Y009022D02*
X009830Y009022D01*
X009669Y009022D02*
X008846Y009022D01*
X008865Y009042D02*
X008761Y008937D01*
X008613Y008937D01*
X008508Y009042D01*
X008508Y009190D01*
X008613Y009294D01*
X008761Y009294D01*
X008865Y009190D01*
X008865Y009042D01*
X008865Y009099D02*
X009592Y009099D01*
X009571Y009176D02*
X008865Y009176D01*
X008801Y009254D02*
X009571Y009254D01*
X009633Y009331D02*
X008556Y009331D01*
X008498Y009307D02*
X008703Y009392D01*
X008859Y009548D01*
X008944Y009753D01*
X008944Y009975D01*
X008859Y010179D01*
X008703Y010336D01*
X008498Y010421D01*
X008277Y010421D01*
X008072Y010336D01*
X007915Y010179D01*
X007831Y009975D01*
X007831Y009753D01*
X007915Y009548D01*
X008072Y009392D01*
X008277Y009307D01*
X008498Y009307D01*
X008572Y009254D02*
X005134Y009254D01*
X005156Y009276D02*
X005199Y009380D01*
X005199Y009494D01*
X005156Y009598D01*
X005076Y009678D01*
X004972Y009721D01*
X004858Y009721D01*
X004754Y009678D01*
X004674Y009598D01*
X004631Y009494D01*
X004631Y009380D01*
X004674Y009276D01*
X004754Y009196D01*
X004858Y009153D01*
X004967Y009153D01*
X004925Y009111D01*
X004925Y008963D01*
X004967Y008921D01*
X004858Y008921D01*
X004754Y008878D01*
X004674Y008798D01*
X004631Y008694D01*
X004631Y008580D01*
X004674Y008476D01*
X004754Y008396D01*
X004787Y008382D01*
X004689Y008284D01*
X004689Y008227D01*
X004637Y008352D01*
X004480Y008509D01*
X004276Y008594D01*
X004054Y008594D01*
X003850Y008509D01*
X003693Y008352D01*
X003608Y008148D01*
X003608Y007926D01*
X003693Y007722D01*
X003850Y007565D01*
X004054Y007480D01*
X004276Y007480D01*
X004480Y007565D01*
X004637Y007722D01*
X004722Y007926D01*
X004722Y008103D01*
X004794Y008031D01*
X004942Y008031D01*
X005046Y008136D01*
X005046Y008284D01*
X004976Y008355D01*
X005076Y008396D01*
X005156Y008476D01*
X005199Y008580D01*
X005199Y008694D01*
X005156Y008798D01*
X005096Y008858D01*
X005178Y008858D01*
X005202Y008883D01*
X005266Y008819D01*
X005414Y008819D01*
X005519Y008924D01*
X005519Y009072D01*
X005414Y009176D01*
X005266Y009176D01*
X005242Y009152D01*
X005178Y009216D01*
X005096Y009216D01*
X005156Y009276D01*
X005179Y009331D02*
X006219Y009331D01*
X006277Y009307D02*
X006498Y009307D01*
X006703Y009392D01*
X006859Y009548D01*
X006944Y009753D01*
X006944Y009975D01*
X006859Y010179D01*
X006703Y010336D01*
X006498Y010421D01*
X006277Y010421D01*
X006072Y010336D01*
X005915Y010179D01*
X005831Y009975D01*
X005831Y009753D01*
X005915Y009548D01*
X006072Y009392D01*
X006277Y009307D01*
X006055Y009408D02*
X005199Y009408D01*
X005199Y009485D02*
X005978Y009485D01*
X005909Y009563D02*
X005171Y009563D01*
X005114Y009640D02*
X005877Y009640D01*
X005845Y009717D02*
X004982Y009717D01*
X004848Y009717D02*
X004633Y009717D01*
X004637Y009722D02*
X004722Y009926D01*
X004722Y010148D01*
X004637Y010352D01*
X004480Y010509D01*
X004276Y010594D01*
X004054Y010594D01*
X003850Y010509D01*
X003693Y010352D01*
X003608Y010148D01*
X003608Y009926D01*
X003693Y009722D01*
X003850Y009565D01*
X004054Y009480D01*
X004276Y009480D01*
X004480Y009565D01*
X004637Y009722D01*
X004667Y009794D02*
X005831Y009794D01*
X005831Y009872D02*
X004699Y009872D01*
X004722Y009949D02*
X005831Y009949D01*
X005852Y010026D02*
X004722Y010026D01*
X004722Y010103D02*
X005884Y010103D01*
X005917Y010181D02*
X004708Y010181D01*
X004676Y010258D02*
X005994Y010258D01*
X006071Y010335D02*
X004644Y010335D01*
X004577Y010412D02*
X006257Y010412D01*
X006518Y010412D02*
X007216Y010412D01*
X007235Y010394D02*
X007383Y010394D01*
X007487Y010498D01*
X007487Y010646D01*
X007383Y010751D01*
X007235Y010751D01*
X007130Y010646D01*
X007130Y010498D01*
X007235Y010394D01*
X007139Y010490D02*
X004500Y010490D01*
X004341Y010567D02*
X007130Y010567D01*
X007130Y010644D02*
X000705Y010644D01*
X000705Y010567D02*
X001739Y010567D01*
X001804Y010594D02*
X001600Y010509D01*
X001443Y010352D01*
X001358Y010148D01*
X001358Y009926D01*
X001443Y009722D01*
X001600Y009565D01*
X001804Y009480D01*
X002026Y009480D01*
X002230Y009565D01*
X002387Y009722D01*
X002472Y009926D01*
X002472Y010148D01*
X002387Y010352D01*
X002230Y010509D01*
X002026Y010594D01*
X001804Y010594D01*
X001580Y010490D02*
X000705Y010490D01*
X000705Y010412D02*
X001503Y010412D01*
X001436Y010335D02*
X000705Y010335D01*
X000705Y010258D02*
X001404Y010258D01*
X001372Y010181D02*
X000705Y010181D01*
X000705Y010103D02*
X001358Y010103D01*
X001358Y010026D02*
X000705Y010026D01*
X000705Y009949D02*
X001358Y009949D01*
X001381Y009872D02*
X000705Y009872D01*
X000705Y009794D02*
X001413Y009794D01*
X001447Y009717D02*
X000705Y009717D01*
X000705Y009640D02*
X001524Y009640D01*
X001605Y009563D02*
X000705Y009563D01*
X000705Y009485D02*
X001791Y009485D01*
X001858Y009321D02*
X001754Y009278D01*
X001674Y009198D01*
X001631Y009094D01*
X001631Y008980D01*
X001674Y008876D01*
X001754Y008796D01*
X001858Y008753D01*
X001972Y008753D01*
X002076Y008796D01*
X002156Y008876D01*
X002199Y008980D01*
X002199Y009094D01*
X002156Y009198D01*
X002076Y009278D01*
X001972Y009321D01*
X001858Y009321D01*
X001730Y009254D02*
X001621Y009254D01*
X001621Y009324D02*
X001493Y009452D01*
X001313Y009452D01*
X001185Y009324D01*
X001185Y009144D01*
X001313Y009016D01*
X001493Y009016D01*
X001621Y009144D01*
X001621Y009324D01*
X001614Y009331D02*
X004651Y009331D01*
X004631Y009408D02*
X001537Y009408D01*
X001621Y009176D02*
X001665Y009176D01*
X001633Y009099D02*
X001577Y009099D01*
X001631Y009022D02*
X001500Y009022D01*
X001645Y008945D02*
X000705Y008945D01*
X000705Y009022D02*
X001307Y009022D01*
X001229Y009099D02*
X000705Y009099D01*
X000705Y009176D02*
X001185Y009176D01*
X001185Y009254D02*
X000705Y009254D01*
X000705Y009331D02*
X001192Y009331D01*
X001269Y009408D02*
X000705Y009408D01*
X000705Y008868D02*
X001682Y008868D01*
X001767Y008790D02*
X000705Y008790D01*
X000705Y008713D02*
X004639Y008713D01*
X004631Y008636D02*
X003553Y008636D01*
X003524Y008665D02*
X003376Y008665D01*
X003272Y008560D01*
X003272Y008412D01*
X003376Y008307D01*
X003524Y008307D01*
X003629Y008412D01*
X003629Y008560D01*
X003524Y008665D01*
X003629Y008559D02*
X003969Y008559D01*
X003822Y008481D02*
X003629Y008481D01*
X003621Y008404D02*
X003745Y008404D01*
X003682Y008327D02*
X003544Y008327D01*
X003650Y008250D02*
X002430Y008250D01*
X002398Y008327D02*
X003357Y008327D01*
X003279Y008404D02*
X002335Y008404D01*
X002387Y008352D02*
X002230Y008509D01*
X002026Y008594D01*
X001804Y008594D01*
X001600Y008509D01*
X001443Y008352D01*
X001358Y008148D01*
X001358Y007926D01*
X001443Y007722D01*
X001600Y007565D01*
X001804Y007480D01*
X002026Y007480D01*
X002230Y007565D01*
X002387Y007722D01*
X002472Y007926D01*
X002472Y008148D01*
X002387Y008352D01*
X002258Y008481D02*
X003272Y008481D01*
X003272Y008559D02*
X002111Y008559D01*
X002062Y008790D02*
X004671Y008790D01*
X004743Y008868D02*
X004242Y008868D01*
X004233Y008858D02*
X004338Y008963D01*
X004338Y009111D01*
X004233Y009216D01*
X004085Y009216D01*
X003980Y009111D01*
X003980Y008963D01*
X004085Y008858D01*
X004233Y008858D01*
X004320Y008945D02*
X004943Y008945D01*
X004925Y009022D02*
X004338Y009022D01*
X004338Y009099D02*
X004925Y009099D01*
X004801Y009176D02*
X004272Y009176D01*
X004046Y009176D02*
X002165Y009176D01*
X002197Y009099D02*
X003980Y009099D01*
X003980Y009022D02*
X002199Y009022D01*
X002185Y008945D02*
X003999Y008945D01*
X004076Y008868D02*
X002148Y008868D01*
X002100Y009254D02*
X004696Y009254D01*
X004631Y009485D02*
X004289Y009485D01*
X004475Y009563D02*
X004659Y009563D01*
X004716Y009640D02*
X004555Y009640D01*
X004041Y009485D02*
X002039Y009485D01*
X002225Y009563D02*
X003855Y009563D01*
X003774Y009640D02*
X002305Y009640D01*
X002383Y009717D02*
X003697Y009717D01*
X003663Y009794D02*
X002417Y009794D01*
X002449Y009872D02*
X003631Y009872D01*
X003608Y009949D02*
X002472Y009949D01*
X002472Y010026D02*
X003608Y010026D01*
X003608Y010103D02*
X002472Y010103D01*
X002458Y010181D02*
X003622Y010181D01*
X003654Y010258D02*
X002426Y010258D01*
X002394Y010335D02*
X003686Y010335D01*
X003753Y010412D02*
X002327Y010412D01*
X002250Y010490D02*
X003830Y010490D01*
X003989Y010567D02*
X002091Y010567D01*
X002077Y011102D02*
X002225Y011102D01*
X002330Y011207D01*
X002330Y011355D01*
X002225Y011460D01*
X002077Y011460D01*
X001972Y011355D01*
X001972Y011207D01*
X002077Y011102D01*
X002072Y011108D02*
X000705Y011108D01*
X000705Y011185D02*
X001995Y011185D01*
X001972Y011262D02*
X000705Y011262D01*
X000705Y011339D02*
X001972Y011339D01*
X002034Y011416D02*
X000705Y011416D01*
X000705Y011494D02*
X004689Y011494D01*
X004689Y011568D02*
X004689Y011388D01*
X004817Y011260D01*
X004997Y011260D01*
X005125Y011388D01*
X005125Y011568D01*
X004997Y011696D01*
X004817Y011696D01*
X004689Y011568D01*
X004692Y011571D02*
X000705Y011571D01*
X000705Y011648D02*
X004769Y011648D01*
X004689Y011416D02*
X002269Y011416D01*
X002330Y011339D02*
X004737Y011339D01*
X004815Y011262D02*
X002330Y011262D01*
X002308Y011185D02*
X006421Y011185D01*
X006421Y011237D02*
X006421Y011089D01*
X006526Y010984D01*
X006674Y010984D01*
X006757Y011068D01*
X006802Y011024D01*
X006950Y011024D01*
X007054Y011128D01*
X007054Y011276D01*
X006950Y011381D01*
X006802Y011381D01*
X006718Y011298D01*
X006674Y011342D01*
X006526Y011342D01*
X006421Y011237D01*
X006446Y011262D02*
X005000Y011262D01*
X005077Y011339D02*
X006523Y011339D01*
X006677Y011339D02*
X006760Y011339D01*
X006991Y011339D02*
X009059Y011339D01*
X009059Y011325D02*
X009164Y011220D01*
X009312Y011220D01*
X009417Y011325D01*
X009417Y011473D01*
X009312Y011578D01*
X009164Y011578D01*
X009059Y011473D01*
X009059Y011325D01*
X009122Y011262D02*
X007054Y011262D01*
X007054Y011185D02*
X015122Y011185D01*
X015122Y011168D02*
X015227Y011063D01*
X015375Y011063D01*
X015480Y011168D01*
X015480Y011316D01*
X015375Y011420D01*
X015227Y011420D01*
X015122Y011316D01*
X015122Y011168D01*
X015182Y011108D02*
X007034Y011108D01*
X006956Y011030D02*
X018094Y011030D01*
X018075Y011050D02*
X018180Y010945D01*
X018328Y010945D01*
X018432Y011050D01*
X018432Y011198D01*
X018369Y011261D01*
X018432Y011325D01*
X018432Y011473D01*
X018388Y011517D01*
X018432Y011561D01*
X018432Y011709D01*
X018388Y011754D01*
X018432Y011798D01*
X018432Y011946D01*
X018328Y012050D01*
X018180Y012050D01*
X018075Y011946D01*
X018075Y011798D01*
X018119Y011754D01*
X018075Y011709D01*
X018075Y011561D01*
X018119Y011517D01*
X018075Y011473D01*
X018075Y011325D01*
X018139Y011261D01*
X018075Y011198D01*
X018075Y011050D01*
X018075Y011108D02*
X015419Y011108D01*
X015480Y011185D02*
X018075Y011185D01*
X018138Y011262D02*
X015480Y011262D01*
X015456Y011339D02*
X018075Y011339D01*
X018075Y011416D02*
X015379Y011416D01*
X015223Y011416D02*
X012645Y011416D01*
X012645Y011473D02*
X012540Y011578D01*
X012392Y011578D01*
X012287Y011473D01*
X012287Y011325D01*
X012392Y011220D01*
X012540Y011220D01*
X012645Y011325D01*
X012645Y011473D01*
X012624Y011494D02*
X018095Y011494D01*
X018075Y011571D02*
X013363Y011571D01*
X013393Y011601D02*
X013288Y011496D01*
X013140Y011496D01*
X013035Y011601D01*
X013035Y011749D01*
X013140Y011854D01*
X013288Y011854D01*
X013393Y011749D01*
X013393Y011601D01*
X013393Y011648D02*
X018075Y011648D01*
X018091Y011725D02*
X013393Y011725D01*
X013339Y011803D02*
X016810Y011803D01*
X016776Y011837D02*
X016880Y011732D01*
X017028Y011732D01*
X017133Y011837D01*
X017133Y011985D01*
X017028Y012090D01*
X016880Y012090D01*
X016776Y011985D01*
X016776Y011837D01*
X016776Y011880D02*
X005877Y011880D01*
X005913Y011916D02*
X005808Y011811D01*
X005660Y011811D01*
X005555Y011916D01*
X005555Y011991D01*
X005532Y011969D01*
X005384Y011969D01*
X005280Y012073D01*
X005280Y012221D01*
X005384Y012326D01*
X005532Y012326D01*
X005637Y012221D01*
X005637Y012146D01*
X005660Y012169D01*
X005808Y012169D01*
X005913Y012064D01*
X005913Y011916D01*
X005913Y011957D02*
X008270Y011957D01*
X008298Y011929D02*
X008446Y011929D01*
X008550Y012034D01*
X008550Y012126D01*
X008603Y012126D01*
X008708Y012231D01*
X008708Y012379D01*
X008603Y012483D01*
X008590Y012483D01*
X008590Y012576D01*
X008485Y012680D01*
X008354Y012680D01*
X008354Y012694D01*
X008249Y012798D01*
X008101Y012798D01*
X007996Y012694D01*
X007996Y012546D01*
X008101Y012441D01*
X008232Y012441D01*
X008232Y012428D01*
X008337Y012323D01*
X008350Y012323D01*
X008350Y012287D01*
X008298Y012287D01*
X008193Y012182D01*
X008193Y012034D01*
X008298Y011929D01*
X008193Y012034D02*
X005913Y012034D01*
X005865Y012112D02*
X008193Y012112D01*
X008200Y012189D02*
X005637Y012189D01*
X005592Y012266D02*
X008277Y012266D01*
X008316Y012343D02*
X003679Y012343D01*
X003708Y012421D02*
X008239Y012421D01*
X008044Y012498D02*
X003708Y012498D01*
X003685Y012575D02*
X007996Y012575D01*
X007996Y012652D02*
X005340Y012652D01*
X005340Y012730D02*
X008032Y012730D01*
X008318Y012730D02*
X015161Y012730D01*
X015161Y012664D02*
X015266Y012559D01*
X015414Y012559D01*
X015519Y012664D01*
X015519Y012812D01*
X015414Y012917D01*
X015266Y012917D01*
X015161Y012812D01*
X015161Y012664D01*
X015173Y012652D02*
X008513Y012652D01*
X008590Y012575D02*
X015250Y012575D01*
X015430Y012575D02*
X017760Y012575D01*
X017760Y012546D02*
X017865Y012441D01*
X018013Y012441D01*
X018117Y012546D01*
X018117Y012694D01*
X018013Y012798D01*
X017865Y012798D01*
X017760Y012694D01*
X017760Y012546D01*
X017808Y012498D02*
X016108Y012498D01*
X016149Y012458D02*
X016044Y012562D01*
X015896Y012562D01*
X015791Y012458D01*
X015791Y012309D01*
X015896Y012205D01*
X016044Y012205D01*
X016149Y012309D01*
X016149Y012458D01*
X016149Y012421D02*
X016817Y012421D01*
X016776Y012379D02*
X016880Y012483D01*
X017028Y012483D01*
X017133Y012379D01*
X017133Y012231D01*
X017028Y012126D01*
X016880Y012126D01*
X016776Y012231D01*
X016776Y012379D01*
X016776Y012343D02*
X016149Y012343D01*
X016106Y012266D02*
X016776Y012266D01*
X016817Y012189D02*
X008666Y012189D01*
X008708Y012266D02*
X015835Y012266D01*
X015791Y012343D02*
X008708Y012343D01*
X008666Y012421D02*
X015791Y012421D01*
X015832Y012498D02*
X008590Y012498D01*
X008550Y012112D02*
X020131Y012112D01*
X020148Y012129D02*
X020043Y012024D01*
X020043Y011876D01*
X020148Y011772D01*
X020296Y011772D01*
X020401Y011876D01*
X020401Y012024D01*
X020296Y012129D01*
X020148Y012129D01*
X020053Y012034D02*
X019643Y012034D01*
X019692Y011985D02*
X019587Y012090D01*
X019439Y012090D01*
X019335Y011985D01*
X019335Y011837D01*
X019439Y011732D01*
X019587Y011732D01*
X019692Y011837D01*
X019692Y011985D01*
X019692Y011957D02*
X020043Y011957D01*
X020043Y011880D02*
X019692Y011880D01*
X019658Y011803D02*
X020117Y011803D01*
X020327Y011803D02*
X026593Y011803D01*
X026579Y011788D02*
X026579Y011640D01*
X026623Y011596D01*
X026539Y011513D01*
X026539Y011365D01*
X026583Y011320D01*
X026500Y011237D01*
X026500Y011089D01*
X026605Y010984D01*
X026753Y010984D01*
X026857Y011089D01*
X026857Y011237D01*
X026813Y011281D01*
X026897Y011365D01*
X026897Y011513D01*
X026853Y011557D01*
X026936Y011640D01*
X026936Y011788D01*
X026832Y011893D01*
X026683Y011893D01*
X026579Y011788D01*
X026579Y011725D02*
X018416Y011725D01*
X018432Y011648D02*
X026579Y011648D01*
X026598Y011571D02*
X018432Y011571D01*
X018412Y011494D02*
X026539Y011494D01*
X026539Y011416D02*
X018432Y011416D01*
X018432Y011339D02*
X020264Y011339D01*
X020266Y011342D02*
X020161Y011237D01*
X020161Y011089D01*
X020266Y010984D01*
X020414Y010984D01*
X020519Y011089D01*
X020519Y011237D01*
X020414Y011342D01*
X020266Y011342D01*
X020186Y011262D02*
X018369Y011262D01*
X018432Y011185D02*
X020161Y011185D01*
X020161Y011108D02*
X019231Y011108D01*
X019194Y011145D02*
X019046Y011145D01*
X018941Y011040D01*
X018941Y010892D01*
X019046Y010787D01*
X019194Y010787D01*
X019298Y010892D01*
X019298Y011040D01*
X019194Y011145D01*
X019298Y011030D02*
X020220Y011030D01*
X020460Y011030D02*
X026559Y011030D01*
X026500Y011108D02*
X020519Y011108D01*
X020519Y011185D02*
X026500Y011185D01*
X026525Y011262D02*
X020494Y011262D01*
X020417Y011339D02*
X026565Y011339D01*
X026833Y011262D02*
X031115Y011262D01*
X031106Y011253D02*
X031106Y011073D01*
X031234Y010945D01*
X031415Y010945D01*
X031543Y011073D01*
X031543Y011253D01*
X031415Y011381D01*
X031234Y011381D01*
X031106Y011253D01*
X031106Y011185D02*
X026857Y011185D01*
X026857Y011108D02*
X031106Y011108D01*
X031149Y011030D02*
X026799Y011030D01*
X027117Y010712D02*
X027012Y010607D01*
X027012Y010459D01*
X027117Y010354D01*
X027265Y010354D01*
X027369Y010459D01*
X027369Y010607D01*
X027265Y010712D01*
X027117Y010712D01*
X027049Y010644D02*
X018511Y010644D01*
X018511Y010686D02*
X018406Y010791D01*
X018258Y010791D01*
X018154Y010686D01*
X018154Y010538D01*
X018258Y010433D01*
X018406Y010433D01*
X018511Y010538D01*
X018511Y010686D01*
X018476Y010721D02*
X030713Y010721D01*
X030713Y010679D02*
X030840Y010551D01*
X031021Y010551D01*
X031149Y010679D01*
X031149Y010860D01*
X031021Y010987D01*
X030840Y010987D01*
X030713Y010860D01*
X030713Y010679D01*
X030747Y010644D02*
X027332Y010644D01*
X027369Y010567D02*
X030825Y010567D01*
X031037Y010567D02*
X031612Y010567D01*
X031628Y010551D02*
X031808Y010551D01*
X031936Y010679D01*
X031936Y010860D01*
X031808Y010987D01*
X031628Y010987D01*
X031500Y010860D01*
X031500Y010679D01*
X031628Y010551D01*
X031535Y010644D02*
X031114Y010644D01*
X031149Y010721D02*
X031500Y010721D01*
X031500Y010799D02*
X031149Y010799D01*
X031133Y010876D02*
X031516Y010876D01*
X031593Y010953D02*
X031423Y010953D01*
X031500Y011030D02*
X031936Y011030D01*
X031894Y011073D02*
X032021Y010945D01*
X032202Y010945D01*
X032330Y011073D01*
X032330Y011253D01*
X032202Y011381D01*
X032021Y011381D01*
X031894Y011253D01*
X031894Y011073D01*
X031894Y011108D02*
X031543Y011108D01*
X031543Y011185D02*
X031894Y011185D01*
X031902Y011262D02*
X031534Y011262D01*
X031457Y011339D02*
X031627Y011339D01*
X031628Y011339D02*
X031808Y011339D01*
X031936Y011466D01*
X031936Y011647D01*
X031808Y011775D01*
X031628Y011775D01*
X031500Y011647D01*
X031500Y011466D01*
X031628Y011339D01*
X031550Y011416D02*
X031099Y011416D01*
X031149Y011466D02*
X031021Y011339D01*
X030840Y011339D01*
X026872Y011339D01*
X026897Y011416D02*
X030762Y011416D01*
X030713Y011466D02*
X030840Y011339D01*
X030713Y011466D02*
X030713Y011647D01*
X030840Y011775D01*
X031021Y011775D01*
X031149Y011647D01*
X031149Y011466D01*
X031149Y011494D02*
X031500Y011494D01*
X031500Y011571D02*
X031149Y011571D01*
X031148Y011648D02*
X031501Y011648D01*
X031578Y011725D02*
X031070Y011725D01*
X031164Y011803D02*
X027394Y011803D01*
X027409Y011788D02*
X027304Y011893D01*
X027156Y011893D01*
X027051Y011788D01*
X027051Y011640D01*
X027156Y011535D01*
X027304Y011535D01*
X027409Y011640D01*
X027409Y011788D01*
X027409Y011725D02*
X030791Y011725D01*
X030714Y011648D02*
X027409Y011648D01*
X027339Y011571D02*
X030713Y011571D01*
X030713Y011494D02*
X026897Y011494D01*
X026867Y011571D02*
X027120Y011571D01*
X027051Y011648D02*
X026936Y011648D01*
X026936Y011725D02*
X027051Y011725D01*
X027066Y011803D02*
X026922Y011803D01*
X026920Y011811D02*
X027068Y011811D01*
X027172Y011916D01*
X027172Y012064D01*
X027068Y012169D01*
X026920Y012169D01*
X026815Y012064D01*
X026815Y011916D01*
X026920Y011811D01*
X026851Y011880D02*
X026845Y011880D01*
X026815Y011957D02*
X020401Y011957D01*
X020401Y011880D02*
X026670Y011880D01*
X026815Y012034D02*
X021425Y012034D01*
X021398Y012008D02*
X021503Y012113D01*
X021503Y012261D01*
X021498Y012265D01*
X021582Y012349D01*
X021582Y012497D01*
X021477Y012602D01*
X021385Y012602D01*
X021385Y012654D01*
X021280Y012759D01*
X021132Y012759D01*
X021049Y012676D01*
X020965Y012759D01*
X020817Y012759D01*
X020713Y012654D01*
X020713Y012506D01*
X020817Y012402D01*
X020965Y012402D01*
X021049Y012485D01*
X021132Y012402D01*
X021224Y012402D01*
X021224Y012349D01*
X021229Y012344D01*
X021146Y012261D01*
X021146Y012113D01*
X021250Y012008D01*
X021398Y012008D01*
X021502Y012112D02*
X021973Y012112D01*
X021933Y012152D02*
X022038Y012047D01*
X022186Y012047D01*
X022291Y012152D01*
X022291Y012300D01*
X022207Y012383D01*
X022212Y012388D01*
X022212Y012480D01*
X022343Y012480D01*
X022448Y012585D01*
X022448Y012598D01*
X022540Y012598D01*
X022645Y012703D01*
X022645Y012851D01*
X022540Y012956D01*
X022392Y012956D01*
X022287Y012851D01*
X022287Y012838D01*
X022195Y012838D01*
X022091Y012733D01*
X022091Y012641D01*
X021959Y012641D01*
X021854Y012536D01*
X021854Y012388D01*
X021938Y012305D01*
X021933Y012300D01*
X021933Y012152D01*
X021933Y012189D02*
X021503Y012189D01*
X021499Y012266D02*
X021933Y012266D01*
X021899Y012343D02*
X021576Y012343D01*
X021582Y012421D02*
X021854Y012421D01*
X021854Y012498D02*
X021581Y012498D01*
X021504Y012575D02*
X021893Y012575D01*
X022091Y012652D02*
X021385Y012652D01*
X021310Y012730D02*
X022091Y012730D01*
X022107Y012795D02*
X021959Y012795D01*
X021854Y012900D01*
X021854Y013048D01*
X021959Y013153D01*
X022107Y013153D01*
X022212Y013048D01*
X022212Y012900D01*
X022107Y012795D01*
X022119Y012807D02*
X022164Y012807D01*
X022196Y012884D02*
X022320Y012884D01*
X022212Y012961D02*
X026698Y012961D01*
X026746Y012913D02*
X026917Y012913D01*
X026815Y012812D01*
X026815Y012664D01*
X026920Y012559D01*
X027068Y012559D01*
X027172Y012664D01*
X027172Y012812D01*
X027068Y012917D01*
X026930Y012917D01*
X027054Y013041D01*
X027054Y013222D01*
X027007Y013269D01*
X027054Y013317D01*
X027054Y013497D01*
X026927Y013625D01*
X026746Y013625D01*
X026618Y013497D01*
X026618Y013317D01*
X026666Y013269D01*
X026618Y013222D01*
X026618Y013041D01*
X026746Y012913D01*
X026815Y012807D02*
X022645Y012807D01*
X022645Y012730D02*
X026815Y012730D01*
X026826Y012652D02*
X022594Y012652D01*
X022438Y012575D02*
X026904Y012575D01*
X027084Y012575D02*
X035959Y012575D01*
X035959Y012498D02*
X032660Y012498D01*
X032724Y012434D02*
X032596Y012562D01*
X032415Y012562D01*
X032287Y012434D01*
X032287Y012254D01*
X032415Y012126D01*
X032596Y012126D01*
X032724Y012254D01*
X032724Y012434D01*
X032724Y012421D02*
X035959Y012421D01*
X035959Y012343D02*
X032724Y012343D01*
X032724Y012266D02*
X035959Y012266D01*
X035959Y012189D02*
X032659Y012189D01*
X032352Y012189D02*
X031871Y012189D01*
X031808Y012126D02*
X031936Y012254D01*
X031936Y012434D01*
X031808Y012562D01*
X031628Y012562D01*
X031500Y012434D01*
X031500Y012254D01*
X031628Y012126D01*
X031808Y012126D01*
X031894Y012041D02*
X031894Y011860D01*
X032021Y011732D01*
X032202Y011732D01*
X032330Y011860D01*
X032330Y012041D01*
X032202Y012169D01*
X032021Y012169D01*
X031894Y012041D01*
X031894Y012034D02*
X031543Y012034D01*
X031543Y012041D02*
X031415Y012169D01*
X031234Y012169D01*
X031106Y012041D01*
X031106Y011860D01*
X031234Y011732D01*
X031415Y011732D01*
X031543Y011860D01*
X031543Y012041D01*
X031543Y011957D02*
X031894Y011957D01*
X031894Y011880D02*
X031543Y011880D01*
X031485Y011803D02*
X031951Y011803D01*
X031858Y011725D02*
X032366Y011725D01*
X032415Y011775D02*
X032287Y011647D01*
X032287Y011466D01*
X032415Y011339D01*
X032596Y011339D01*
X032724Y011466D01*
X032724Y011647D01*
X032596Y011775D01*
X032415Y011775D01*
X032330Y011880D02*
X035959Y011880D01*
X035959Y011957D02*
X032330Y011957D01*
X032330Y012034D02*
X035959Y012034D01*
X035959Y012112D02*
X032259Y012112D01*
X032287Y012266D02*
X031936Y012266D01*
X031936Y012343D02*
X032287Y012343D01*
X032287Y012421D02*
X031936Y012421D01*
X031873Y012498D02*
X032351Y012498D01*
X031965Y012112D02*
X031472Y012112D01*
X031565Y012189D02*
X031084Y012189D01*
X031021Y012126D02*
X031149Y012254D01*
X031149Y012434D01*
X031021Y012562D01*
X030840Y012562D01*
X030713Y012434D01*
X030713Y012254D01*
X030840Y012126D01*
X031021Y012126D01*
X031106Y012034D02*
X027172Y012034D01*
X027172Y011957D02*
X031106Y011957D01*
X031106Y011880D02*
X027317Y011880D01*
X027143Y011880D02*
X027137Y011880D01*
X027125Y012112D02*
X031177Y012112D01*
X031149Y012266D02*
X031500Y012266D01*
X031500Y012343D02*
X031149Y012343D01*
X031149Y012421D02*
X031500Y012421D01*
X031563Y012498D02*
X031085Y012498D01*
X030776Y012498D02*
X022361Y012498D01*
X022212Y012421D02*
X026306Y012421D01*
X026264Y012379D02*
X026264Y012231D01*
X026368Y012126D01*
X026517Y012126D01*
X026621Y012231D01*
X026621Y012379D01*
X026517Y012483D01*
X026368Y012483D01*
X026264Y012379D01*
X026264Y012343D02*
X022247Y012343D01*
X022291Y012266D02*
X026264Y012266D01*
X026306Y012189D02*
X022291Y012189D01*
X022250Y012112D02*
X026863Y012112D01*
X026621Y012266D02*
X027394Y012266D01*
X027394Y012231D02*
X027499Y012126D01*
X027647Y012126D01*
X027702Y012181D01*
X027758Y012126D01*
X027906Y012126D01*
X028010Y012231D01*
X028010Y012379D01*
X027906Y012483D01*
X027758Y012483D01*
X027702Y012428D01*
X027647Y012483D01*
X027499Y012483D01*
X027394Y012379D01*
X027394Y012231D01*
X027436Y012189D02*
X026579Y012189D01*
X026621Y012343D02*
X027394Y012343D01*
X027436Y012421D02*
X026579Y012421D01*
X027161Y012652D02*
X035959Y012652D01*
X035959Y012730D02*
X027172Y012730D01*
X027172Y012807D02*
X035959Y012807D01*
X035959Y012884D02*
X027100Y012884D01*
X026974Y012961D02*
X035959Y012961D01*
X035959Y013039D02*
X027052Y013039D01*
X027054Y013116D02*
X027190Y013116D01*
X027195Y013110D02*
X027343Y013110D01*
X027448Y013215D01*
X027448Y013363D01*
X027384Y013427D01*
X027448Y013491D01*
X027448Y013634D01*
X027499Y013583D01*
X027647Y013583D01*
X027702Y013638D01*
X027758Y013583D01*
X027906Y013583D01*
X028010Y013687D01*
X028010Y013835D01*
X027906Y013940D01*
X027758Y013940D01*
X027702Y013885D01*
X027647Y013940D01*
X027499Y013940D01*
X027394Y013835D01*
X027394Y013692D01*
X027343Y013743D01*
X027195Y013743D01*
X027091Y013639D01*
X027091Y013491D01*
X027154Y013427D01*
X027091Y013363D01*
X027091Y013215D01*
X027195Y013110D01*
X027112Y013193D02*
X027054Y013193D01*
X027091Y013270D02*
X027008Y013270D01*
X027054Y013347D02*
X027091Y013347D01*
X027054Y013425D02*
X027152Y013425D01*
X027091Y013502D02*
X027050Y013502D01*
X027091Y013579D02*
X026973Y013579D01*
X027108Y013656D02*
X022233Y013656D01*
X022186Y013704D02*
X022038Y013704D01*
X021933Y013599D01*
X021933Y013451D01*
X022038Y013346D01*
X022186Y013346D01*
X022291Y013451D01*
X022291Y013599D01*
X022186Y013704D01*
X022291Y013579D02*
X026700Y013579D01*
X026623Y013502D02*
X022291Y013502D01*
X022353Y013468D02*
X022248Y013363D01*
X022248Y013215D01*
X022353Y013110D01*
X022501Y013110D01*
X022606Y013215D01*
X022606Y013363D01*
X022501Y013468D01*
X022353Y013468D01*
X022310Y013425D02*
X022264Y013425D01*
X022248Y013347D02*
X022187Y013347D01*
X022248Y013270D02*
X021320Y013270D01*
X021320Y013271D02*
X021172Y013271D01*
X021067Y013166D01*
X021067Y013018D01*
X021172Y012913D01*
X021320Y012913D01*
X021424Y013018D01*
X021424Y013166D01*
X021320Y013271D01*
X021398Y013193D02*
X022270Y013193D01*
X022347Y013116D02*
X022144Y013116D01*
X022212Y013039D02*
X026621Y013039D01*
X026618Y013116D02*
X022506Y013116D01*
X022584Y013193D02*
X026618Y013193D01*
X026665Y013270D02*
X022606Y013270D01*
X022606Y013347D02*
X026618Y013347D01*
X026618Y013425D02*
X022544Y013425D01*
X022037Y013347D02*
X019905Y013347D01*
X019902Y013350D02*
X019754Y013350D01*
X019650Y013245D01*
X019650Y013097D01*
X019754Y012992D01*
X019902Y012992D01*
X020007Y013097D01*
X020007Y013245D01*
X019902Y013350D01*
X019982Y013270D02*
X021171Y013270D01*
X021094Y013193D02*
X020007Y013193D01*
X020007Y013116D02*
X021067Y013116D01*
X021067Y013039D02*
X019949Y013039D01*
X019863Y012956D02*
X019715Y012956D01*
X019610Y012851D01*
X019610Y012703D01*
X019715Y012598D01*
X019863Y012598D01*
X019968Y012703D01*
X019968Y012851D01*
X019863Y012956D01*
X019935Y012884D02*
X021870Y012884D01*
X021854Y012961D02*
X021368Y012961D01*
X021424Y013039D02*
X021854Y013039D01*
X021922Y013116D02*
X021424Y013116D01*
X021124Y012961D02*
X017299Y012961D01*
X017265Y012995D02*
X017117Y012995D01*
X017012Y012891D01*
X017012Y012742D01*
X017117Y012638D01*
X017265Y012638D01*
X017369Y012742D01*
X017369Y012891D01*
X017265Y012995D01*
X017369Y012884D02*
X019643Y012884D01*
X019610Y012807D02*
X017369Y012807D01*
X017356Y012730D02*
X017796Y012730D01*
X017760Y012652D02*
X017279Y012652D01*
X017102Y012652D02*
X015507Y012652D01*
X015519Y012730D02*
X017025Y012730D01*
X017012Y012807D02*
X015519Y012807D01*
X015447Y012884D02*
X017012Y012884D01*
X017083Y012961D02*
X005340Y012961D01*
X005340Y012884D02*
X015234Y012884D01*
X015161Y012807D02*
X005340Y012807D01*
X005340Y013039D02*
X009534Y013039D01*
X009581Y012992D02*
X009453Y013120D01*
X009453Y013301D01*
X009581Y013428D01*
X009761Y013428D01*
X009889Y013301D01*
X009889Y013120D01*
X009761Y012992D01*
X009581Y012992D01*
X009457Y013116D02*
X005340Y013116D01*
X005340Y013193D02*
X009453Y013193D01*
X009453Y013270D02*
X005340Y013270D01*
X005340Y013347D02*
X006446Y013347D01*
X006447Y013346D02*
X006595Y013346D01*
X006700Y013451D01*
X006700Y013599D01*
X006595Y013704D01*
X006447Y013704D01*
X006343Y013599D01*
X006343Y013451D01*
X006447Y013346D01*
X006369Y013425D02*
X005340Y013425D01*
X005340Y013502D02*
X006343Y013502D01*
X006343Y013579D02*
X005340Y013579D01*
X005340Y013656D02*
X006400Y013656D01*
X006643Y013656D02*
X021990Y013656D01*
X021933Y013579D02*
X006700Y013579D01*
X006700Y013502D02*
X021933Y013502D01*
X021960Y013425D02*
X009765Y013425D01*
X009842Y013347D02*
X019752Y013347D01*
X019675Y013270D02*
X009889Y013270D01*
X009889Y013193D02*
X019650Y013193D01*
X019650Y013116D02*
X009885Y013116D01*
X009808Y013039D02*
X019708Y013039D01*
X019968Y012807D02*
X021948Y012807D01*
X022612Y012884D02*
X026887Y012884D01*
X027349Y013116D02*
X035959Y013116D01*
X035959Y013193D02*
X027426Y013193D01*
X027448Y013270D02*
X035959Y013270D01*
X035959Y013347D02*
X027448Y013347D01*
X027386Y013425D02*
X035959Y013425D01*
X035959Y013502D02*
X027448Y013502D01*
X027448Y013579D02*
X035959Y013579D01*
X035959Y013656D02*
X027980Y013656D01*
X028010Y013734D02*
X035959Y013734D01*
X035959Y013811D02*
X028010Y013811D01*
X027958Y013888D02*
X035959Y013888D01*
X035959Y013965D02*
X021149Y013965D01*
X021149Y013993D02*
X021044Y014098D01*
X020896Y014098D01*
X020791Y013993D01*
X020791Y013845D01*
X020896Y013740D01*
X021044Y013740D01*
X021149Y013845D01*
X021149Y013993D01*
X021099Y014043D02*
X035959Y014043D01*
X035959Y014120D02*
X015943Y014120D01*
X015952Y014111D02*
X015847Y014216D01*
X015699Y014216D01*
X015594Y014111D01*
X015594Y013963D01*
X015699Y013858D01*
X015847Y013858D01*
X015952Y013963D01*
X015952Y014111D01*
X015952Y014043D02*
X020841Y014043D01*
X020791Y013965D02*
X015952Y013965D01*
X015877Y013888D02*
X020791Y013888D01*
X020825Y013811D02*
X008905Y013811D01*
X008905Y013805D02*
X008800Y013701D01*
X008652Y013701D01*
X008547Y013805D01*
X008547Y013954D01*
X008652Y014058D01*
X008800Y014058D01*
X008905Y013954D01*
X008905Y013805D01*
X008905Y013888D02*
X015669Y013888D01*
X015594Y013965D02*
X008893Y013965D01*
X008816Y014043D02*
X015594Y014043D01*
X015603Y014120D02*
X005340Y014120D01*
X005340Y014197D02*
X015681Y014197D01*
X015866Y014197D02*
X035959Y014197D01*
X035959Y014274D02*
X005340Y014274D01*
X005340Y014352D02*
X009222Y014352D01*
X009177Y014396D02*
X009282Y014291D01*
X009430Y014291D01*
X009535Y014396D01*
X009535Y014488D01*
X009587Y014488D01*
X009692Y014593D01*
X009692Y014741D01*
X009587Y014846D01*
X009439Y014846D01*
X009335Y014741D01*
X009335Y014649D01*
X009282Y014649D01*
X009177Y014544D01*
X009177Y014396D01*
X009177Y014429D02*
X005340Y014429D01*
X005340Y014506D02*
X009177Y014506D01*
X009216Y014583D02*
X005340Y014583D01*
X005340Y014661D02*
X009335Y014661D01*
X009335Y014738D02*
X005340Y014738D01*
X005340Y014815D02*
X009409Y014815D01*
X009618Y014815D02*
X012834Y014815D01*
X012799Y014780D02*
X012799Y014632D01*
X012904Y014528D01*
X013052Y014528D01*
X013157Y014632D01*
X013157Y014780D01*
X013052Y014885D01*
X012904Y014885D01*
X012799Y014780D01*
X012799Y014738D02*
X009692Y014738D01*
X009692Y014661D02*
X012799Y014661D01*
X012848Y014583D02*
X009683Y014583D01*
X009605Y014506D02*
X013870Y014506D01*
X013888Y014488D02*
X014036Y014488D01*
X014138Y014590D01*
X014138Y014514D01*
X014242Y014409D01*
X014391Y014409D01*
X014395Y014414D01*
X014479Y014331D01*
X014627Y014331D01*
X014731Y014435D01*
X014731Y014449D01*
X014824Y014449D01*
X014928Y014554D01*
X014928Y014702D01*
X014824Y014806D01*
X014676Y014806D01*
X014571Y014702D01*
X014571Y014688D01*
X014479Y014688D01*
X014474Y014683D01*
X014391Y014767D01*
X014276Y014767D01*
X014298Y014790D01*
X014298Y014938D01*
X014194Y015043D01*
X014046Y015043D01*
X013941Y014938D01*
X013941Y014846D01*
X013888Y014846D01*
X013783Y014741D01*
X013783Y014593D01*
X013888Y014488D01*
X013793Y014583D02*
X013108Y014583D01*
X013157Y014661D02*
X013783Y014661D01*
X013783Y014738D02*
X013157Y014738D01*
X013122Y014815D02*
X013858Y014815D01*
X013941Y014892D02*
X005340Y014892D01*
X005340Y014970D02*
X013973Y014970D01*
X014267Y014970D02*
X014627Y014970D01*
X014636Y014961D02*
X014784Y014961D01*
X014889Y015065D01*
X014889Y015213D01*
X014784Y015318D01*
X014692Y015318D01*
X014692Y015371D01*
X014687Y015376D01*
X014771Y015459D01*
X014771Y015607D01*
X014666Y015712D01*
X014518Y015712D01*
X014413Y015607D01*
X014413Y015459D01*
X014418Y015454D01*
X014335Y015371D01*
X014335Y015223D01*
X014439Y015118D01*
X014531Y015118D01*
X014531Y015065D01*
X014636Y014961D01*
X014550Y015047D02*
X005340Y015047D01*
X005340Y015124D02*
X014433Y015124D01*
X014356Y015201D02*
X005340Y015201D01*
X005340Y015278D02*
X014335Y015278D01*
X014335Y015356D02*
X010455Y015356D01*
X010414Y015315D02*
X010519Y015420D01*
X010519Y015568D01*
X010414Y015672D01*
X010266Y015672D01*
X010161Y015568D01*
X010161Y015420D01*
X010266Y015315D01*
X010414Y015315D01*
X010519Y015433D02*
X014397Y015433D01*
X014413Y015510D02*
X013641Y015510D01*
X013669Y015538D02*
X013564Y015433D01*
X013416Y015433D01*
X013311Y015538D01*
X013311Y015686D01*
X013416Y015791D01*
X013564Y015791D01*
X013669Y015686D01*
X013669Y015538D01*
X013669Y015587D02*
X014413Y015587D01*
X014471Y015665D02*
X013669Y015665D01*
X013612Y015742D02*
X016555Y015742D01*
X016500Y015797D02*
X016628Y015669D01*
X016808Y015669D01*
X016936Y015797D01*
X016936Y015978D01*
X016808Y016106D01*
X016628Y016106D01*
X016500Y015978D01*
X016500Y015797D01*
X016500Y015819D02*
X005340Y015819D01*
X005340Y015742D02*
X013367Y015742D01*
X013311Y015665D02*
X010422Y015665D01*
X010499Y015587D02*
X013311Y015587D01*
X013339Y015510D02*
X010519Y015510D01*
X010258Y015665D02*
X009871Y015665D01*
X009863Y015672D02*
X009715Y015672D01*
X009610Y015568D01*
X009610Y015420D01*
X009715Y015315D01*
X009863Y015315D01*
X009968Y015420D01*
X009968Y015568D01*
X009863Y015672D01*
X009948Y015587D02*
X010181Y015587D01*
X010161Y015510D02*
X009968Y015510D01*
X009968Y015433D02*
X010161Y015433D01*
X010225Y015356D02*
X009904Y015356D01*
X009674Y015356D02*
X005340Y015356D01*
X005340Y015433D02*
X009610Y015433D01*
X009610Y015510D02*
X005340Y015510D01*
X005340Y015587D02*
X009630Y015587D01*
X009707Y015665D02*
X005340Y015665D01*
X005340Y015896D02*
X016500Y015896D01*
X016500Y015974D02*
X005340Y015974D01*
X005340Y016051D02*
X016573Y016051D01*
X016863Y016051D02*
X020550Y016051D01*
X020604Y016106D02*
X020476Y015978D01*
X020476Y015797D01*
X020583Y015691D01*
X020476Y015584D01*
X020476Y015403D01*
X020604Y015276D01*
X020785Y015276D01*
X020891Y015382D01*
X020998Y015276D01*
X021179Y015276D01*
X021306Y015403D01*
X021306Y015584D01*
X021200Y015691D01*
X021306Y015797D01*
X021306Y015978D01*
X021179Y016106D01*
X020998Y016106D01*
X020891Y015999D01*
X020785Y016106D01*
X020604Y016106D01*
X020476Y015974D02*
X016936Y015974D01*
X016936Y015896D02*
X020476Y015896D01*
X020476Y015819D02*
X016936Y015819D01*
X016881Y015742D02*
X020532Y015742D01*
X020557Y015665D02*
X014713Y015665D01*
X014771Y015587D02*
X020480Y015587D01*
X020476Y015510D02*
X014771Y015510D01*
X014745Y015433D02*
X020476Y015433D01*
X020524Y015356D02*
X014692Y015356D01*
X014824Y015278D02*
X020601Y015278D01*
X020788Y015278D02*
X020995Y015278D01*
X020918Y015356D02*
X020865Y015356D01*
X021181Y015278D02*
X023357Y015278D01*
X023360Y015276D02*
X023541Y015276D01*
X023647Y015382D01*
X023754Y015276D01*
X023934Y015276D01*
X024062Y015403D01*
X024062Y015584D01*
X023956Y015691D01*
X024062Y015797D01*
X024062Y015978D01*
X023934Y016106D01*
X023754Y016106D01*
X023647Y015999D01*
X023562Y016084D01*
X023669Y016191D01*
X023669Y016371D01*
X023541Y016499D01*
X023360Y016499D01*
X023254Y016393D01*
X023147Y016499D01*
X022966Y016499D01*
X022839Y016371D01*
X022839Y016191D01*
X022945Y016084D01*
X022839Y015978D01*
X022839Y015797D01*
X022966Y015669D01*
X023147Y015669D01*
X023254Y015776D01*
X023339Y015691D01*
X023232Y015584D01*
X023232Y015403D01*
X023360Y015276D01*
X023280Y015356D02*
X021259Y015356D01*
X021306Y015433D02*
X023232Y015433D01*
X023232Y015510D02*
X021306Y015510D01*
X021303Y015587D02*
X023236Y015587D01*
X023313Y015665D02*
X021226Y015665D01*
X021251Y015742D02*
X022894Y015742D01*
X022839Y015819D02*
X021306Y015819D01*
X021306Y015896D02*
X022839Y015896D01*
X022839Y015974D02*
X021306Y015974D01*
X021233Y016051D02*
X022912Y016051D01*
X022901Y016128D02*
X005340Y016128D01*
X005340Y016205D02*
X022839Y016205D01*
X022839Y016283D02*
X009020Y016283D01*
X009062Y016325D02*
X008958Y016220D01*
X008809Y016220D01*
X008705Y016325D01*
X008705Y016473D01*
X008809Y016578D01*
X008958Y016578D01*
X009062Y016473D01*
X009062Y016325D01*
X009062Y016360D02*
X022839Y016360D01*
X022904Y016437D02*
X009062Y016437D01*
X009021Y016514D02*
X031176Y016514D01*
X031234Y016457D02*
X031415Y016457D01*
X031543Y016584D01*
X031543Y016765D01*
X031415Y016893D01*
X031234Y016893D01*
X031106Y016765D01*
X031106Y016584D01*
X031234Y016457D01*
X031149Y016371D02*
X031021Y016499D01*
X030840Y016499D01*
X030713Y016371D01*
X030713Y016191D01*
X030840Y016063D01*
X031021Y016063D01*
X031149Y016191D01*
X031149Y016371D01*
X031149Y016360D02*
X031500Y016360D01*
X031500Y016371D02*
X031500Y016191D01*
X031628Y016063D01*
X031808Y016063D01*
X031936Y016191D01*
X031936Y016371D01*
X031808Y016499D01*
X031628Y016499D01*
X031500Y016371D01*
X031500Y016283D02*
X031149Y016283D01*
X031149Y016205D02*
X031500Y016205D01*
X031563Y016128D02*
X031086Y016128D01*
X031179Y016051D02*
X023989Y016051D01*
X024062Y015974D02*
X031106Y015974D01*
X031106Y015978D02*
X031106Y015797D01*
X031234Y015669D01*
X031415Y015669D01*
X031543Y015797D01*
X031543Y015978D01*
X031415Y016106D01*
X031234Y016106D01*
X031106Y015978D01*
X031106Y015896D02*
X024062Y015896D01*
X024062Y015819D02*
X031106Y015819D01*
X031161Y015742D02*
X024007Y015742D01*
X023982Y015665D02*
X030793Y015665D01*
X030840Y015712D02*
X030713Y015584D01*
X030713Y015403D01*
X030840Y015276D01*
X031021Y015276D01*
X031149Y015403D01*
X031149Y015584D01*
X031021Y015712D01*
X030840Y015712D01*
X030716Y015587D02*
X024059Y015587D01*
X024062Y015510D02*
X030713Y015510D01*
X030713Y015433D02*
X024062Y015433D01*
X024015Y015356D02*
X030760Y015356D01*
X030837Y015278D02*
X023937Y015278D01*
X023751Y015278D02*
X023544Y015278D01*
X023621Y015356D02*
X023674Y015356D01*
X023287Y015742D02*
X023220Y015742D01*
X023595Y016051D02*
X023699Y016051D01*
X023606Y016128D02*
X030775Y016128D01*
X030713Y016205D02*
X023669Y016205D01*
X023669Y016283D02*
X030713Y016283D01*
X030713Y016360D02*
X023669Y016360D01*
X023603Y016437D02*
X030778Y016437D01*
X031083Y016437D02*
X031566Y016437D01*
X031472Y016514D02*
X031964Y016514D01*
X032021Y016457D02*
X032202Y016457D01*
X032330Y016584D01*
X032330Y016765D01*
X032202Y016893D01*
X032021Y016893D01*
X031894Y016765D01*
X031894Y016584D01*
X032021Y016457D01*
X031936Y016360D02*
X032287Y016360D01*
X032287Y016371D02*
X032287Y016191D01*
X032415Y016063D01*
X032596Y016063D01*
X032724Y016191D01*
X032724Y016371D01*
X032596Y016499D01*
X032415Y016499D01*
X032287Y016371D01*
X032287Y016283D02*
X031936Y016283D01*
X031936Y016205D02*
X032287Y016205D01*
X032350Y016128D02*
X031874Y016128D01*
X031967Y016051D02*
X031469Y016051D01*
X031543Y015974D02*
X031894Y015974D01*
X031894Y015978D02*
X031894Y015797D01*
X032021Y015669D01*
X032202Y015669D01*
X032330Y015797D01*
X032330Y015978D01*
X032202Y016106D01*
X032021Y016106D01*
X031894Y015978D01*
X031894Y015896D02*
X031543Y015896D01*
X031543Y015819D02*
X031894Y015819D01*
X031949Y015742D02*
X031487Y015742D01*
X031581Y015665D02*
X031068Y015665D01*
X031145Y015587D02*
X031503Y015587D01*
X031500Y015584D02*
X031500Y015403D01*
X031628Y015276D01*
X031808Y015276D01*
X031936Y015403D01*
X031936Y015584D01*
X031808Y015712D01*
X031628Y015712D01*
X031500Y015584D01*
X031500Y015510D02*
X031149Y015510D01*
X031149Y015433D02*
X031500Y015433D01*
X031548Y015356D02*
X031101Y015356D01*
X031024Y015278D02*
X031625Y015278D01*
X031811Y015278D02*
X032412Y015278D01*
X032415Y015276D02*
X032596Y015276D01*
X032724Y015403D01*
X032724Y015584D01*
X032596Y015712D01*
X032415Y015712D01*
X032287Y015584D01*
X032287Y015403D01*
X032415Y015276D01*
X032335Y015356D02*
X031889Y015356D01*
X031936Y015433D02*
X032287Y015433D01*
X032287Y015510D02*
X031936Y015510D01*
X031933Y015587D02*
X032291Y015587D01*
X032368Y015665D02*
X031856Y015665D01*
X032275Y015742D02*
X035959Y015742D01*
X035959Y015819D02*
X032330Y015819D01*
X032330Y015896D02*
X035959Y015896D01*
X035959Y015974D02*
X032330Y015974D01*
X032257Y016051D02*
X035959Y016051D01*
X035959Y016128D02*
X032661Y016128D01*
X032724Y016205D02*
X035959Y016205D01*
X035959Y016283D02*
X032724Y016283D01*
X032724Y016360D02*
X035959Y016360D01*
X035959Y016437D02*
X032658Y016437D01*
X032353Y016437D02*
X031871Y016437D01*
X031894Y016592D02*
X031543Y016592D01*
X031543Y016669D02*
X031894Y016669D01*
X031894Y016746D02*
X031543Y016746D01*
X031484Y016823D02*
X031952Y016823D01*
X031859Y016901D02*
X032365Y016901D01*
X032415Y016850D02*
X032596Y016850D01*
X032724Y016978D01*
X032724Y017159D01*
X032596Y017287D01*
X032415Y017287D01*
X032287Y017159D01*
X032287Y016978D01*
X032415Y016850D01*
X032330Y016746D02*
X035959Y016746D01*
X035959Y016669D02*
X032330Y016669D01*
X032330Y016592D02*
X035959Y016592D01*
X035959Y016514D02*
X032260Y016514D01*
X032272Y016823D02*
X035959Y016823D01*
X035959Y016901D02*
X032646Y016901D01*
X032723Y016978D02*
X035959Y016978D01*
X035959Y017055D02*
X032724Y017055D01*
X032724Y017132D02*
X035959Y017132D01*
X035959Y017209D02*
X032673Y017209D01*
X032338Y017209D02*
X031886Y017209D01*
X031936Y017159D02*
X031808Y017287D01*
X031628Y017287D01*
X031500Y017159D01*
X031500Y016978D01*
X031628Y016850D01*
X031808Y016850D01*
X031936Y016978D01*
X031936Y017159D01*
X031936Y017132D02*
X032287Y017132D01*
X032287Y017055D02*
X031936Y017055D01*
X031936Y016978D02*
X032288Y016978D01*
X031578Y016901D02*
X031071Y016901D01*
X031021Y016850D02*
X031149Y016978D01*
X031149Y017159D01*
X031021Y017287D01*
X030840Y017287D01*
X030713Y017159D01*
X030713Y016978D01*
X011723Y016978D01*
X011739Y016994D02*
X011635Y016890D01*
X011487Y016890D01*
X011382Y016994D01*
X011382Y017143D01*
X011487Y017247D01*
X011635Y017247D01*
X011739Y017143D01*
X011739Y016994D01*
X011739Y017055D02*
X030713Y017055D01*
X030713Y016978D02*
X030840Y016850D01*
X031021Y016850D01*
X031106Y016746D02*
X014771Y016746D01*
X014771Y016788D02*
X014666Y016893D01*
X014518Y016893D01*
X014413Y016788D01*
X014413Y016640D01*
X014518Y016535D01*
X014666Y016535D01*
X014771Y016640D01*
X014771Y016788D01*
X014736Y016823D02*
X031164Y016823D01*
X031148Y016978D02*
X031500Y016978D01*
X031500Y017055D02*
X031149Y017055D01*
X031149Y017132D02*
X031500Y017132D01*
X031551Y017209D02*
X031098Y017209D01*
X030763Y017209D02*
X011672Y017209D01*
X011739Y017132D02*
X030713Y017132D01*
X030790Y016901D02*
X012375Y016901D01*
X012409Y016867D02*
X012304Y016972D01*
X012156Y016972D01*
X012051Y016867D01*
X012051Y016719D01*
X012156Y016614D01*
X012304Y016614D01*
X012409Y016719D01*
X012409Y016867D01*
X012409Y016823D02*
X014448Y016823D01*
X014413Y016746D02*
X012409Y016746D01*
X012359Y016669D02*
X014413Y016669D01*
X014462Y016592D02*
X008462Y016592D01*
X008446Y016575D02*
X008550Y016680D01*
X008550Y016828D01*
X008446Y016932D01*
X008298Y016932D01*
X008193Y016828D01*
X008193Y016680D01*
X008298Y016575D01*
X008446Y016575D01*
X008540Y016669D02*
X012101Y016669D01*
X012051Y016746D02*
X008550Y016746D01*
X008550Y016823D02*
X012051Y016823D01*
X012085Y016901D02*
X011645Y016901D01*
X011476Y016901D02*
X008477Y016901D01*
X008446Y016969D02*
X008550Y017073D01*
X008550Y017221D01*
X008446Y017326D01*
X008298Y017326D01*
X008193Y017221D01*
X008193Y017073D01*
X008298Y016969D01*
X008446Y016969D01*
X008455Y016978D02*
X011399Y016978D01*
X011382Y017055D02*
X008532Y017055D01*
X008550Y017132D02*
X011382Y017132D01*
X011449Y017209D02*
X008550Y017209D01*
X008485Y017287D02*
X008964Y017287D01*
X008967Y017283D02*
X008862Y017388D01*
X008862Y017536D01*
X008967Y017641D01*
X009115Y017641D01*
X009218Y017538D01*
X009261Y017580D01*
X009256Y017585D01*
X009256Y017733D01*
X009361Y017838D01*
X009509Y017838D01*
X009613Y017733D01*
X009613Y017585D01*
X009530Y017502D01*
X009535Y017497D01*
X009535Y017349D01*
X009430Y017244D01*
X009282Y017244D01*
X009179Y017347D01*
X009115Y017283D01*
X008967Y017283D01*
X008886Y017364D02*
X005340Y017364D01*
X005340Y017441D02*
X008862Y017441D01*
X008862Y017518D02*
X005340Y017518D01*
X005340Y017596D02*
X008922Y017596D01*
X008888Y017677D02*
X009036Y017677D01*
X009141Y017782D01*
X009141Y017930D01*
X009036Y018035D01*
X008888Y018035D01*
X008783Y017930D01*
X008783Y017782D01*
X008888Y017677D01*
X008815Y017750D02*
X005340Y017750D01*
X005340Y017673D02*
X009256Y017673D01*
X009256Y017596D02*
X009160Y017596D01*
X009109Y017750D02*
X009273Y017750D01*
X009350Y017827D02*
X009141Y017827D01*
X009141Y017905D02*
X010490Y017905D01*
X010476Y017891D02*
X010476Y017742D01*
X010581Y017638D01*
X010729Y017638D01*
X010834Y017742D01*
X010834Y017891D01*
X010729Y017995D01*
X010581Y017995D01*
X010476Y017891D01*
X010476Y017827D02*
X009519Y017827D01*
X009596Y017750D02*
X010476Y017750D01*
X010546Y017673D02*
X009613Y017673D01*
X009613Y017596D02*
X035959Y017596D01*
X035959Y017673D02*
X023576Y017673D01*
X023541Y017638D02*
X023669Y017766D01*
X023669Y017946D01*
X023562Y018053D01*
X023669Y018159D01*
X023669Y018340D01*
X023541Y018468D01*
X023360Y018468D01*
X023254Y018361D01*
X023147Y018468D01*
X022966Y018468D01*
X022860Y018361D01*
X022753Y018468D01*
X022573Y018468D01*
X022445Y018340D01*
X022445Y018159D01*
X022551Y018053D01*
X022445Y017946D01*
X022445Y017766D01*
X022573Y017638D01*
X022753Y017638D01*
X022860Y017744D01*
X022966Y017638D01*
X023147Y017638D01*
X023254Y017744D01*
X023360Y017638D01*
X023541Y017638D01*
X023653Y017750D02*
X035959Y017750D01*
X035959Y017827D02*
X023669Y017827D01*
X023669Y017905D02*
X035959Y017905D01*
X035959Y017982D02*
X023633Y017982D01*
X023568Y018059D02*
X035959Y018059D01*
X035959Y018136D02*
X023646Y018136D01*
X023669Y018214D02*
X035959Y018214D01*
X035959Y018291D02*
X023669Y018291D01*
X023640Y018368D02*
X035959Y018368D01*
X035959Y018445D02*
X023563Y018445D01*
X023338Y018445D02*
X023169Y018445D01*
X023247Y018368D02*
X023260Y018368D01*
X022944Y018445D02*
X022776Y018445D01*
X022853Y018368D02*
X022867Y018368D01*
X022550Y018445D02*
X005340Y018445D01*
X005340Y018368D02*
X012332Y018368D01*
X012287Y018324D02*
X012392Y018428D01*
X012540Y018428D01*
X012645Y018324D01*
X012645Y018176D01*
X012540Y018071D01*
X012392Y018071D01*
X012287Y018176D01*
X012287Y018324D01*
X012287Y018291D02*
X005340Y018291D01*
X005340Y018214D02*
X012287Y018214D01*
X012327Y018136D02*
X005340Y018136D01*
X005340Y018059D02*
X022545Y018059D01*
X022481Y017982D02*
X012120Y017982D01*
X012172Y017930D02*
X012068Y018035D01*
X011920Y018035D01*
X011815Y017930D01*
X011815Y017782D01*
X011920Y017677D01*
X012068Y017677D01*
X012172Y017782D01*
X012172Y017930D01*
X012172Y017905D02*
X022445Y017905D01*
X022445Y017827D02*
X012172Y017827D01*
X012141Y017750D02*
X022460Y017750D01*
X022538Y017673D02*
X010764Y017673D01*
X010834Y017750D02*
X011847Y017750D01*
X011815Y017827D02*
X010834Y017827D01*
X010820Y017905D02*
X011815Y017905D01*
X011867Y017982D02*
X010743Y017982D01*
X010568Y017982D02*
X009089Y017982D01*
X008835Y017982D02*
X005340Y017982D01*
X005340Y017905D02*
X008783Y017905D01*
X008783Y017827D02*
X005340Y017827D01*
X005340Y017287D02*
X008258Y017287D01*
X008193Y017209D02*
X005340Y017209D01*
X005340Y017132D02*
X008193Y017132D01*
X008211Y017055D02*
X005340Y017055D01*
X005340Y016978D02*
X008288Y016978D01*
X008266Y016901D02*
X005340Y016901D01*
X005340Y016823D02*
X008193Y016823D01*
X008193Y016746D02*
X005340Y016746D01*
X005340Y016669D02*
X008204Y016669D01*
X008281Y016592D02*
X005340Y016592D01*
X005340Y016514D02*
X008746Y016514D01*
X008705Y016437D02*
X005340Y016437D01*
X005340Y016360D02*
X008705Y016360D01*
X008747Y016283D02*
X005340Y016283D01*
X005340Y018523D02*
X035959Y018523D01*
X035959Y018600D02*
X005340Y018600D01*
X005340Y018677D02*
X035959Y018677D01*
X035959Y018754D02*
X011137Y018754D01*
X011123Y018740D02*
X011228Y018845D01*
X011228Y018993D01*
X011183Y019037D01*
X011228Y019081D01*
X011228Y019229D01*
X011123Y019334D01*
X010975Y019334D01*
X010870Y019229D01*
X010870Y019081D01*
X010914Y019037D01*
X010870Y018993D01*
X010870Y018845D01*
X010975Y018740D01*
X011123Y018740D01*
X011214Y018832D02*
X035959Y018832D01*
X035959Y018909D02*
X011228Y018909D01*
X011228Y018986D02*
X035959Y018986D01*
X035959Y019063D02*
X011210Y019063D01*
X011228Y019141D02*
X035959Y019141D01*
X035959Y019218D02*
X026020Y019218D01*
X026061Y019235D02*
X026234Y019407D01*
X026327Y019633D01*
X026327Y019878D01*
X026234Y020104D01*
X026061Y020276D01*
X025835Y020370D01*
X025591Y020370D01*
X025365Y020276D01*
X025192Y020104D01*
X025098Y019878D01*
X025098Y019633D01*
X025192Y019407D01*
X025365Y019235D01*
X025591Y019141D01*
X025835Y019141D01*
X026061Y019235D01*
X026121Y019295D02*
X035959Y019295D01*
X035959Y019372D02*
X026198Y019372D01*
X026251Y019449D02*
X035959Y019449D01*
X035959Y019527D02*
X026283Y019527D01*
X026315Y019604D02*
X035959Y019604D01*
X035959Y019681D02*
X026327Y019681D01*
X026327Y019758D02*
X035959Y019758D01*
X035959Y019836D02*
X026327Y019836D01*
X026313Y019913D02*
X035959Y019913D01*
X035959Y019990D02*
X026281Y019990D01*
X026249Y020067D02*
X035959Y020067D01*
X035959Y020145D02*
X026193Y020145D01*
X026115Y020222D02*
X035959Y020222D01*
X035959Y020299D02*
X026006Y020299D01*
X025986Y020454D02*
X029572Y020454D01*
X029512Y020513D02*
X029651Y020374D01*
X029848Y020374D01*
X029987Y020513D01*
X029987Y020710D01*
X029848Y020850D01*
X029651Y020850D01*
X029512Y020710D01*
X029512Y020513D01*
X029512Y020531D02*
X026107Y020531D01*
X026061Y020485D02*
X026234Y020657D01*
X026327Y020883D01*
X026327Y021128D01*
X026234Y021354D01*
X026061Y021526D01*
X025835Y021620D01*
X025591Y021620D01*
X025365Y021526D01*
X025192Y021354D01*
X025098Y021128D01*
X025098Y020883D01*
X025192Y020657D01*
X025365Y020485D01*
X025591Y020391D01*
X025835Y020391D01*
X026061Y020485D01*
X026184Y020608D02*
X029512Y020608D01*
X029512Y020685D02*
X026245Y020685D01*
X026277Y020763D02*
X029564Y020763D01*
X029641Y020840D02*
X026309Y020840D01*
X026327Y020917D02*
X029906Y020917D01*
X029906Y020907D02*
X030045Y020768D01*
X030242Y020768D01*
X030381Y020907D01*
X030381Y021104D01*
X030242Y021243D01*
X030045Y021243D01*
X029906Y021104D01*
X029906Y020907D01*
X029858Y020840D02*
X029973Y020840D01*
X029935Y020763D02*
X031926Y020763D01*
X031874Y020710D02*
X031874Y020513D01*
X032013Y020374D01*
X032210Y020374D01*
X032350Y020513D01*
X032350Y020710D01*
X032210Y020850D01*
X032013Y020850D01*
X031874Y020710D01*
X031874Y020685D02*
X029987Y020685D01*
X029987Y020608D02*
X031874Y020608D01*
X031874Y020531D02*
X029987Y020531D01*
X029928Y020454D02*
X031934Y020454D01*
X032011Y020376D02*
X029850Y020376D01*
X029649Y020376D02*
X012324Y020376D01*
X012304Y020397D02*
X012156Y020397D01*
X012051Y020292D01*
X012051Y020144D01*
X012095Y020100D01*
X012051Y020056D01*
X012051Y019908D01*
X012156Y019803D01*
X012304Y019803D01*
X012409Y019908D01*
X012409Y020056D01*
X012365Y020100D01*
X012409Y020144D01*
X012409Y020292D01*
X012304Y020397D01*
X012402Y020299D02*
X022470Y020299D01*
X022415Y020276D02*
X022242Y020104D01*
X022148Y019878D01*
X022148Y019633D01*
X022242Y019407D01*
X022415Y019235D01*
X022641Y019141D01*
X022885Y019141D01*
X023111Y019235D01*
X023284Y019407D01*
X023377Y019633D01*
X023377Y019878D01*
X023284Y020104D01*
X023111Y020276D01*
X022885Y020370D01*
X022641Y020370D01*
X022415Y020276D01*
X022360Y020222D02*
X012409Y020222D01*
X012409Y020145D02*
X022283Y020145D01*
X022227Y020067D02*
X012397Y020067D01*
X012409Y019990D02*
X022195Y019990D01*
X022163Y019913D02*
X012409Y019913D01*
X012336Y019836D02*
X012658Y019836D01*
X012668Y019846D02*
X012563Y019741D01*
X012563Y019593D01*
X012668Y019488D01*
X012816Y019488D01*
X012920Y019593D01*
X012920Y019741D01*
X012816Y019846D01*
X012668Y019846D01*
X012580Y019758D02*
X009320Y019758D01*
X009338Y019741D02*
X009233Y019846D01*
X009085Y019846D01*
X008980Y019741D01*
X008980Y019593D01*
X009085Y019488D01*
X009233Y019488D01*
X009338Y019593D01*
X009338Y019741D01*
X009338Y019681D02*
X012563Y019681D01*
X012563Y019604D02*
X009338Y019604D01*
X009272Y019527D02*
X012629Y019527D01*
X012854Y019527D02*
X022193Y019527D01*
X022161Y019604D02*
X012920Y019604D01*
X012920Y019681D02*
X022148Y019681D01*
X022148Y019758D02*
X012903Y019758D01*
X012826Y019836D02*
X022148Y019836D01*
X022225Y019449D02*
X007763Y019449D01*
X007763Y019396D02*
X007763Y019544D01*
X007719Y019588D01*
X007802Y019672D01*
X007802Y019820D01*
X007698Y019924D01*
X007550Y019924D01*
X007445Y019820D01*
X007445Y019672D01*
X007489Y019628D01*
X007406Y019544D01*
X007406Y019396D01*
X007510Y019291D01*
X007658Y019291D01*
X007763Y019396D01*
X007739Y019372D02*
X008454Y019372D01*
X008455Y019373D02*
X008350Y019269D01*
X008350Y019120D01*
X008455Y019016D01*
X008603Y019016D01*
X008708Y019120D01*
X008708Y019269D01*
X008603Y019373D01*
X008455Y019373D01*
X008377Y019295D02*
X007662Y019295D01*
X007507Y019295D02*
X005340Y019295D01*
X005340Y019372D02*
X007429Y019372D01*
X007406Y019449D02*
X005340Y019449D01*
X005340Y019527D02*
X007406Y019527D01*
X007465Y019604D02*
X005340Y019604D01*
X005340Y019681D02*
X007445Y019681D01*
X007445Y019758D02*
X000705Y019758D01*
X000705Y019836D02*
X007461Y019836D01*
X007538Y019913D02*
X000705Y019913D01*
X000705Y019990D02*
X003386Y019990D01*
X003416Y019961D02*
X003564Y019961D01*
X003669Y020065D01*
X003669Y020213D01*
X003564Y020318D01*
X003416Y020318D01*
X003311Y020213D01*
X003311Y020065D01*
X003416Y019961D01*
X003311Y020067D02*
X000705Y020067D01*
X000705Y020145D02*
X003311Y020145D01*
X003319Y020222D02*
X000705Y020222D01*
X000705Y020299D02*
X003397Y020299D01*
X003583Y020299D02*
X004886Y020299D01*
X004886Y020262D02*
X004991Y020157D01*
X005139Y020157D01*
X005243Y020262D01*
X005243Y020410D01*
X005139Y020515D01*
X004991Y020515D01*
X004886Y020410D01*
X004886Y020262D01*
X004926Y020222D02*
X003660Y020222D01*
X003669Y020145D02*
X005752Y020145D01*
X005752Y020105D02*
X005857Y020000D01*
X006005Y020000D01*
X006109Y020105D01*
X006109Y020141D01*
X006172Y020079D01*
X006320Y020079D01*
X006424Y020183D01*
X006424Y020332D01*
X006320Y020436D01*
X006172Y020436D01*
X006067Y020332D01*
X006067Y020295D01*
X006005Y020357D01*
X005857Y020357D01*
X005752Y020253D01*
X005752Y020105D01*
X005789Y020067D02*
X003669Y020067D01*
X003593Y019990D02*
X012051Y019990D01*
X012051Y019913D02*
X007709Y019913D01*
X007786Y019836D02*
X009075Y019836D01*
X008998Y019758D02*
X007802Y019758D01*
X007802Y019681D02*
X008980Y019681D01*
X008980Y019604D02*
X007735Y019604D01*
X007763Y019527D02*
X009046Y019527D01*
X008681Y019295D02*
X010936Y019295D01*
X010870Y019218D02*
X008708Y019218D01*
X008708Y019141D02*
X010870Y019141D01*
X010888Y019063D02*
X008651Y019063D01*
X008408Y019063D02*
X005340Y019063D01*
X005340Y018986D02*
X010870Y018986D01*
X010870Y018909D02*
X005340Y018909D01*
X005340Y018832D02*
X010883Y018832D01*
X010961Y018754D02*
X005340Y018754D01*
X005340Y019141D02*
X008350Y019141D01*
X008350Y019218D02*
X005340Y019218D01*
X006072Y020067D02*
X009726Y020067D01*
X009754Y020039D02*
X009902Y020039D01*
X010007Y020144D01*
X010007Y020292D01*
X009902Y020397D01*
X009754Y020397D01*
X009650Y020292D01*
X009650Y020144D01*
X009754Y020039D01*
X009650Y020145D02*
X006897Y020145D01*
X006871Y020118D02*
X006976Y020223D01*
X006976Y020371D01*
X006871Y020476D01*
X006723Y020476D01*
X006618Y020371D01*
X006618Y020223D01*
X006723Y020118D01*
X006871Y020118D01*
X006975Y020222D02*
X009650Y020222D01*
X009657Y020299D02*
X006976Y020299D01*
X006970Y020376D02*
X009734Y020376D01*
X009923Y020376D02*
X012135Y020376D01*
X012058Y020299D02*
X010000Y020299D01*
X010007Y020222D02*
X012051Y020222D01*
X012051Y020145D02*
X010007Y020145D01*
X009930Y020067D02*
X012063Y020067D01*
X012123Y019836D02*
X009243Y019836D01*
X008604Y019372D02*
X022277Y019372D01*
X022354Y019295D02*
X011162Y019295D01*
X011228Y019218D02*
X022456Y019218D01*
X023070Y019218D02*
X025406Y019218D01*
X025304Y019295D02*
X023171Y019295D01*
X023248Y019372D02*
X025227Y019372D01*
X025175Y019449D02*
X023301Y019449D01*
X023333Y019527D02*
X025143Y019527D01*
X025111Y019604D02*
X023365Y019604D01*
X023377Y019681D02*
X025098Y019681D01*
X025098Y019758D02*
X023377Y019758D01*
X023377Y019836D02*
X025098Y019836D01*
X025113Y019913D02*
X023363Y019913D01*
X023331Y019990D02*
X025145Y019990D01*
X025177Y020067D02*
X023299Y020067D01*
X023243Y020145D02*
X025233Y020145D01*
X025310Y020222D02*
X023165Y020222D01*
X023056Y020299D02*
X025420Y020299D01*
X025440Y020454D02*
X023036Y020454D01*
X023111Y020485D02*
X023284Y020657D01*
X023377Y020883D01*
X023377Y021128D01*
X023284Y021354D01*
X023111Y021526D01*
X022885Y021620D01*
X022641Y021620D01*
X022415Y021526D01*
X022242Y021354D01*
X022148Y021128D01*
X022148Y020883D01*
X022242Y020657D01*
X022415Y020485D01*
X022641Y020391D01*
X022885Y020391D01*
X023111Y020485D01*
X023157Y020531D02*
X025319Y020531D01*
X025241Y020608D02*
X023234Y020608D01*
X023295Y020685D02*
X025180Y020685D01*
X025148Y020763D02*
X023327Y020763D01*
X023359Y020840D02*
X025116Y020840D01*
X025098Y020917D02*
X023377Y020917D01*
X023377Y020994D02*
X025098Y020994D01*
X025098Y021072D02*
X023377Y021072D01*
X023368Y021149D02*
X025107Y021149D01*
X025139Y021226D02*
X023336Y021226D01*
X023304Y021303D02*
X025171Y021303D01*
X025219Y021380D02*
X023257Y021380D01*
X023179Y021458D02*
X025296Y021458D01*
X025386Y021535D02*
X023090Y021535D01*
X022904Y021612D02*
X025572Y021612D01*
X025854Y021612D02*
X029626Y021612D01*
X029651Y021637D02*
X029512Y021498D01*
X029512Y021301D01*
X029651Y021161D01*
X029848Y021161D01*
X029987Y021301D01*
X029987Y021498D01*
X029848Y021637D01*
X029651Y021637D01*
X029549Y021535D02*
X026040Y021535D01*
X026129Y021458D02*
X029512Y021458D01*
X029512Y021380D02*
X026207Y021380D01*
X026254Y021303D02*
X029512Y021303D01*
X029587Y021226D02*
X026286Y021226D01*
X026318Y021149D02*
X029950Y021149D01*
X029913Y021226D02*
X030028Y021226D01*
X029987Y021303D02*
X031874Y021303D01*
X031874Y021301D02*
X032013Y021161D01*
X032210Y021161D01*
X032350Y021301D01*
X032350Y021498D01*
X032210Y021637D01*
X032013Y021637D01*
X031874Y021498D01*
X031874Y021301D01*
X031874Y021380D02*
X029987Y021380D01*
X029987Y021458D02*
X031874Y021458D01*
X031911Y021535D02*
X029950Y021535D01*
X029988Y021612D02*
X029873Y021612D01*
X029910Y021689D02*
X012839Y021689D01*
X012881Y021647D02*
X012753Y021775D01*
X012573Y021775D01*
X012445Y021647D01*
X012445Y021466D01*
X012573Y021339D01*
X012753Y021339D01*
X012881Y021466D01*
X012881Y021647D01*
X012881Y021612D02*
X022622Y021612D01*
X022436Y021535D02*
X012881Y021535D01*
X012872Y021458D02*
X022346Y021458D01*
X022269Y021380D02*
X012795Y021380D01*
X012753Y021145D02*
X012573Y021145D01*
X012445Y021017D01*
X012445Y020836D01*
X012573Y020709D01*
X012753Y020709D01*
X012881Y020836D01*
X012881Y021017D01*
X012753Y021145D01*
X012827Y021072D02*
X022148Y021072D01*
X022157Y021149D02*
X012485Y021149D01*
X012487Y021151D02*
X012360Y021024D01*
X012179Y021024D01*
X012051Y021151D01*
X012051Y021332D01*
X012179Y021460D01*
X012360Y021460D01*
X012487Y021332D01*
X012487Y021151D01*
X012487Y021226D02*
X022189Y021226D01*
X022221Y021303D02*
X012487Y021303D01*
X012531Y021380D02*
X012439Y021380D01*
X012454Y021458D02*
X012362Y021458D01*
X012445Y021535D02*
X012094Y021535D01*
X012094Y021506D02*
X012094Y021686D01*
X011966Y021814D01*
X011785Y021814D01*
X011657Y021686D01*
X011657Y021506D01*
X011785Y021378D01*
X011966Y021378D01*
X012094Y021506D01*
X012046Y021458D02*
X012177Y021458D01*
X012100Y021380D02*
X011968Y021380D01*
X012051Y021303D02*
X000705Y021303D01*
X000705Y021226D02*
X012051Y021226D01*
X012054Y021149D02*
X005568Y021149D01*
X005598Y021119D02*
X005493Y021224D01*
X005345Y021224D01*
X005240Y021119D01*
X005240Y020971D01*
X005345Y020866D01*
X005493Y020866D01*
X005598Y020971D01*
X005598Y021119D01*
X005598Y021072D02*
X011712Y021072D01*
X011657Y021017D02*
X011657Y020836D01*
X011785Y020709D01*
X011966Y020709D01*
X012094Y020836D01*
X012094Y021017D01*
X011966Y021145D01*
X011785Y021145D01*
X011657Y021017D01*
X011657Y020994D02*
X005598Y020994D01*
X005544Y020917D02*
X011657Y020917D01*
X011657Y020840D02*
X003196Y020840D01*
X003196Y020774D02*
X003091Y020669D01*
X002943Y020669D01*
X002839Y020774D01*
X002839Y020922D01*
X002943Y021027D01*
X003091Y021027D01*
X003196Y020922D01*
X003196Y020774D01*
X003185Y020763D02*
X011731Y020763D01*
X012020Y020763D02*
X012519Y020763D01*
X012445Y020840D02*
X012094Y020840D01*
X012094Y020917D02*
X012445Y020917D01*
X012445Y020994D02*
X012094Y020994D01*
X012131Y021072D02*
X012039Y021072D01*
X012408Y021072D02*
X012499Y021072D01*
X012881Y020994D02*
X022148Y020994D01*
X022148Y020917D02*
X012881Y020917D01*
X012881Y020840D02*
X022166Y020840D01*
X022198Y020763D02*
X012807Y020763D01*
X012445Y021612D02*
X012094Y021612D01*
X012091Y021689D02*
X012487Y021689D01*
X012433Y021767D02*
X012565Y021767D01*
X012487Y021821D02*
X012360Y021693D01*
X012179Y021693D01*
X012051Y021821D01*
X012051Y022001D01*
X012179Y022129D01*
X012360Y022129D01*
X012487Y022001D01*
X012487Y021821D01*
X012487Y021844D02*
X016303Y021844D01*
X016303Y021837D02*
X016408Y021732D01*
X016556Y021732D01*
X016661Y021837D01*
X016661Y021985D01*
X016556Y022090D01*
X016408Y022090D01*
X016303Y021985D01*
X016303Y021837D01*
X016303Y021921D02*
X012487Y021921D01*
X012487Y021998D02*
X016316Y021998D01*
X016394Y022076D02*
X012782Y022076D01*
X012753Y022047D02*
X012881Y022175D01*
X012881Y022356D01*
X012753Y022483D01*
X012573Y022483D01*
X012445Y022356D01*
X012445Y022175D01*
X012573Y022047D01*
X012753Y022047D01*
X012859Y022153D02*
X035959Y022153D01*
X035959Y022230D02*
X012881Y022230D01*
X012881Y022307D02*
X035959Y022307D01*
X035959Y022385D02*
X012852Y022385D01*
X012775Y022462D02*
X035959Y022462D01*
X035959Y022539D02*
X012487Y022539D01*
X012487Y022490D02*
X012360Y022362D01*
X012179Y022362D01*
X012051Y022490D01*
X012051Y022671D01*
X012179Y022798D01*
X012360Y022798D01*
X012487Y022671D01*
X012487Y022490D01*
X012459Y022462D02*
X012551Y022462D01*
X012474Y022385D02*
X012382Y022385D01*
X012445Y022307D02*
X012094Y022307D01*
X012094Y022356D02*
X011966Y022483D01*
X011785Y022483D01*
X011657Y022356D01*
X011657Y022175D01*
X011785Y022047D01*
X011966Y022047D01*
X012094Y022175D01*
X012094Y022356D01*
X012065Y022385D02*
X012157Y022385D01*
X012079Y022462D02*
X011988Y022462D01*
X012051Y022539D02*
X000705Y022539D01*
X000705Y022462D02*
X011764Y022462D01*
X011686Y022385D02*
X005509Y022385D01*
X005493Y022401D02*
X005345Y022401D01*
X005240Y022296D01*
X005240Y022148D01*
X005280Y022108D01*
X005240Y022068D01*
X005240Y021919D01*
X005345Y021815D01*
X005493Y021815D01*
X005598Y021919D01*
X005598Y022068D01*
X005557Y022108D01*
X005598Y022148D01*
X005598Y022296D01*
X005493Y022401D01*
X005587Y022307D02*
X011657Y022307D01*
X011657Y022230D02*
X005598Y022230D01*
X005598Y022153D02*
X011680Y022153D01*
X011757Y022076D02*
X005590Y022076D01*
X005598Y021998D02*
X012051Y021998D01*
X012051Y021921D02*
X005598Y021921D01*
X005522Y021844D02*
X012051Y021844D01*
X012013Y021767D02*
X012105Y021767D01*
X012125Y022076D02*
X011994Y022076D01*
X012072Y022153D02*
X012467Y022153D01*
X012445Y022230D02*
X012094Y022230D01*
X012413Y022076D02*
X012544Y022076D01*
X012761Y021767D02*
X016373Y021767D01*
X016590Y021767D02*
X029906Y021767D01*
X029906Y021694D02*
X030045Y021555D01*
X030242Y021555D01*
X030381Y021694D01*
X030381Y021891D01*
X030242Y022031D01*
X030045Y022031D01*
X029906Y021891D01*
X029906Y021694D01*
X029906Y021844D02*
X016661Y021844D01*
X016661Y021921D02*
X029935Y021921D01*
X030013Y021998D02*
X016647Y021998D01*
X016570Y022076D02*
X035959Y022076D01*
X035959Y021998D02*
X034999Y021998D01*
X034966Y022031D02*
X034769Y022031D01*
X034630Y021891D01*
X034630Y021694D01*
X034769Y021555D01*
X034966Y021555D01*
X035106Y021694D01*
X035106Y021891D01*
X034966Y022031D01*
X035076Y021921D02*
X035959Y021921D01*
X035959Y021844D02*
X035106Y021844D01*
X035106Y021767D02*
X035959Y021767D01*
X035959Y021689D02*
X035101Y021689D01*
X035163Y021637D02*
X035024Y021498D01*
X035024Y021301D01*
X035163Y021161D01*
X035360Y021161D01*
X035499Y021301D01*
X035499Y021498D01*
X035360Y021637D01*
X035163Y021637D01*
X035138Y021612D02*
X035023Y021612D01*
X035061Y021535D02*
X033100Y021535D01*
X033137Y021498D02*
X032998Y021637D01*
X032801Y021637D01*
X032661Y021498D01*
X032661Y021301D01*
X032801Y021161D01*
X032998Y021161D01*
X033137Y021301D01*
X033137Y021498D01*
X033137Y021458D02*
X035024Y021458D01*
X035024Y021380D02*
X033137Y021380D01*
X033137Y021303D02*
X035024Y021303D01*
X034966Y021243D02*
X034769Y021243D01*
X034630Y021104D01*
X034630Y020907D01*
X034769Y020768D01*
X034966Y020768D01*
X035106Y020907D01*
X035106Y021104D01*
X034966Y021243D01*
X034984Y021226D02*
X035098Y021226D01*
X035061Y021149D02*
X035959Y021149D01*
X035959Y021226D02*
X035424Y021226D01*
X035499Y021303D02*
X035959Y021303D01*
X035959Y021380D02*
X035499Y021380D01*
X035499Y021458D02*
X035959Y021458D01*
X035959Y021535D02*
X035462Y021535D01*
X035385Y021612D02*
X035959Y021612D01*
X035959Y021072D02*
X035106Y021072D01*
X035106Y020994D02*
X035959Y020994D01*
X035959Y020917D02*
X035106Y020917D01*
X035163Y020850D02*
X035024Y020710D01*
X035024Y020513D01*
X035163Y020374D01*
X035360Y020374D01*
X035499Y020513D01*
X035499Y020710D01*
X035360Y020850D01*
X035163Y020850D01*
X035153Y020840D02*
X035038Y020840D01*
X035076Y020763D02*
X033085Y020763D01*
X033137Y020710D02*
X032998Y020850D01*
X032801Y020850D01*
X032661Y020710D01*
X032661Y020513D01*
X032801Y020374D01*
X032998Y020374D01*
X033137Y020513D01*
X033137Y020710D01*
X033137Y020685D02*
X035024Y020685D01*
X035024Y020608D02*
X033137Y020608D01*
X033137Y020531D02*
X035024Y020531D01*
X035083Y020454D02*
X033077Y020454D01*
X033000Y020376D02*
X035161Y020376D01*
X035362Y020376D02*
X035959Y020376D01*
X035959Y020454D02*
X035439Y020454D01*
X035499Y020531D02*
X035959Y020531D01*
X035959Y020608D02*
X035499Y020608D01*
X035499Y020685D02*
X035959Y020685D01*
X035959Y020763D02*
X035447Y020763D01*
X035370Y020840D02*
X035959Y020840D01*
X034752Y021226D02*
X033409Y021226D01*
X033391Y021243D02*
X033531Y021104D01*
X033531Y020907D01*
X033391Y020768D01*
X033194Y020768D01*
X033055Y020907D01*
X033055Y021104D01*
X033194Y021243D01*
X033391Y021243D01*
X033486Y021149D02*
X034675Y021149D01*
X034630Y021072D02*
X033531Y021072D01*
X033531Y020994D02*
X034630Y020994D01*
X034630Y020917D02*
X033531Y020917D01*
X033463Y020840D02*
X034697Y020840D01*
X034712Y021612D02*
X033448Y021612D01*
X033391Y021555D02*
X033531Y021694D01*
X033531Y021891D01*
X033391Y022031D01*
X033194Y022031D01*
X033055Y021891D01*
X033055Y021694D01*
X033194Y021555D01*
X033391Y021555D01*
X033526Y021689D02*
X034635Y021689D01*
X034630Y021767D02*
X033531Y021767D01*
X033531Y021844D02*
X034630Y021844D01*
X034660Y021921D02*
X033501Y021921D01*
X033424Y021998D02*
X034737Y021998D01*
X035959Y022616D02*
X012487Y022616D01*
X012464Y022694D02*
X012556Y022694D01*
X012573Y022677D02*
X012753Y022677D01*
X012881Y022805D01*
X012881Y022986D01*
X012753Y023113D01*
X012573Y023113D01*
X012445Y022986D01*
X012445Y022805D01*
X012573Y022677D01*
X012479Y022771D02*
X012387Y022771D01*
X012445Y022848D02*
X012094Y022848D01*
X012094Y022805D02*
X011966Y022677D01*
X011785Y022677D01*
X011657Y022805D01*
X011657Y022986D01*
X011785Y023113D01*
X011966Y023113D01*
X012094Y022986D01*
X012094Y022805D01*
X012060Y022771D02*
X012151Y022771D01*
X012074Y022694D02*
X011982Y022694D01*
X012051Y022616D02*
X000705Y022616D01*
X000705Y022694D02*
X011769Y022694D01*
X011692Y022771D02*
X000705Y022771D01*
X000705Y022848D02*
X011657Y022848D01*
X011657Y022925D02*
X000705Y022925D01*
X000705Y023003D02*
X011674Y023003D01*
X011752Y023080D02*
X000705Y023080D01*
X000705Y023157D02*
X017704Y023157D01*
X017672Y023189D02*
X017780Y023081D01*
X017921Y023022D01*
X018074Y023022D01*
X018216Y023081D01*
X018324Y023189D01*
X018382Y023331D01*
X018382Y023484D01*
X018324Y023625D01*
X018216Y023733D01*
X018074Y023792D01*
X017921Y023792D01*
X017780Y023733D01*
X017672Y023625D01*
X017613Y023484D01*
X017613Y023331D01*
X017672Y023189D01*
X017653Y023234D02*
X000705Y023234D01*
X000705Y023311D02*
X017621Y023311D01*
X017613Y023389D02*
X000705Y023389D01*
X000705Y023466D02*
X017613Y023466D01*
X017638Y023543D02*
X000705Y023543D01*
X000705Y023620D02*
X017670Y023620D01*
X017744Y023698D02*
X000705Y023698D01*
X000705Y023775D02*
X017881Y023775D01*
X018115Y023775D02*
X035959Y023775D01*
X035959Y023852D02*
X000705Y023852D01*
X000705Y023929D02*
X035959Y023929D01*
X035959Y024007D02*
X000705Y024007D01*
X000705Y024084D02*
X007285Y024084D01*
X007313Y024055D02*
X007209Y024160D01*
X007209Y024308D01*
X007313Y024413D01*
X007461Y024413D01*
X007566Y024308D01*
X007566Y024160D01*
X007461Y024055D01*
X007313Y024055D01*
X007209Y024161D02*
X000705Y024161D01*
X000705Y024238D02*
X007209Y024238D01*
X007216Y024316D02*
X000705Y024316D01*
X000705Y024393D02*
X007294Y024393D01*
X007481Y024393D02*
X035959Y024393D01*
X035959Y024470D02*
X000705Y024470D01*
X000705Y024547D02*
X006557Y024547D01*
X006597Y024531D02*
X006761Y024531D01*
X006912Y024593D01*
X007028Y024709D01*
X007091Y024861D01*
X007091Y025024D01*
X007028Y025176D01*
X006912Y025292D01*
X006805Y025336D01*
X006912Y025381D01*
X007028Y025497D01*
X007091Y025648D01*
X007091Y025812D01*
X007028Y025963D01*
X006912Y026079D01*
X006761Y026142D01*
X006597Y026142D01*
X006445Y026079D01*
X006330Y025963D01*
X006267Y025812D01*
X006267Y025648D01*
X006330Y025497D01*
X006445Y025381D01*
X006553Y025336D01*
X006445Y025292D01*
X006330Y025176D01*
X006267Y025024D01*
X006267Y024861D01*
X006330Y024709D01*
X006445Y024593D01*
X006597Y024531D01*
X006801Y024547D02*
X007541Y024547D01*
X007581Y024531D02*
X007745Y024531D01*
X007896Y024593D01*
X008012Y024709D01*
X008075Y024861D01*
X008075Y025024D01*
X008012Y025176D01*
X007896Y025292D01*
X007789Y025336D01*
X007896Y025381D01*
X008012Y025497D01*
X008075Y025648D01*
X008075Y025812D01*
X008012Y025963D01*
X007896Y026079D01*
X007745Y026142D01*
X007581Y026142D01*
X007430Y026079D01*
X007314Y025963D01*
X007251Y025812D01*
X007251Y025648D01*
X007314Y025497D01*
X007430Y025381D01*
X007537Y025336D01*
X007430Y025292D01*
X007314Y025176D01*
X007251Y025024D01*
X007251Y024861D01*
X007314Y024709D01*
X007430Y024593D01*
X007581Y024531D01*
X007785Y024547D02*
X008525Y024547D01*
X008565Y024531D02*
X008729Y024531D01*
X008881Y024593D01*
X008996Y024709D01*
X009059Y024861D01*
X009059Y025024D01*
X008996Y025176D01*
X008881Y025292D01*
X008773Y025336D01*
X008881Y025381D01*
X008996Y025497D01*
X009059Y025648D01*
X009059Y025812D01*
X008996Y025963D01*
X008881Y026079D01*
X008729Y026142D01*
X008565Y026142D01*
X008414Y026079D01*
X008298Y025963D01*
X008235Y025812D01*
X008235Y025648D01*
X008298Y025497D01*
X008414Y025381D01*
X008521Y025336D01*
X008414Y025292D01*
X008298Y025176D01*
X008235Y025024D01*
X008235Y024861D01*
X008298Y024709D01*
X008414Y024593D01*
X008565Y024531D01*
X008383Y024625D02*
X007928Y024625D01*
X008005Y024702D02*
X008305Y024702D01*
X008269Y024779D02*
X008041Y024779D01*
X008073Y024856D02*
X008237Y024856D01*
X008235Y024934D02*
X008075Y024934D01*
X008075Y025011D02*
X008235Y025011D01*
X008262Y025088D02*
X008049Y025088D01*
X008017Y025165D02*
X008294Y025165D01*
X008365Y025243D02*
X007945Y025243D01*
X007829Y025320D02*
X008482Y025320D01*
X008398Y025397D02*
X007913Y025397D01*
X007990Y025474D02*
X008320Y025474D01*
X008275Y025551D02*
X008035Y025551D01*
X008067Y025629D02*
X008243Y025629D01*
X008235Y025706D02*
X008075Y025706D01*
X008075Y025783D02*
X008235Y025783D01*
X008255Y025860D02*
X008055Y025860D01*
X008023Y025938D02*
X008287Y025938D01*
X008350Y026015D02*
X007960Y026015D01*
X007865Y026092D02*
X008445Y026092D01*
X008849Y026092D02*
X009134Y026092D01*
X009098Y026056D02*
X009098Y025876D01*
X009226Y025748D01*
X009407Y025748D01*
X009535Y025876D01*
X009535Y026056D01*
X009428Y026163D01*
X009535Y026269D01*
X009535Y026450D01*
X009428Y026557D01*
X009535Y026663D01*
X009535Y026844D01*
X009407Y026972D01*
X009226Y026972D01*
X009098Y026844D01*
X009098Y026663D01*
X009205Y026557D01*
X009098Y026450D01*
X009098Y026269D01*
X009205Y026163D01*
X009098Y026056D01*
X009098Y026015D02*
X008945Y026015D01*
X009007Y025938D02*
X009098Y025938D01*
X009114Y025860D02*
X009039Y025860D01*
X009059Y025783D02*
X009191Y025783D01*
X009059Y025706D02*
X016412Y025706D01*
X016402Y025702D02*
X016294Y025593D01*
X016235Y025452D01*
X016235Y025299D01*
X016294Y025158D01*
X016402Y025050D01*
X016543Y024991D01*
X016696Y024991D01*
X016838Y025050D01*
X016946Y025158D01*
X017004Y025299D01*
X017004Y025452D01*
X016946Y025593D01*
X016838Y025702D01*
X016696Y025760D01*
X016543Y025760D01*
X016402Y025702D01*
X016329Y025629D02*
X009051Y025629D01*
X009019Y025551D02*
X016276Y025551D01*
X016244Y025474D02*
X008974Y025474D01*
X008897Y025397D02*
X016235Y025397D01*
X016235Y025320D02*
X008813Y025320D01*
X008930Y025243D02*
X016258Y025243D01*
X016290Y025165D02*
X009001Y025165D01*
X009033Y025088D02*
X016363Y025088D01*
X016495Y025011D02*
X009059Y025011D01*
X009059Y024934D02*
X035959Y024934D01*
X035959Y025011D02*
X016744Y025011D01*
X016876Y025088D02*
X035959Y025088D01*
X035959Y025165D02*
X016949Y025165D01*
X016981Y025243D02*
X035959Y025243D01*
X035959Y025320D02*
X034833Y025320D01*
X034972Y025378D02*
X035220Y025625D01*
X035354Y025949D01*
X035354Y026299D01*
X035220Y026622D01*
X034972Y026870D01*
X034649Y027004D01*
X034299Y027004D01*
X033976Y026870D01*
X033728Y026622D01*
X033594Y026299D01*
X033594Y025949D01*
X033728Y025625D01*
X033976Y025378D01*
X034299Y025244D01*
X034649Y025244D01*
X034972Y025378D01*
X034992Y025397D02*
X035959Y025397D01*
X035959Y025474D02*
X035069Y025474D01*
X035146Y025551D02*
X035959Y025551D01*
X035959Y025629D02*
X035221Y025629D01*
X035253Y025706D02*
X035959Y025706D01*
X035959Y025783D02*
X035285Y025783D01*
X035317Y025860D02*
X035959Y025860D01*
X035959Y025938D02*
X035349Y025938D01*
X035354Y026015D02*
X035959Y026015D01*
X035959Y026092D02*
X035354Y026092D01*
X035354Y026169D02*
X035956Y026169D01*
X035951Y026247D02*
X035354Y026247D01*
X035343Y026324D02*
X035945Y026324D01*
X035924Y026401D02*
X035311Y026401D01*
X035280Y026478D02*
X035904Y026478D01*
X035883Y026556D02*
X035248Y026556D01*
X035209Y026633D02*
X035862Y026633D01*
X035836Y026710D02*
X035132Y026710D01*
X035055Y026787D02*
X035791Y026787D01*
X035747Y026865D02*
X034977Y026865D01*
X034798Y026942D02*
X035702Y026942D01*
X035658Y027019D02*
X027844Y027019D01*
X027758Y027055D02*
X027408Y027055D01*
X027085Y026921D01*
X026837Y026674D01*
X026703Y026350D01*
X026703Y026001D01*
X026837Y025677D01*
X027085Y025430D01*
X027408Y025296D01*
X027758Y025296D01*
X028081Y025430D01*
X028328Y025677D01*
X028462Y026001D01*
X028462Y026350D01*
X028328Y026674D01*
X028081Y026921D01*
X027758Y027055D01*
X028031Y026942D02*
X034150Y026942D01*
X033971Y026865D02*
X028137Y026865D01*
X028215Y026787D02*
X033893Y026787D01*
X033816Y026710D02*
X028292Y026710D01*
X028345Y026633D02*
X033739Y026633D01*
X033701Y026556D02*
X028377Y026556D01*
X028409Y026478D02*
X033669Y026478D01*
X033637Y026401D02*
X028441Y026401D01*
X028462Y026324D02*
X033605Y026324D01*
X033594Y026247D02*
X028462Y026247D01*
X028462Y026169D02*
X033594Y026169D01*
X033594Y026092D02*
X028462Y026092D01*
X028462Y026015D02*
X033594Y026015D01*
X033599Y025938D02*
X028436Y025938D01*
X028404Y025860D02*
X033631Y025860D01*
X033663Y025783D02*
X028372Y025783D01*
X028340Y025706D02*
X033695Y025706D01*
X033727Y025629D02*
X028280Y025629D01*
X028202Y025551D02*
X033802Y025551D01*
X033879Y025474D02*
X028125Y025474D01*
X028001Y025397D02*
X033956Y025397D01*
X034115Y025320D02*
X027815Y025320D01*
X027351Y025320D02*
X021125Y025320D01*
X021068Y025296D02*
X021391Y025430D01*
X021638Y025677D01*
X021772Y026001D01*
X021772Y026350D01*
X021638Y026674D01*
X021391Y026921D01*
X021068Y027055D01*
X020718Y027055D01*
X020395Y026921D01*
X020147Y026674D01*
X020013Y026350D01*
X020013Y026001D01*
X020147Y025677D01*
X020395Y025430D01*
X020718Y025296D01*
X021068Y025296D01*
X021311Y025397D02*
X027164Y025397D01*
X027040Y025474D02*
X021435Y025474D01*
X021512Y025551D02*
X026963Y025551D01*
X026886Y025629D02*
X021590Y025629D01*
X021650Y025706D02*
X026825Y025706D01*
X026793Y025783D02*
X021682Y025783D01*
X021714Y025860D02*
X026761Y025860D01*
X026729Y025938D02*
X021746Y025938D01*
X021772Y026015D02*
X026703Y026015D01*
X026703Y026092D02*
X021772Y026092D01*
X021772Y026169D02*
X026703Y026169D01*
X026703Y026247D02*
X021772Y026247D01*
X021772Y026324D02*
X026703Y026324D01*
X026724Y026401D02*
X021751Y026401D01*
X021719Y026478D02*
X026756Y026478D01*
X026788Y026556D02*
X021687Y026556D01*
X021655Y026633D02*
X026820Y026633D01*
X026874Y026710D02*
X021602Y026710D01*
X021525Y026787D02*
X026951Y026787D01*
X027028Y026865D02*
X021447Y026865D01*
X021341Y026942D02*
X027135Y026942D01*
X027321Y027019D02*
X021154Y027019D01*
X020631Y027019D02*
X006637Y027019D01*
X006648Y026993D02*
X006585Y027146D01*
X006468Y027262D01*
X006316Y027325D01*
X006151Y027325D01*
X005999Y027262D01*
X005883Y027146D01*
X005820Y026993D01*
X005820Y026829D01*
X005883Y026676D01*
X005999Y026560D01*
X006151Y026497D01*
X006316Y026497D01*
X006468Y026560D01*
X006585Y026676D01*
X006648Y026829D01*
X006648Y026993D01*
X006648Y026942D02*
X009196Y026942D01*
X009119Y026865D02*
X006648Y026865D01*
X006631Y026787D02*
X009098Y026787D01*
X009098Y026710D02*
X006599Y026710D01*
X006541Y026633D02*
X009129Y026633D01*
X009204Y026556D02*
X006458Y026556D01*
X006010Y026556D02*
X005458Y026556D01*
X005468Y026560D02*
X005585Y026676D01*
X005648Y026829D01*
X005648Y026993D01*
X005585Y027146D01*
X005468Y027262D01*
X005316Y027325D01*
X005151Y027325D01*
X004999Y027262D01*
X004883Y027146D01*
X004820Y026993D01*
X004820Y026829D01*
X004883Y026676D01*
X004999Y026560D01*
X005151Y026497D01*
X005316Y026497D01*
X005468Y026560D01*
X005541Y026633D02*
X005926Y026633D01*
X005869Y026710D02*
X005599Y026710D01*
X005631Y026787D02*
X005837Y026787D01*
X005820Y026865D02*
X005648Y026865D01*
X005648Y026942D02*
X005820Y026942D01*
X005830Y027019D02*
X005637Y027019D01*
X005605Y027096D02*
X005862Y027096D01*
X005911Y027174D02*
X005557Y027174D01*
X005480Y027251D02*
X005988Y027251D01*
X006480Y027251D02*
X035430Y027251D01*
X035507Y027174D02*
X006557Y027174D01*
X006605Y027096D02*
X035584Y027096D01*
X035333Y027328D02*
X001331Y027328D01*
X001235Y027251D02*
X003988Y027251D01*
X003999Y027262D02*
X003883Y027146D01*
X003820Y026993D01*
X003820Y026829D01*
X003883Y026676D01*
X003999Y026560D01*
X004151Y026497D01*
X004316Y026497D01*
X004468Y026560D01*
X004585Y026676D01*
X004648Y026829D01*
X004648Y026993D01*
X004585Y027146D01*
X004468Y027262D01*
X004316Y027325D01*
X004151Y027325D01*
X003999Y027262D01*
X003911Y027174D02*
X001158Y027174D01*
X001080Y027096D02*
X003862Y027096D01*
X003830Y027019D02*
X001007Y027019D01*
X000962Y026942D02*
X001866Y026942D01*
X002016Y027004D02*
X001692Y026870D01*
X001445Y026622D01*
X001311Y026299D01*
X001311Y025949D01*
X001445Y025625D01*
X001692Y025378D01*
X002016Y025244D01*
X002366Y025244D01*
X002689Y025378D01*
X002937Y025625D01*
X003070Y025949D01*
X003070Y026299D01*
X002937Y026622D01*
X002689Y026870D01*
X002366Y027004D01*
X002016Y027004D01*
X001687Y026865D02*
X000918Y026865D01*
X000873Y026787D02*
X001610Y026787D01*
X001533Y026710D02*
X000829Y026710D01*
X000802Y026633D02*
X001455Y026633D01*
X001417Y026556D02*
X000782Y026556D01*
X000761Y026478D02*
X001385Y026478D01*
X001353Y026401D02*
X000740Y026401D01*
X000720Y026324D02*
X001321Y026324D01*
X001311Y026247D02*
X000713Y026247D01*
X000708Y026169D02*
X001311Y026169D01*
X001311Y026092D02*
X000705Y026092D01*
X000705Y026015D02*
X001311Y026015D01*
X001315Y025938D02*
X000705Y025938D01*
X000705Y025860D02*
X001347Y025860D01*
X001379Y025783D02*
X000705Y025783D01*
X000705Y025706D02*
X001411Y025706D01*
X001443Y025629D02*
X000705Y025629D01*
X000705Y025551D02*
X001518Y025551D01*
X001596Y025474D02*
X000705Y025474D01*
X000705Y025397D02*
X001673Y025397D01*
X001832Y025320D02*
X000705Y025320D01*
X000705Y025243D02*
X006396Y025243D01*
X006325Y025165D02*
X000705Y025165D01*
X000705Y025088D02*
X003737Y025088D01*
X003705Y025056D02*
X003809Y025161D01*
X003958Y025161D01*
X004062Y025056D01*
X004062Y024908D01*
X003958Y024803D01*
X003809Y024803D01*
X003705Y024908D01*
X003705Y025056D01*
X003705Y025011D02*
X000705Y025011D01*
X000705Y024934D02*
X003705Y024934D01*
X003756Y024856D02*
X000705Y024856D01*
X000705Y024779D02*
X006301Y024779D01*
X006269Y024856D02*
X004798Y024856D01*
X004850Y024908D02*
X004745Y024803D01*
X004597Y024803D01*
X004492Y024908D01*
X004492Y025056D01*
X004597Y025161D01*
X004745Y025161D01*
X004850Y025056D01*
X004850Y024908D01*
X004850Y024934D02*
X006267Y024934D01*
X006267Y025011D02*
X004850Y025011D01*
X004818Y025088D02*
X006293Y025088D01*
X006513Y025320D02*
X002549Y025320D01*
X002708Y025397D02*
X006429Y025397D01*
X006352Y025474D02*
X002786Y025474D01*
X002863Y025551D02*
X006307Y025551D01*
X006275Y025629D02*
X002938Y025629D01*
X002970Y025706D02*
X006267Y025706D01*
X006267Y025783D02*
X003002Y025783D01*
X003034Y025860D02*
X006287Y025860D01*
X006319Y025938D02*
X003066Y025938D01*
X003070Y026015D02*
X006381Y026015D01*
X006477Y026092D02*
X003070Y026092D01*
X003070Y026169D02*
X009199Y026169D01*
X009121Y026247D02*
X003070Y026247D01*
X003060Y026324D02*
X009098Y026324D01*
X009098Y026401D02*
X003028Y026401D01*
X002996Y026478D02*
X009127Y026478D01*
X009429Y026556D02*
X020098Y026556D01*
X020130Y026633D02*
X009504Y026633D01*
X009535Y026710D02*
X020184Y026710D01*
X020261Y026787D02*
X009535Y026787D01*
X009514Y026865D02*
X020338Y026865D01*
X020445Y026942D02*
X009437Y026942D01*
X009506Y026478D02*
X020066Y026478D01*
X020034Y026401D02*
X009535Y026401D01*
X009535Y026324D02*
X020013Y026324D01*
X020013Y026247D02*
X009512Y026247D01*
X009435Y026169D02*
X020013Y026169D01*
X020013Y026092D02*
X009499Y026092D01*
X009535Y026015D02*
X020013Y026015D01*
X020039Y025938D02*
X009535Y025938D01*
X009519Y025860D02*
X020071Y025860D01*
X020103Y025783D02*
X009442Y025783D01*
X009057Y024856D02*
X035959Y024856D01*
X035959Y024779D02*
X009025Y024779D01*
X008989Y024702D02*
X035959Y024702D01*
X035959Y024625D02*
X008912Y024625D01*
X008769Y024547D02*
X035959Y024547D01*
X035959Y024316D02*
X007558Y024316D01*
X007566Y024238D02*
X035959Y024238D01*
X035959Y024161D02*
X007566Y024161D01*
X007490Y024084D02*
X035959Y024084D01*
X035959Y023698D02*
X018251Y023698D01*
X018326Y023620D02*
X035959Y023620D01*
X035959Y023543D02*
X018358Y023543D01*
X018382Y023466D02*
X035959Y023466D01*
X035959Y023389D02*
X018382Y023389D01*
X018374Y023311D02*
X035959Y023311D01*
X035959Y023234D02*
X018342Y023234D01*
X018292Y023157D02*
X035959Y023157D01*
X035959Y023080D02*
X018213Y023080D01*
X017783Y023080D02*
X012787Y023080D01*
X012864Y023003D02*
X035959Y023003D01*
X035959Y022925D02*
X012881Y022925D01*
X012881Y022848D02*
X035959Y022848D01*
X035959Y022771D02*
X012847Y022771D01*
X012770Y022694D02*
X035959Y022694D01*
X033162Y021998D02*
X031849Y021998D01*
X031817Y022031D02*
X031620Y022031D01*
X031480Y021891D01*
X031480Y021694D01*
X031620Y021555D01*
X031817Y021555D01*
X031956Y021694D01*
X031956Y021891D01*
X031817Y022031D01*
X031926Y021921D02*
X033085Y021921D01*
X033055Y021844D02*
X031956Y021844D01*
X031956Y021767D02*
X033055Y021767D01*
X033060Y021689D02*
X031951Y021689D01*
X031989Y021612D02*
X031874Y021612D01*
X031563Y021612D02*
X030299Y021612D01*
X030376Y021689D02*
X031485Y021689D01*
X031480Y021767D02*
X030381Y021767D01*
X030381Y021844D02*
X031480Y021844D01*
X031510Y021921D02*
X030351Y021921D01*
X030274Y021998D02*
X031587Y021998D01*
X032235Y021612D02*
X032776Y021612D01*
X032699Y021535D02*
X032312Y021535D01*
X032350Y021458D02*
X032661Y021458D01*
X032661Y021380D02*
X032350Y021380D01*
X032350Y021303D02*
X032661Y021303D01*
X032604Y021243D02*
X032407Y021243D01*
X032268Y021104D01*
X032268Y020907D01*
X032407Y020768D01*
X032604Y020768D01*
X032743Y020907D01*
X032743Y021104D01*
X032604Y021243D01*
X032621Y021226D02*
X032736Y021226D01*
X032699Y021149D02*
X033100Y021149D01*
X033062Y021226D02*
X033177Y021226D01*
X033055Y021072D02*
X032743Y021072D01*
X032743Y020994D02*
X033055Y020994D01*
X033055Y020917D02*
X032743Y020917D01*
X032791Y020840D02*
X032676Y020840D01*
X032714Y020763D02*
X032297Y020763D01*
X032335Y020840D02*
X032220Y020840D01*
X032268Y020917D02*
X031956Y020917D01*
X031956Y020907D02*
X031817Y020768D01*
X031620Y020768D01*
X031480Y020907D01*
X031480Y021104D01*
X031620Y021243D01*
X031817Y021243D01*
X031956Y021104D01*
X031956Y020907D01*
X032004Y020840D02*
X031889Y020840D01*
X031956Y020994D02*
X032268Y020994D01*
X032268Y021072D02*
X031956Y021072D01*
X031911Y021149D02*
X032312Y021149D01*
X032275Y021226D02*
X032390Y021226D01*
X031949Y021226D02*
X031834Y021226D01*
X031602Y021226D02*
X030259Y021226D01*
X030336Y021149D02*
X031525Y021149D01*
X031480Y021072D02*
X030381Y021072D01*
X030381Y020994D02*
X031480Y020994D01*
X031480Y020917D02*
X030381Y020917D01*
X030314Y020840D02*
X031548Y020840D01*
X032213Y020376D02*
X032798Y020376D01*
X032721Y020454D02*
X032290Y020454D01*
X032350Y020531D02*
X032661Y020531D01*
X032661Y020608D02*
X032350Y020608D01*
X032350Y020685D02*
X032661Y020685D01*
X033008Y020840D02*
X033122Y020840D01*
X033137Y021612D02*
X033023Y021612D01*
X029906Y021072D02*
X026327Y021072D01*
X026327Y020994D02*
X029906Y020994D01*
X031106Y016669D02*
X014771Y016669D01*
X014722Y016592D02*
X031106Y016592D01*
X032643Y015665D02*
X035959Y015665D01*
X035959Y015587D02*
X032720Y015587D01*
X032724Y015510D02*
X035959Y015510D01*
X035959Y015433D02*
X032724Y015433D01*
X032676Y015356D02*
X035959Y015356D01*
X035959Y015278D02*
X032599Y015278D01*
X035959Y015201D02*
X014889Y015201D01*
X014889Y015124D02*
X016529Y015124D01*
X016565Y015161D02*
X016461Y015056D01*
X016461Y014908D01*
X016565Y014803D01*
X016713Y014803D01*
X016818Y014908D01*
X016818Y015056D01*
X016713Y015161D01*
X016565Y015161D01*
X016461Y015047D02*
X014870Y015047D01*
X014793Y014970D02*
X016461Y014970D01*
X016476Y014892D02*
X014298Y014892D01*
X014298Y014815D02*
X016553Y014815D01*
X016725Y014815D02*
X035959Y014815D01*
X035959Y014738D02*
X014892Y014738D01*
X014928Y014661D02*
X035959Y014661D01*
X035959Y014583D02*
X014928Y014583D01*
X014881Y014506D02*
X035959Y014506D01*
X035959Y014429D02*
X014725Y014429D01*
X014648Y014352D02*
X035959Y014352D01*
X035959Y014892D02*
X016803Y014892D01*
X016818Y014970D02*
X035959Y014970D01*
X035959Y015047D02*
X016818Y015047D01*
X016750Y015124D02*
X035959Y015124D01*
X035959Y017287D02*
X009473Y017287D01*
X009535Y017364D02*
X035959Y017364D01*
X035959Y017441D02*
X009535Y017441D01*
X009547Y017518D02*
X035959Y017518D01*
X030713Y012421D02*
X027969Y012421D01*
X028010Y012343D02*
X030713Y012343D01*
X030713Y012266D02*
X028010Y012266D01*
X027969Y012189D02*
X030777Y012189D01*
X031022Y011339D02*
X031192Y011339D01*
X031226Y010953D02*
X031055Y010953D01*
X030806Y010953D02*
X019298Y010953D01*
X019282Y010876D02*
X030729Y010876D01*
X030713Y010799D02*
X019205Y010799D01*
X019035Y010799D02*
X000705Y010799D01*
X000705Y010876D02*
X018957Y010876D01*
X018941Y010953D02*
X018336Y010953D01*
X018413Y011030D02*
X018941Y011030D01*
X019008Y011108D02*
X018432Y011108D01*
X018171Y010953D02*
X000705Y010953D01*
X000705Y011030D02*
X006480Y011030D01*
X006421Y011108D02*
X002230Y011108D01*
X002976Y011880D02*
X000705Y011880D01*
X000705Y011957D02*
X002899Y011957D01*
X002878Y012034D02*
X000705Y012034D01*
X000705Y012112D02*
X002878Y012112D01*
X002908Y012189D02*
X000705Y012189D01*
X000705Y012266D02*
X002984Y012266D01*
X002906Y012343D02*
X000705Y012343D01*
X000705Y012421D02*
X002878Y012421D01*
X002878Y012498D02*
X000705Y012498D01*
X000705Y012575D02*
X002900Y012575D01*
X003208Y012266D02*
X003377Y012266D01*
X003300Y012343D02*
X003286Y012343D01*
X003284Y012189D02*
X005280Y012189D01*
X005280Y012112D02*
X003314Y012112D01*
X003314Y012034D02*
X005318Y012034D01*
X005324Y012266D02*
X003602Y012266D01*
X003293Y011957D02*
X005555Y011957D01*
X005591Y011880D02*
X003216Y011880D01*
X005045Y011648D02*
X013035Y011648D01*
X013035Y011725D02*
X000705Y011725D01*
X000705Y011803D02*
X013089Y011803D01*
X013065Y011571D02*
X012547Y011571D01*
X012385Y011571D02*
X009319Y011571D01*
X009396Y011494D02*
X012308Y011494D01*
X012287Y011416D02*
X009417Y011416D01*
X009417Y011339D02*
X012287Y011339D01*
X012351Y011262D02*
X009353Y011262D01*
X009059Y011416D02*
X005125Y011416D01*
X005125Y011494D02*
X009080Y011494D01*
X009157Y011571D02*
X005123Y011571D01*
X006720Y011030D02*
X006795Y011030D01*
X007205Y010721D02*
X000705Y010721D01*
X000705Y008636D02*
X003348Y008636D01*
X003618Y008172D02*
X002462Y008172D01*
X002472Y008095D02*
X003608Y008095D01*
X003608Y008018D02*
X002472Y008018D01*
X002472Y007941D02*
X003608Y007941D01*
X003634Y007863D02*
X002446Y007863D01*
X002414Y007786D02*
X003666Y007786D01*
X003706Y007709D02*
X002374Y007709D01*
X002297Y007632D02*
X003783Y007632D01*
X003875Y007554D02*
X002205Y007554D01*
X001625Y007554D02*
X001446Y007554D01*
X001464Y007536D02*
X001359Y007641D01*
X001211Y007641D01*
X001106Y007536D01*
X001106Y007388D01*
X001211Y007283D01*
X001359Y007283D01*
X001464Y007388D01*
X001464Y007536D01*
X001464Y007477D02*
X005841Y007477D01*
X005831Y007503D02*
X005915Y007298D01*
X006072Y007142D01*
X006277Y007057D01*
X006498Y007057D01*
X006703Y007142D01*
X006859Y007298D01*
X006944Y007503D01*
X006944Y007725D01*
X006859Y007929D01*
X006703Y008086D01*
X006498Y008171D01*
X006277Y008171D01*
X006072Y008086D01*
X005915Y007929D01*
X005831Y007725D01*
X005831Y007503D01*
X005831Y007554D02*
X005252Y007554D01*
X005217Y007520D02*
X005301Y007603D01*
X005345Y007559D01*
X005493Y007559D01*
X005598Y007664D01*
X005598Y007812D01*
X005493Y007917D01*
X005345Y007917D01*
X005261Y007833D01*
X005217Y007877D01*
X005069Y007877D01*
X004965Y007772D01*
X004965Y007624D01*
X005069Y007520D01*
X005217Y007520D01*
X005035Y007554D02*
X004455Y007554D01*
X004547Y007632D02*
X004965Y007632D01*
X004965Y007709D02*
X004624Y007709D01*
X004664Y007786D02*
X004978Y007786D01*
X005056Y007863D02*
X004696Y007863D01*
X004722Y007941D02*
X005927Y007941D01*
X005888Y007863D02*
X005546Y007863D01*
X005598Y007786D02*
X005856Y007786D01*
X005831Y007709D02*
X005598Y007709D01*
X005566Y007632D02*
X005831Y007632D01*
X005873Y007400D02*
X001464Y007400D01*
X001398Y007323D02*
X005905Y007323D01*
X005968Y007245D02*
X000705Y007245D01*
X000705Y007168D02*
X006045Y007168D01*
X006194Y007091D02*
X000705Y007091D01*
X000705Y007014D02*
X006742Y007014D01*
X006746Y007025D02*
X006703Y006920D01*
X006703Y006807D01*
X006746Y006703D01*
X006826Y006623D01*
X006931Y006579D01*
X007044Y006579D01*
X007148Y006623D01*
X007228Y006703D01*
X007272Y006807D01*
X007272Y006920D01*
X007228Y007025D01*
X007148Y007105D01*
X007044Y007148D01*
X006931Y007148D01*
X006826Y007105D01*
X006746Y007025D01*
X006812Y007091D02*
X006580Y007091D01*
X006729Y007168D02*
X008045Y007168D01*
X008072Y007142D02*
X008277Y007057D01*
X008498Y007057D01*
X008703Y007142D01*
X008859Y007298D01*
X008944Y007503D01*
X008944Y007725D01*
X008859Y007929D01*
X008703Y008086D01*
X008498Y008171D01*
X008277Y008171D01*
X008072Y008086D01*
X007915Y007929D01*
X007831Y007725D01*
X007831Y007503D01*
X007915Y007298D01*
X008072Y007142D01*
X007962Y007091D02*
X008194Y007091D01*
X008033Y007014D02*
X014098Y007014D01*
X014098Y007091D02*
X009671Y007091D01*
X009627Y007047D02*
X009731Y007152D01*
X009731Y007300D01*
X009627Y007405D01*
X009479Y007405D01*
X009374Y007300D01*
X009374Y007152D01*
X009479Y007047D01*
X009627Y007047D01*
X009731Y007168D02*
X014124Y007168D01*
X014201Y007245D02*
X009731Y007245D01*
X009709Y007323D02*
X019384Y007323D01*
X019307Y007400D02*
X016161Y007400D01*
X015937Y007400D02*
X009632Y007400D01*
X009474Y007400D02*
X008902Y007400D01*
X008934Y007477D02*
X015870Y007477D01*
X015870Y007554D02*
X008944Y007554D01*
X008944Y007632D02*
X010390Y007632D01*
X010358Y007709D02*
X008944Y007709D01*
X008919Y007786D02*
X010358Y007786D01*
X010410Y007863D02*
X008887Y007863D01*
X008848Y007941D02*
X011814Y007941D01*
X011776Y007979D02*
X011880Y007874D01*
X012028Y007874D01*
X012133Y007979D01*
X012133Y008127D01*
X012028Y008231D01*
X011880Y008231D01*
X011776Y008127D01*
X011776Y007979D01*
X011776Y008018D02*
X008771Y008018D01*
X008680Y008095D02*
X011776Y008095D01*
X011821Y008172D02*
X007527Y008172D01*
X007527Y008245D02*
X007527Y008097D01*
X007422Y007992D01*
X007274Y007992D01*
X007169Y008097D01*
X007169Y008245D01*
X007274Y008350D01*
X007422Y008350D01*
X007527Y008245D01*
X007522Y008250D02*
X026500Y008250D01*
X026500Y008327D02*
X015395Y008327D01*
X015472Y008404D02*
X021114Y008404D01*
X021299Y008404D02*
X026541Y008404D01*
X026815Y008172D02*
X035959Y008172D01*
X035959Y007941D02*
X026689Y007941D01*
X026700Y007863D02*
X035959Y007863D01*
X035959Y007786D02*
X032647Y007786D01*
X032724Y007709D02*
X035959Y007709D01*
X035959Y007632D02*
X032724Y007632D01*
X032724Y007554D02*
X035959Y007554D01*
X035959Y007477D02*
X032671Y007477D01*
X032379Y007014D02*
X032208Y007014D01*
X032301Y006937D02*
X031922Y006937D01*
X031936Y006923D02*
X031808Y007050D01*
X031628Y007050D01*
X031500Y006923D01*
X031500Y006742D01*
X031628Y006614D01*
X031808Y006614D01*
X031936Y006742D01*
X031936Y006923D01*
X031936Y006859D02*
X032287Y006859D01*
X032287Y006782D02*
X031936Y006782D01*
X031899Y006705D02*
X032325Y006705D01*
X032402Y006628D02*
X032231Y006628D01*
X031992Y006628D02*
X031822Y006628D01*
X031915Y006550D02*
X031521Y006550D01*
X031543Y006473D02*
X031894Y006473D01*
X031894Y006396D02*
X031543Y006396D01*
X031513Y006319D02*
X031923Y006319D01*
X032001Y006241D02*
X031830Y006241D01*
X031808Y006263D02*
X031628Y006263D01*
X031500Y006135D01*
X031500Y005955D01*
X031628Y005827D01*
X031808Y005827D01*
X031936Y005955D01*
X031936Y006135D01*
X031808Y006263D01*
X031907Y006164D02*
X032316Y006164D01*
X032287Y006087D02*
X031936Y006087D01*
X031936Y006010D02*
X032287Y006010D01*
X032310Y005932D02*
X031914Y005932D01*
X031837Y005855D02*
X032387Y005855D01*
X032394Y006241D02*
X032223Y006241D01*
X031606Y006241D02*
X031436Y006241D01*
X031529Y006164D02*
X031120Y006164D01*
X031149Y006135D02*
X031021Y006263D01*
X030840Y006263D01*
X030713Y006135D01*
X030713Y005955D01*
X030840Y005827D01*
X031021Y005827D01*
X031149Y005955D01*
X031149Y006135D01*
X031149Y006087D02*
X031500Y006087D01*
X031500Y006010D02*
X031149Y006010D01*
X031127Y005932D02*
X031522Y005932D01*
X031599Y005855D02*
X031049Y005855D01*
X030812Y005855D02*
X023907Y005855D01*
X023944Y005892D02*
X023839Y005787D01*
X023691Y005787D01*
X023587Y005892D01*
X023587Y006040D01*
X023691Y006145D01*
X023839Y006145D01*
X023944Y006040D01*
X023944Y005892D01*
X023944Y005932D02*
X030735Y005932D01*
X030713Y006010D02*
X027487Y006010D01*
X027525Y006087D02*
X030713Y006087D01*
X030741Y006164D02*
X027641Y006164D01*
X027686Y006241D02*
X030819Y006241D01*
X031043Y006241D02*
X031213Y006241D01*
X031136Y006319D02*
X027686Y006319D01*
X027648Y006396D02*
X031106Y006396D01*
X031034Y006628D02*
X031205Y006628D01*
X031112Y006705D02*
X031537Y006705D01*
X031500Y006782D02*
X031149Y006782D01*
X031149Y006859D02*
X031500Y006859D01*
X031514Y006937D02*
X031135Y006937D01*
X031058Y007014D02*
X031228Y007014D01*
X031421Y007014D02*
X031591Y007014D01*
X031498Y007091D02*
X031938Y007091D01*
X031894Y007168D02*
X031543Y007168D01*
X031543Y007245D02*
X031894Y007245D01*
X031900Y007323D02*
X031536Y007323D01*
X031459Y007400D02*
X031977Y007400D01*
X032016Y007014D02*
X031845Y007014D01*
X031614Y006628D02*
X031444Y006628D01*
X030765Y007477D02*
X026412Y007477D01*
X026424Y007554D02*
X030713Y007554D01*
X030713Y007632D02*
X026424Y007632D01*
X026415Y007709D02*
X026386Y007709D01*
X026627Y007709D02*
X030713Y007709D01*
X030789Y007786D02*
X026700Y007786D01*
X026071Y007014D02*
X025948Y007014D01*
X027167Y006087D02*
X023897Y006087D01*
X023944Y006010D02*
X027205Y006010D01*
X025158Y004619D02*
X012435Y004619D01*
X012448Y004632D02*
X012448Y004780D01*
X012343Y004885D01*
X012195Y004885D01*
X012094Y004783D01*
X012094Y004859D01*
X011989Y004964D01*
X011841Y004964D01*
X011736Y004859D01*
X011736Y004711D01*
X011841Y004606D01*
X011989Y004606D01*
X012091Y004708D01*
X012091Y004632D01*
X012195Y004528D01*
X012343Y004528D01*
X012448Y004632D01*
X012448Y004697D02*
X012538Y004697D01*
X012484Y004774D02*
X012448Y004774D01*
X012484Y004851D02*
X012377Y004851D01*
X012514Y004928D02*
X012025Y004928D01*
X012094Y004851D02*
X012161Y004851D01*
X012091Y004697D02*
X012079Y004697D01*
X012103Y004619D02*
X012002Y004619D01*
X011938Y004542D02*
X012181Y004542D01*
X012358Y004542D02*
X025083Y004542D01*
X025162Y004310D02*
X025168Y004310D01*
X025204Y004156D02*
X025836Y004156D01*
X025791Y004079D02*
X025162Y004079D01*
X024888Y004079D02*
X024768Y004079D01*
X024846Y004156D02*
X024846Y004156D01*
X024847Y004310D02*
X024888Y004310D01*
X023624Y005855D02*
X018039Y005855D01*
X018039Y005932D02*
X023587Y005932D01*
X023587Y006010D02*
X018030Y006010D01*
X017953Y006087D02*
X023633Y006087D01*
X023808Y007245D02*
X014353Y007245D01*
X014156Y006937D02*
X008065Y006937D01*
X008029Y006705D02*
X010590Y006705D01*
X010555Y006628D02*
X007953Y006628D01*
X007621Y006628D02*
X007153Y006628D01*
X007229Y006705D02*
X007545Y006705D01*
X007513Y006782D02*
X007261Y006782D01*
X007272Y006859D02*
X007503Y006859D01*
X007510Y006937D02*
X007265Y006937D01*
X007233Y007014D02*
X007542Y007014D01*
X007612Y007091D02*
X007162Y007091D01*
X006870Y007323D02*
X007905Y007323D01*
X007873Y007400D02*
X006902Y007400D01*
X006934Y007477D02*
X007841Y007477D01*
X007831Y007554D02*
X006944Y007554D01*
X006944Y007632D02*
X007831Y007632D01*
X007831Y007709D02*
X006944Y007709D01*
X006919Y007786D02*
X007856Y007786D01*
X007888Y007863D02*
X006887Y007863D01*
X006848Y007941D02*
X007927Y007941D01*
X008004Y008018D02*
X007448Y008018D01*
X007525Y008095D02*
X008094Y008095D01*
X007445Y008327D02*
X015207Y008327D01*
X015130Y008404D02*
X014133Y008404D01*
X014180Y008451D02*
X014076Y008346D01*
X013928Y008346D01*
X013823Y008451D01*
X013823Y008599D01*
X013928Y008704D01*
X013980Y008704D01*
X013980Y008796D01*
X014085Y008901D01*
X014233Y008901D01*
X014338Y008796D01*
X014338Y008648D01*
X014233Y008543D01*
X014180Y008543D01*
X014180Y008451D01*
X014180Y008481D02*
X014738Y008481D01*
X014689Y008530D02*
X014794Y008425D01*
X014942Y008425D01*
X015046Y008530D01*
X015046Y008678D01*
X014942Y008783D01*
X014794Y008783D01*
X014689Y008678D01*
X014689Y008530D01*
X014689Y008559D02*
X014248Y008559D01*
X014326Y008636D02*
X014689Y008636D01*
X014724Y008713D02*
X014338Y008713D01*
X014338Y008790D02*
X018705Y008790D01*
X018705Y008868D02*
X014266Y008868D01*
X014052Y008868D02*
X005463Y008868D01*
X005519Y008945D02*
X008605Y008945D01*
X008528Y009022D02*
X005519Y009022D01*
X005491Y009099D02*
X008508Y009099D01*
X008508Y009176D02*
X005217Y009176D01*
X005217Y008868D02*
X005187Y008868D01*
X005159Y008790D02*
X009526Y008790D01*
X009557Y008822D02*
X009453Y008717D01*
X009453Y008569D01*
X009557Y008465D01*
X009706Y008465D01*
X009810Y008569D01*
X009810Y008717D01*
X009706Y008822D01*
X009557Y008822D01*
X009453Y008713D02*
X005191Y008713D01*
X005199Y008636D02*
X009453Y008636D01*
X009463Y008559D02*
X005190Y008559D01*
X005158Y008481D02*
X009541Y008481D01*
X009722Y008481D02*
X013823Y008481D01*
X013823Y008559D02*
X009800Y008559D01*
X009810Y008636D02*
X013859Y008636D01*
X013980Y008713D02*
X009810Y008713D01*
X009737Y008790D02*
X013980Y008790D01*
X013870Y008404D02*
X005084Y008404D01*
X005004Y008327D02*
X007251Y008327D01*
X007174Y008250D02*
X005046Y008250D01*
X005046Y008172D02*
X007169Y008172D01*
X007171Y008095D02*
X006680Y008095D01*
X006771Y008018D02*
X007248Y008018D01*
X006807Y007245D02*
X007968Y007245D01*
X008580Y007091D02*
X009435Y007091D01*
X009374Y007168D02*
X008729Y007168D01*
X008807Y007245D02*
X009374Y007245D01*
X009397Y007323D02*
X008870Y007323D01*
X009006Y006302D02*
X008902Y006198D01*
X008902Y006050D01*
X009006Y005945D01*
X009154Y005945D01*
X009259Y006050D01*
X009259Y006198D01*
X009154Y006302D01*
X009006Y006302D01*
X008945Y006241D02*
X007443Y006241D01*
X007422Y006220D02*
X007527Y006325D01*
X007527Y006473D01*
X010604Y006473D01*
X010555Y006550D02*
X007450Y006550D01*
X007422Y006578D02*
X007274Y006578D01*
X007169Y006473D01*
X002291Y006473D01*
X002186Y006578D01*
X002038Y006578D01*
X001933Y006473D01*
X000705Y006473D01*
X000705Y006396D02*
X001933Y006396D01*
X001933Y006325D02*
X002038Y006220D01*
X002186Y006220D01*
X002291Y006325D01*
X002291Y006473D01*
X002291Y006396D02*
X007169Y006396D01*
X007169Y006325D02*
X007274Y006220D01*
X007422Y006220D01*
X007520Y006319D02*
X010007Y006319D01*
X009965Y006241D02*
X009215Y006241D01*
X009259Y006164D02*
X009931Y006164D01*
X009854Y006087D02*
X009259Y006087D01*
X009273Y006010D02*
X009219Y006010D01*
X009185Y005932D02*
X008794Y005932D01*
X008854Y005855D02*
X009126Y005855D01*
X009094Y005778D02*
X008886Y005778D01*
X008904Y005701D02*
X009076Y005701D01*
X009076Y005623D02*
X008904Y005623D01*
X008895Y005546D02*
X009085Y005546D01*
X009117Y005469D02*
X008863Y005469D01*
X008816Y005392D02*
X009163Y005392D01*
X009241Y005314D02*
X008739Y005314D01*
X008572Y005237D02*
X008407Y005237D01*
X008241Y005314D02*
X007739Y005314D01*
X007816Y005392D02*
X008163Y005392D01*
X008117Y005469D02*
X007863Y005469D01*
X007895Y005546D02*
X008085Y005546D01*
X008076Y005623D02*
X007904Y005623D01*
X007904Y005701D02*
X008076Y005701D01*
X008094Y005778D02*
X007886Y005778D01*
X007854Y005855D02*
X008126Y005855D01*
X008185Y005932D02*
X007794Y005932D01*
X007707Y006010D02*
X008273Y006010D01*
X008707Y006010D02*
X008942Y006010D01*
X008902Y006087D02*
X006063Y006087D01*
X006140Y006010D02*
X006273Y006010D01*
X006185Y005932D02*
X006149Y005932D01*
X006094Y005778D02*
X006074Y005778D01*
X006076Y005701D02*
X002197Y005701D01*
X002212Y005686D02*
X002107Y005791D01*
X001959Y005791D01*
X001854Y005686D01*
X001854Y005538D01*
X001959Y005433D01*
X002107Y005433D01*
X002212Y005538D01*
X002212Y005686D01*
X002212Y005623D02*
X006076Y005623D01*
X006085Y005546D02*
X002212Y005546D01*
X002143Y005469D02*
X006117Y005469D01*
X006163Y005392D02*
X000705Y005392D01*
X000705Y005469D02*
X001923Y005469D01*
X001854Y005546D02*
X000705Y005546D01*
X000705Y005623D02*
X001854Y005623D01*
X001869Y005701D02*
X000705Y005701D01*
X000705Y005778D02*
X001946Y005778D01*
X002120Y005778D02*
X005866Y005778D01*
X005791Y005855D02*
X000705Y005855D01*
X000705Y005932D02*
X005791Y005932D01*
X005800Y006010D02*
X000705Y006010D01*
X000705Y006087D02*
X005877Y006087D01*
X005935Y006496D02*
X006083Y006496D01*
X006188Y006601D01*
X006188Y006749D01*
X006083Y006854D01*
X005935Y006854D01*
X005831Y006749D01*
X005831Y006601D01*
X005935Y006496D01*
X005881Y006550D02*
X002213Y006550D01*
X002010Y006550D02*
X000705Y006550D01*
X000705Y006628D02*
X005831Y006628D01*
X005831Y006705D02*
X000705Y006705D01*
X000705Y006782D02*
X005864Y006782D01*
X006155Y006782D02*
X006713Y006782D01*
X006703Y006859D02*
X000705Y006859D01*
X000705Y006937D02*
X006710Y006937D01*
X006745Y006705D02*
X006188Y006705D01*
X006188Y006628D02*
X006821Y006628D01*
X007169Y006473D02*
X007169Y006325D01*
X007176Y006319D02*
X002284Y006319D01*
X002207Y006241D02*
X007253Y006241D01*
X007273Y006010D02*
X006707Y006010D01*
X006794Y005932D02*
X007185Y005932D01*
X007126Y005855D02*
X006854Y005855D01*
X006886Y005778D02*
X007094Y005778D01*
X007076Y005701D02*
X006904Y005701D01*
X006904Y005623D02*
X007076Y005623D01*
X007085Y005546D02*
X006895Y005546D01*
X006863Y005469D02*
X007117Y005469D01*
X007163Y005392D02*
X006816Y005392D01*
X006739Y005314D02*
X007241Y005314D01*
X007407Y005237D02*
X007572Y005237D01*
X006572Y005237D02*
X006407Y005237D01*
X006241Y005314D02*
X000705Y005314D01*
X000705Y005083D02*
X009868Y005083D01*
X010025Y005083D02*
X010971Y005083D01*
X010894Y005160D02*
X010102Y005160D01*
X010125Y005237D02*
X010870Y005237D01*
X010870Y005314D02*
X010125Y005314D01*
X010065Y005392D02*
X010930Y005392D01*
X011167Y005392D02*
X017739Y005392D01*
X017661Y005469D02*
X009863Y005469D01*
X009895Y005546D02*
X017642Y005546D01*
X017642Y005623D02*
X009904Y005623D01*
X009923Y005855D02*
X009854Y005855D01*
X009846Y005932D02*
X009794Y005932D01*
X009846Y006010D02*
X009707Y006010D01*
X010204Y006010D02*
X011422Y006010D01*
X011447Y005984D02*
X011595Y005984D01*
X011700Y006089D01*
X011700Y006237D01*
X011595Y006342D01*
X011447Y006342D01*
X011343Y006237D01*
X011343Y006089D01*
X011447Y005984D01*
X011345Y006087D02*
X010281Y006087D01*
X010322Y006164D02*
X011343Y006164D01*
X011347Y006241D02*
X010322Y006241D01*
X010280Y006319D02*
X011424Y006319D01*
X011618Y006319D02*
X011739Y006319D01*
X011736Y006241D02*
X011696Y006241D01*
X011700Y006164D02*
X011740Y006164D01*
X011698Y006087D02*
X011817Y006087D01*
X011973Y006010D02*
X011621Y006010D01*
X011816Y006396D02*
X007527Y006396D01*
X007527Y006473D02*
X007422Y006578D01*
X007246Y006550D02*
X006138Y006550D01*
X005292Y007863D02*
X005231Y007863D01*
X005005Y008095D02*
X006094Y008095D01*
X006004Y008018D02*
X004722Y008018D01*
X004722Y008095D02*
X004730Y008095D01*
X004689Y008250D02*
X004680Y008250D01*
X004648Y008327D02*
X004732Y008327D01*
X004746Y008404D02*
X004585Y008404D01*
X004508Y008481D02*
X004672Y008481D01*
X004640Y008559D02*
X004361Y008559D01*
X006556Y009331D02*
X008219Y009331D01*
X008055Y009408D02*
X006719Y009408D01*
X006797Y009485D02*
X007978Y009485D01*
X007909Y009563D02*
X006865Y009563D01*
X006897Y009640D02*
X007209Y009640D01*
X007226Y009623D02*
X007146Y009703D01*
X007103Y009807D01*
X007103Y009920D01*
X007146Y010025D01*
X007226Y010105D01*
X007331Y010148D01*
X007444Y010148D01*
X007548Y010105D01*
X007628Y010025D01*
X007672Y009920D01*
X007672Y009807D01*
X007628Y009703D01*
X007548Y009623D01*
X007444Y009579D01*
X007331Y009579D01*
X007226Y009623D01*
X007140Y009717D02*
X006929Y009717D01*
X006944Y009794D02*
X007108Y009794D01*
X007103Y009872D02*
X006944Y009872D01*
X006944Y009949D02*
X007115Y009949D01*
X007148Y010026D02*
X006923Y010026D01*
X006891Y010103D02*
X007225Y010103D01*
X007550Y010103D02*
X007884Y010103D01*
X007852Y010026D02*
X007627Y010026D01*
X007660Y009949D02*
X007831Y009949D01*
X007831Y009872D02*
X007672Y009872D01*
X007666Y009794D02*
X007831Y009794D01*
X007845Y009717D02*
X007634Y009717D01*
X007566Y009640D02*
X007877Y009640D01*
X007917Y010181D02*
X006858Y010181D01*
X006781Y010258D02*
X007994Y010258D01*
X008071Y010335D02*
X006704Y010335D01*
X007401Y010412D02*
X008257Y010412D01*
X008518Y010412D02*
X011862Y010412D01*
X011854Y010420D02*
X011959Y010315D01*
X012107Y010315D01*
X012212Y010420D01*
X012212Y010568D01*
X012107Y010672D01*
X011959Y010672D01*
X011854Y010568D01*
X011854Y010420D01*
X011854Y010490D02*
X007479Y010490D01*
X007487Y010567D02*
X011854Y010567D01*
X011931Y010644D02*
X007487Y010644D01*
X007413Y010721D02*
X018189Y010721D01*
X018154Y010644D02*
X012529Y010644D01*
X012501Y010672D02*
X012353Y010672D01*
X012248Y010568D01*
X012248Y010420D01*
X012353Y010315D01*
X012501Y010315D01*
X012606Y010420D01*
X012606Y010568D01*
X012501Y010672D01*
X012606Y010567D02*
X018154Y010567D01*
X018202Y010490D02*
X014534Y010490D01*
X014574Y010450D02*
X014469Y010554D01*
X014321Y010554D01*
X014217Y010450D01*
X014217Y010302D01*
X014321Y010197D01*
X014469Y010197D01*
X014574Y010302D01*
X014574Y010450D01*
X014574Y010412D02*
X020161Y010412D01*
X020161Y010450D02*
X020161Y010302D01*
X020266Y010197D01*
X020414Y010197D01*
X020519Y010302D01*
X020519Y010450D01*
X020414Y010554D01*
X020266Y010554D01*
X020161Y010450D01*
X020201Y010490D02*
X018463Y010490D01*
X018511Y010567D02*
X027012Y010567D01*
X027012Y010490D02*
X026818Y010490D01*
X026857Y010450D02*
X026753Y010554D01*
X026605Y010554D01*
X026500Y010450D01*
X026500Y010318D01*
X026487Y010318D01*
X026382Y010213D01*
X026382Y010121D01*
X026329Y010121D01*
X026224Y010017D01*
X026224Y009868D01*
X026329Y009764D01*
X026477Y009764D01*
X026541Y009828D01*
X026605Y009764D01*
X026753Y009764D01*
X026857Y009868D01*
X026857Y010017D01*
X026753Y010121D01*
X026739Y010121D01*
X026739Y010197D01*
X026753Y010197D01*
X026857Y010302D01*
X026857Y010450D01*
X026857Y010412D02*
X027059Y010412D01*
X026857Y010335D02*
X034454Y010335D01*
X034454Y010293D02*
X034517Y010141D01*
X034633Y010024D01*
X034785Y009961D01*
X034950Y009961D01*
X035102Y010024D01*
X035219Y010141D01*
X035282Y010293D01*
X035282Y010458D01*
X035219Y010610D01*
X035102Y010727D01*
X034950Y010790D01*
X034785Y010790D01*
X034633Y010727D01*
X034517Y010610D01*
X034454Y010458D01*
X034454Y010293D01*
X034468Y010258D02*
X026814Y010258D01*
X026739Y010181D02*
X034500Y010181D01*
X034554Y010103D02*
X026771Y010103D01*
X026848Y010026D02*
X034631Y010026D01*
X034624Y009717D02*
X022487Y009717D01*
X022487Y009711D02*
X022383Y009606D01*
X022235Y009606D01*
X022130Y009711D01*
X022130Y009859D01*
X022235Y009964D01*
X022383Y009964D01*
X022487Y009859D01*
X022487Y009711D01*
X022487Y009794D02*
X026298Y009794D01*
X026224Y009872D02*
X022475Y009872D01*
X022398Y009949D02*
X026224Y009949D01*
X026234Y010026D02*
X020667Y010026D01*
X020716Y009977D02*
X020611Y010082D01*
X020463Y010082D01*
X020358Y009977D01*
X020358Y009885D01*
X020305Y009885D01*
X020201Y009780D01*
X020201Y009632D01*
X020305Y009528D01*
X020454Y009528D01*
X020558Y009632D01*
X020558Y009724D01*
X020611Y009724D01*
X020716Y009829D01*
X020716Y009977D01*
X020716Y009949D02*
X022220Y009949D01*
X022143Y009872D02*
X020716Y009872D01*
X020681Y009794D02*
X022130Y009794D01*
X022130Y009717D02*
X020558Y009717D01*
X020558Y009640D02*
X022201Y009640D01*
X022416Y009640D02*
X034546Y009640D01*
X034497Y009563D02*
X021563Y009563D01*
X021556Y009570D02*
X021408Y009570D01*
X021303Y009465D01*
X021303Y009317D01*
X021408Y009213D01*
X021556Y009213D01*
X021661Y009317D01*
X021661Y009465D01*
X021556Y009570D01*
X021641Y009485D02*
X034465Y009485D01*
X034454Y009408D02*
X021661Y009408D01*
X021661Y009331D02*
X034454Y009331D01*
X034470Y009254D02*
X021597Y009254D01*
X021367Y009254D02*
X015692Y009254D01*
X015690Y009252D02*
X015794Y009357D01*
X015794Y009505D01*
X015690Y009609D01*
X015542Y009609D01*
X015437Y009505D01*
X015437Y009357D01*
X015542Y009252D01*
X015690Y009252D01*
X015769Y009331D02*
X021303Y009331D01*
X021303Y009408D02*
X015794Y009408D01*
X015794Y009485D02*
X021323Y009485D01*
X021400Y009563D02*
X020489Y009563D01*
X020270Y009563D02*
X015737Y009563D01*
X015495Y009563D02*
X008865Y009563D01*
X008897Y009640D02*
X010862Y009640D01*
X010831Y009672D02*
X010935Y009567D01*
X011083Y009567D01*
X011188Y009672D01*
X011188Y009820D01*
X011083Y009924D01*
X010935Y009924D01*
X010831Y009820D01*
X010831Y009672D01*
X010831Y009717D02*
X008929Y009717D01*
X008944Y009794D02*
X009921Y009794D01*
X009951Y009764D02*
X010099Y009764D01*
X010204Y009868D01*
X010204Y010017D01*
X010099Y010121D01*
X009951Y010121D01*
X009846Y010017D01*
X009846Y009868D01*
X009951Y009764D01*
X009846Y009872D02*
X008944Y009872D01*
X008944Y009949D02*
X009846Y009949D01*
X009856Y010026D02*
X008923Y010026D01*
X008891Y010103D02*
X009933Y010103D01*
X010117Y010103D02*
X017486Y010103D01*
X017484Y010105D02*
X017589Y010000D01*
X017737Y010000D01*
X017842Y010105D01*
X017842Y010253D01*
X017737Y010357D01*
X017589Y010357D01*
X017484Y010253D01*
X017484Y010105D01*
X017484Y010181D02*
X008858Y010181D01*
X008781Y010258D02*
X014260Y010258D01*
X014217Y010335D02*
X012521Y010335D01*
X012598Y010412D02*
X014217Y010412D01*
X014256Y010490D02*
X012606Y010490D01*
X012333Y010335D02*
X012127Y010335D01*
X012204Y010412D02*
X012255Y010412D01*
X012248Y010490D02*
X012212Y010490D01*
X012212Y010567D02*
X012248Y010567D01*
X012324Y010644D02*
X012135Y010644D01*
X011939Y010335D02*
X008704Y010335D01*
X008797Y009485D02*
X015437Y009485D01*
X015437Y009408D02*
X008719Y009408D01*
X008768Y008945D02*
X018735Y008945D01*
X018758Y008713D02*
X015011Y008713D01*
X015046Y008636D02*
X015198Y008636D01*
X015122Y008559D02*
X015046Y008559D01*
X014998Y008481D02*
X015122Y008481D01*
X015404Y008636D02*
X020398Y008636D01*
X020398Y008713D02*
X019009Y008713D01*
X019062Y008790D02*
X019074Y008790D01*
X019244Y008790D02*
X020431Y008790D01*
X020201Y009640D02*
X018676Y009640D01*
X018643Y009606D02*
X018747Y009711D01*
X018747Y009859D01*
X018643Y009964D01*
X018494Y009964D01*
X018390Y009859D01*
X018390Y009711D01*
X018494Y009606D01*
X018643Y009606D01*
X018747Y009717D02*
X020201Y009717D01*
X020215Y009794D02*
X018747Y009794D01*
X018735Y009872D02*
X020292Y009872D01*
X020358Y009949D02*
X018657Y009949D01*
X018480Y009949D02*
X018434Y009949D01*
X018472Y009987D02*
X018367Y009882D01*
X018219Y009882D01*
X018114Y009987D01*
X018114Y010135D01*
X018219Y010239D01*
X018367Y010239D01*
X018472Y010135D01*
X018472Y009987D01*
X018472Y010026D02*
X019020Y010026D01*
X019046Y010000D02*
X019194Y010000D01*
X019298Y010105D01*
X019298Y010253D01*
X019194Y010357D01*
X019046Y010357D01*
X018941Y010253D01*
X018941Y010105D01*
X019046Y010000D01*
X018942Y010103D02*
X018472Y010103D01*
X018426Y010181D02*
X018941Y010181D01*
X018946Y010258D02*
X017837Y010258D01*
X017842Y010181D02*
X018160Y010181D01*
X018114Y010103D02*
X017840Y010103D01*
X017825Y010003D02*
X017720Y009898D01*
X017720Y009750D01*
X017825Y009646D01*
X017973Y009646D01*
X018078Y009750D01*
X018078Y009898D01*
X017973Y010003D01*
X017825Y010003D01*
X017763Y010026D02*
X018114Y010026D01*
X018152Y009949D02*
X018027Y009949D01*
X018078Y009872D02*
X018402Y009872D01*
X018390Y009794D02*
X018078Y009794D01*
X018045Y009717D02*
X018390Y009717D01*
X018461Y009640D02*
X013873Y009640D01*
X013905Y009672D02*
X013800Y009567D01*
X013652Y009567D01*
X013547Y009672D01*
X013547Y009820D01*
X013652Y009924D01*
X013800Y009924D01*
X013905Y009820D01*
X013905Y009672D01*
X013905Y009717D02*
X017754Y009717D01*
X017720Y009794D02*
X016153Y009794D01*
X016188Y009829D02*
X016083Y009724D01*
X015935Y009724D01*
X015831Y009829D01*
X015831Y009977D01*
X015935Y010082D01*
X016083Y010082D01*
X016188Y009977D01*
X016188Y009829D01*
X016188Y009872D02*
X017720Y009872D01*
X017771Y009949D02*
X016188Y009949D01*
X016139Y010026D02*
X017563Y010026D01*
X017489Y010258D02*
X014530Y010258D01*
X014574Y010335D02*
X017567Y010335D01*
X017759Y010335D02*
X019023Y010335D01*
X019216Y010335D02*
X020161Y010335D01*
X020205Y010258D02*
X019293Y010258D01*
X019298Y010181D02*
X026382Y010181D01*
X026426Y010258D02*
X020475Y010258D01*
X020519Y010335D02*
X026500Y010335D01*
X026500Y010412D02*
X020519Y010412D01*
X020479Y010490D02*
X026540Y010490D01*
X026311Y010103D02*
X019297Y010103D01*
X019220Y010026D02*
X020407Y010026D01*
X021331Y009099D02*
X019271Y009099D01*
X019338Y009022D02*
X021303Y009022D01*
X021303Y008945D02*
X019338Y008945D01*
X019321Y008868D02*
X021359Y008868D01*
X020519Y007477D02*
X023705Y007477D01*
X023705Y007400D02*
X020508Y007400D01*
X020430Y007323D02*
X023731Y007323D01*
X026508Y009794D02*
X026574Y009794D01*
X026783Y009794D02*
X035959Y009794D01*
X035959Y009717D02*
X035112Y009717D01*
X035189Y009640D02*
X035959Y009640D01*
X035959Y009563D02*
X035239Y009563D01*
X035271Y009485D02*
X035959Y009485D01*
X035959Y009408D02*
X035282Y009408D01*
X035282Y009331D02*
X035959Y009331D01*
X035959Y009254D02*
X035266Y009254D01*
X035234Y009176D02*
X035959Y009176D01*
X035959Y009099D02*
X035177Y009099D01*
X035096Y009022D02*
X035959Y009022D01*
X035959Y008945D02*
X027645Y008945D01*
X027645Y009022D02*
X034639Y009022D01*
X035104Y010026D02*
X035959Y010026D01*
X035959Y009949D02*
X026857Y009949D01*
X026857Y009872D02*
X035959Y009872D01*
X035959Y010103D02*
X035181Y010103D01*
X035235Y010181D02*
X035959Y010181D01*
X035959Y010258D02*
X035267Y010258D01*
X035282Y010335D02*
X035959Y010335D01*
X035959Y010412D02*
X035282Y010412D01*
X035269Y010490D02*
X035959Y010490D01*
X035959Y010567D02*
X035237Y010567D01*
X035185Y010644D02*
X035959Y010644D01*
X035959Y010721D02*
X035108Y010721D01*
X034950Y010961D02*
X035102Y011024D01*
X035219Y011141D01*
X035282Y011293D01*
X035282Y011458D01*
X035219Y011610D01*
X035102Y011727D01*
X034950Y011790D01*
X034785Y011790D01*
X034633Y011727D01*
X034517Y011610D01*
X034454Y011458D01*
X034454Y011293D01*
X034517Y011141D01*
X034633Y011024D01*
X034785Y010961D01*
X034950Y010961D01*
X035108Y011030D02*
X035959Y011030D01*
X035959Y010953D02*
X032630Y010953D01*
X032596Y010987D02*
X032415Y010987D01*
X032287Y010860D01*
X032287Y010679D01*
X032415Y010551D01*
X032596Y010551D01*
X032724Y010679D01*
X032724Y010860D01*
X032596Y010987D01*
X032707Y010876D02*
X035959Y010876D01*
X035959Y010799D02*
X032724Y010799D01*
X032724Y010721D02*
X034628Y010721D01*
X034550Y010644D02*
X032689Y010644D01*
X032611Y010567D02*
X034499Y010567D01*
X034467Y010490D02*
X027369Y010490D01*
X027323Y010412D02*
X034454Y010412D01*
X034627Y011030D02*
X032288Y011030D01*
X032330Y011108D02*
X034550Y011108D01*
X034498Y011185D02*
X032330Y011185D01*
X032321Y011262D02*
X034466Y011262D01*
X034454Y011339D02*
X032597Y011339D01*
X032674Y011416D02*
X034454Y011416D01*
X034468Y011494D02*
X032724Y011494D01*
X032724Y011571D02*
X034500Y011571D01*
X034555Y011648D02*
X032722Y011648D01*
X032645Y011725D02*
X034632Y011725D01*
X035104Y011725D02*
X035959Y011725D01*
X035959Y011648D02*
X035181Y011648D01*
X035235Y011571D02*
X035959Y011571D01*
X035959Y011494D02*
X035267Y011494D01*
X035282Y011416D02*
X035959Y011416D01*
X035959Y011339D02*
X035282Y011339D01*
X035269Y011262D02*
X035959Y011262D01*
X035959Y011185D02*
X035237Y011185D01*
X035185Y011108D02*
X035959Y011108D01*
X035959Y011803D02*
X032273Y011803D01*
X032289Y011648D02*
X031935Y011648D01*
X031936Y011571D02*
X032287Y011571D01*
X032287Y011494D02*
X031936Y011494D01*
X031886Y011416D02*
X032337Y011416D01*
X032415Y011339D02*
X032244Y011339D01*
X031980Y011339D02*
X031809Y011339D01*
X031843Y010953D02*
X032013Y010953D01*
X031920Y010876D02*
X032304Y010876D01*
X032287Y010799D02*
X031936Y010799D01*
X031936Y010721D02*
X032287Y010721D01*
X032322Y010644D02*
X031901Y010644D01*
X031824Y010567D02*
X032400Y010567D01*
X032381Y010953D02*
X032210Y010953D01*
X035959Y008868D02*
X027628Y008868D01*
X027566Y008790D02*
X035959Y008790D01*
X035959Y008713D02*
X027566Y008713D01*
X027554Y008636D02*
X035959Y008636D01*
X035959Y008559D02*
X027477Y008559D01*
X021933Y004388D02*
X019495Y004388D01*
X019554Y004363D02*
X019413Y004422D01*
X019260Y004422D01*
X019118Y004363D01*
X019010Y004255D01*
X018952Y004114D01*
X018952Y003960D01*
X019010Y003819D01*
X019118Y003711D01*
X019260Y003652D01*
X019413Y003652D01*
X019554Y003711D01*
X019662Y003819D01*
X019721Y003960D01*
X019721Y004114D01*
X019662Y004255D01*
X019554Y004363D01*
X019607Y004310D02*
X021821Y004310D01*
X021757Y004233D02*
X019671Y004233D01*
X019703Y004156D02*
X021725Y004156D01*
X021707Y004079D02*
X019721Y004079D01*
X019721Y004001D02*
X021707Y004001D01*
X021723Y003924D02*
X019706Y003924D01*
X019674Y003847D02*
X021755Y003847D01*
X021815Y003770D02*
X019613Y003770D01*
X019509Y003692D02*
X021919Y003692D01*
X019163Y003692D02*
X016754Y003692D01*
X016798Y003711D02*
X016906Y003819D01*
X016965Y003960D01*
X016965Y004114D01*
X016906Y004255D01*
X016798Y004363D01*
X016657Y004422D01*
X016504Y004422D01*
X016362Y004363D01*
X016254Y004255D01*
X016196Y004114D01*
X016196Y003960D01*
X016254Y003819D01*
X016362Y003711D01*
X016504Y003652D01*
X016657Y003652D01*
X016798Y003711D01*
X016857Y003770D02*
X019060Y003770D01*
X018999Y003847D02*
X016918Y003847D01*
X016950Y003924D02*
X018967Y003924D01*
X018952Y004001D02*
X016965Y004001D01*
X016965Y004079D02*
X018952Y004079D01*
X018969Y004156D02*
X016947Y004156D01*
X016915Y004233D02*
X019001Y004233D01*
X019066Y004310D02*
X016851Y004310D01*
X016739Y004388D02*
X019177Y004388D01*
X017653Y006550D02*
X015153Y006550D01*
X015231Y006628D02*
X017642Y006628D01*
X017642Y006705D02*
X015243Y006705D01*
X015243Y006782D02*
X017714Y006782D01*
X019319Y007786D02*
X019353Y007786D01*
X019643Y007323D02*
X019777Y007323D01*
X020037Y007323D02*
X020171Y007323D01*
X016422Y004388D02*
X012015Y004388D01*
X012015Y004317D02*
X011910Y004213D01*
X011762Y004213D01*
X011657Y004317D01*
X011657Y004465D01*
X011657Y004388D02*
X011503Y004388D01*
X011503Y004317D02*
X011398Y004213D01*
X011250Y004213D01*
X011146Y004317D01*
X011146Y004465D01*
X011146Y004388D02*
X008708Y004388D01*
X008819Y004310D02*
X011153Y004310D01*
X011230Y004233D02*
X008884Y004233D01*
X008916Y004156D02*
X016213Y004156D01*
X016196Y004079D02*
X010709Y004079D01*
X010690Y004098D02*
X010542Y004098D01*
X010437Y003993D01*
X010437Y003845D01*
X010542Y003740D01*
X010690Y003740D01*
X010794Y003845D01*
X010794Y003993D01*
X010690Y004098D01*
X010786Y004001D02*
X016196Y004001D01*
X016211Y003924D02*
X010794Y003924D01*
X010794Y003847D02*
X016243Y003847D01*
X016304Y003770D02*
X010719Y003770D01*
X010512Y003770D02*
X008825Y003770D01*
X008886Y003847D02*
X010437Y003847D01*
X010437Y003924D02*
X008918Y003924D01*
X008933Y004001D02*
X010445Y004001D01*
X010523Y004079D02*
X008933Y004079D01*
X008722Y003692D02*
X016407Y003692D01*
X016245Y004233D02*
X011931Y004233D01*
X012008Y004310D02*
X016310Y004310D01*
X015573Y004851D02*
X012842Y004851D01*
X012812Y004928D02*
X015516Y004928D01*
X015328Y006010D02*
X015313Y006010D01*
X015887Y007632D02*
X010684Y007632D01*
X010716Y007709D02*
X015964Y007709D01*
X014255Y007941D02*
X012095Y007941D01*
X012133Y008018D02*
X014217Y008018D01*
X014217Y008095D02*
X012133Y008095D01*
X012087Y008172D02*
X014262Y008172D01*
X015463Y009331D02*
X009866Y009331D01*
X009928Y009254D02*
X015540Y009254D01*
X015865Y009794D02*
X013905Y009794D01*
X013853Y009872D02*
X015831Y009872D01*
X015831Y009949D02*
X010204Y009949D01*
X010204Y009872D02*
X010883Y009872D01*
X010831Y009794D02*
X010130Y009794D01*
X010194Y010026D02*
X015880Y010026D01*
X015122Y011262D02*
X012582Y011262D01*
X012645Y011339D02*
X015146Y011339D01*
X016776Y011957D02*
X008474Y011957D01*
X008550Y012034D02*
X016825Y012034D01*
X017084Y012034D02*
X018164Y012034D01*
X018086Y011957D02*
X017133Y011957D01*
X017133Y011880D02*
X018075Y011880D01*
X018075Y011803D02*
X017099Y011803D01*
X017091Y012189D02*
X021146Y012189D01*
X021151Y012266D02*
X018428Y012266D01*
X018472Y012309D02*
X018367Y012205D01*
X018219Y012205D01*
X018114Y012309D01*
X018114Y012458D01*
X018219Y012562D01*
X018367Y012562D01*
X018472Y012458D01*
X018472Y012309D01*
X018472Y012343D02*
X021228Y012343D01*
X021113Y012421D02*
X020984Y012421D01*
X020798Y012421D02*
X020591Y012421D01*
X020572Y012402D02*
X020676Y012506D01*
X020676Y012654D01*
X020572Y012759D01*
X020424Y012759D01*
X020319Y012654D01*
X020319Y012506D01*
X020424Y012402D01*
X020572Y012402D01*
X020668Y012498D02*
X020721Y012498D01*
X020713Y012575D02*
X020676Y012575D01*
X020676Y012652D02*
X020713Y012652D01*
X020788Y012730D02*
X020601Y012730D01*
X020394Y012730D02*
X019968Y012730D01*
X019917Y012652D02*
X020319Y012652D01*
X020319Y012575D02*
X018117Y012575D01*
X018117Y012652D02*
X019661Y012652D01*
X019610Y012730D02*
X018081Y012730D01*
X018070Y012498D02*
X018155Y012498D01*
X018114Y012421D02*
X017091Y012421D01*
X017133Y012343D02*
X018114Y012343D01*
X018157Y012266D02*
X017133Y012266D01*
X018344Y012034D02*
X019384Y012034D01*
X019335Y011957D02*
X018421Y011957D01*
X018432Y011880D02*
X019335Y011880D01*
X019369Y011803D02*
X018432Y011803D01*
X018472Y012421D02*
X020405Y012421D01*
X020327Y012498D02*
X018431Y012498D01*
X020314Y012112D02*
X021147Y012112D01*
X021224Y012034D02*
X020391Y012034D01*
X020995Y012730D02*
X021103Y012730D01*
X021115Y013811D02*
X027394Y013811D01*
X027394Y013734D02*
X027353Y013734D01*
X027186Y013734D02*
X008833Y013734D01*
X008619Y013734D02*
X005340Y013734D01*
X005340Y013811D02*
X008547Y013811D01*
X008547Y013888D02*
X005340Y013888D01*
X005340Y013965D02*
X008559Y013965D01*
X008636Y014043D02*
X005340Y014043D01*
X006596Y013347D02*
X009500Y013347D01*
X009577Y013425D02*
X006674Y013425D01*
X009490Y014352D02*
X014458Y014352D01*
X014223Y014429D02*
X009535Y014429D01*
X009239Y017287D02*
X009118Y017287D01*
X012606Y018136D02*
X022468Y018136D01*
X022445Y018214D02*
X012645Y018214D01*
X012645Y018291D02*
X022445Y018291D01*
X022473Y018368D02*
X012600Y018368D01*
X011783Y021380D02*
X000705Y021380D01*
X000705Y021458D02*
X011705Y021458D01*
X011657Y021535D02*
X000705Y021535D01*
X000705Y021612D02*
X011657Y021612D01*
X011661Y021689D02*
X000705Y021689D01*
X000705Y021767D02*
X011738Y021767D01*
X012094Y022925D02*
X012445Y022925D01*
X012462Y023003D02*
X012077Y023003D01*
X012000Y023080D02*
X012539Y023080D01*
X017004Y025320D02*
X020661Y025320D01*
X020474Y025397D02*
X017004Y025397D01*
X016995Y025474D02*
X020350Y025474D01*
X020273Y025551D02*
X016963Y025551D01*
X016911Y025629D02*
X020196Y025629D01*
X020135Y025706D02*
X016827Y025706D01*
X022230Y020685D02*
X003107Y020685D01*
X002927Y020685D02*
X000705Y020685D01*
X000705Y020608D02*
X005517Y020608D01*
X005476Y020568D02*
X005476Y020420D01*
X005581Y020315D01*
X005729Y020315D01*
X005834Y020420D01*
X005834Y020568D01*
X005729Y020672D01*
X005581Y020672D01*
X005476Y020568D01*
X005476Y020531D02*
X000705Y020531D01*
X000705Y020454D02*
X004929Y020454D01*
X004886Y020376D02*
X000705Y020376D01*
X000705Y020763D02*
X002850Y020763D01*
X002839Y020840D02*
X000705Y020840D01*
X000705Y020917D02*
X002839Y020917D01*
X002911Y020994D02*
X000705Y020994D01*
X000705Y021072D02*
X005240Y021072D01*
X005240Y020994D02*
X003124Y020994D01*
X003196Y020917D02*
X005294Y020917D01*
X005270Y021149D02*
X000705Y021149D01*
X000705Y021844D02*
X002717Y021844D01*
X002746Y021815D02*
X002895Y021815D01*
X002999Y021919D01*
X002999Y022068D01*
X002959Y022108D01*
X002999Y022148D01*
X002999Y022296D01*
X002895Y022401D01*
X002746Y022401D01*
X002642Y022296D01*
X002642Y022148D01*
X002682Y022108D01*
X002642Y022068D01*
X002642Y021919D01*
X002746Y021815D01*
X002642Y021921D02*
X000705Y021921D01*
X000705Y021998D02*
X002642Y021998D01*
X002650Y022076D02*
X000705Y022076D01*
X000705Y022153D02*
X002642Y022153D01*
X002642Y022230D02*
X000705Y022230D01*
X000705Y022307D02*
X002653Y022307D01*
X002730Y022385D02*
X000705Y022385D01*
X002911Y022385D02*
X005328Y022385D01*
X005251Y022307D02*
X002988Y022307D01*
X002999Y022230D02*
X005240Y022230D01*
X005240Y022153D02*
X002999Y022153D01*
X002991Y022076D02*
X005248Y022076D01*
X005240Y021998D02*
X002999Y021998D01*
X002999Y021921D02*
X005240Y021921D01*
X005316Y021844D02*
X002924Y021844D01*
X005200Y020454D02*
X005476Y020454D01*
X005520Y020376D02*
X005243Y020376D01*
X005243Y020299D02*
X005798Y020299D01*
X005791Y020376D02*
X006112Y020376D01*
X006067Y020299D02*
X006063Y020299D01*
X005834Y020454D02*
X006701Y020454D01*
X006624Y020376D02*
X006380Y020376D01*
X006424Y020299D02*
X006618Y020299D01*
X006619Y020222D02*
X006424Y020222D01*
X006386Y020145D02*
X006696Y020145D01*
X006893Y020454D02*
X022490Y020454D01*
X022369Y020531D02*
X005834Y020531D01*
X005794Y020608D02*
X022291Y020608D01*
X022788Y017673D02*
X022931Y017673D01*
X023182Y017673D02*
X023325Y017673D01*
X023298Y016437D02*
X023209Y016437D01*
X020943Y016051D02*
X020839Y016051D01*
X021149Y013888D02*
X027447Y013888D01*
X027699Y013888D02*
X027706Y013888D01*
X014607Y014738D02*
X014420Y014738D01*
X014138Y014583D02*
X014131Y014583D01*
X014146Y014506D02*
X014054Y014506D01*
X012895Y009924D02*
X012746Y009924D01*
X012642Y009820D01*
X012642Y009672D01*
X012746Y009567D01*
X012895Y009567D01*
X012999Y009672D01*
X012999Y009820D01*
X012895Y009924D01*
X012947Y009872D02*
X013599Y009872D01*
X013547Y009794D02*
X012999Y009794D01*
X012999Y009717D02*
X013547Y009717D01*
X013579Y009640D02*
X012968Y009640D01*
X012673Y009640D02*
X011156Y009640D01*
X011188Y009717D02*
X012642Y009717D01*
X012642Y009794D02*
X011188Y009794D01*
X011136Y009872D02*
X012694Y009872D01*
X012210Y006396D02*
X012014Y006396D01*
X012091Y006319D02*
X012133Y006319D01*
X011805Y004928D02*
X005151Y004928D01*
X005228Y004851D02*
X011736Y004851D01*
X011736Y004774D02*
X011510Y004774D01*
X011543Y004697D02*
X011751Y004697D01*
X011828Y004619D02*
X011543Y004619D01*
X011492Y004542D02*
X011734Y004542D01*
X011664Y004310D02*
X011496Y004310D01*
X011503Y004317D02*
X011503Y004465D01*
X011419Y004233D02*
X011742Y004233D01*
X012015Y004317D02*
X012015Y004465D01*
X011222Y004542D02*
X005130Y004542D01*
X005207Y004619D02*
X011185Y004619D01*
X011185Y004697D02*
X005243Y004697D01*
X005243Y004774D02*
X011218Y004774D01*
X009828Y005392D02*
X009816Y005392D01*
X009768Y005314D02*
X009739Y005314D01*
X009572Y005237D02*
X009407Y005237D01*
X008902Y006164D02*
X000705Y006164D01*
X000705Y006241D02*
X002017Y006241D01*
X001940Y006319D02*
X000705Y006319D01*
X000705Y007323D02*
X001172Y007323D01*
X001106Y007400D02*
X000705Y007400D01*
X000705Y007477D02*
X001106Y007477D01*
X001125Y007554D02*
X000705Y007554D01*
X000705Y007632D02*
X001202Y007632D01*
X001368Y007632D02*
X001533Y007632D01*
X001456Y007709D02*
X000705Y007709D01*
X000705Y007786D02*
X001416Y007786D01*
X001384Y007863D02*
X000705Y007863D01*
X000705Y007941D02*
X001358Y007941D01*
X001358Y008018D02*
X000705Y008018D01*
X000705Y008095D02*
X001358Y008095D01*
X001368Y008172D02*
X000705Y008172D01*
X000705Y008250D02*
X001400Y008250D01*
X001432Y008327D02*
X000705Y008327D01*
X000705Y008404D02*
X001495Y008404D01*
X001572Y008481D02*
X000705Y008481D01*
X000705Y008559D02*
X001719Y008559D01*
X001933Y006473D02*
X001933Y006325D01*
X000705Y004079D02*
X008164Y004079D01*
X008164Y004001D02*
X000705Y004001D01*
X000705Y003924D02*
X008179Y003924D01*
X008211Y003847D02*
X000705Y003847D01*
X000705Y003770D02*
X008272Y003770D01*
X008376Y003692D02*
X000705Y003692D01*
X000705Y003152D02*
X003792Y003152D01*
X003715Y003075D02*
X000705Y003075D01*
X000705Y002997D02*
X003705Y002997D01*
X003705Y002920D02*
X000705Y002920D01*
X000705Y002843D02*
X003746Y002843D01*
X003800Y002766D02*
X000705Y002766D01*
X000705Y002688D02*
X003722Y002688D01*
X003705Y002611D02*
X000705Y002611D01*
X002553Y000912D02*
X026277Y000912D01*
X026313Y000948D02*
X026185Y000820D01*
X026185Y000640D01*
X026313Y000512D01*
X026493Y000512D01*
X026621Y000640D01*
X026621Y000820D01*
X026493Y000948D01*
X026313Y000948D01*
X026199Y000835D02*
X002366Y000835D01*
X002710Y000989D02*
X028724Y000989D01*
X028724Y000912D02*
X026530Y000912D01*
X026607Y000835D02*
X028724Y000835D01*
X028681Y000757D02*
X028795Y000757D01*
X028765Y001066D02*
X002787Y001066D01*
X001438Y000448D02*
X010960Y000448D01*
X010975Y000433D02*
X011123Y000433D01*
X011228Y000538D01*
X011228Y000686D01*
X011123Y000791D01*
X010975Y000791D01*
X010870Y000686D01*
X010870Y000538D01*
X010975Y000433D01*
X010882Y000526D02*
X001304Y000526D01*
X001219Y000603D02*
X010870Y000603D01*
X010870Y000680D02*
X001142Y000680D01*
X001065Y000757D02*
X010942Y000757D01*
X011156Y000757D02*
X012438Y000757D01*
X012471Y000791D02*
X012366Y000686D01*
X012366Y000538D01*
X012471Y000433D01*
X012619Y000433D01*
X012724Y000538D01*
X012724Y000686D01*
X012619Y000791D01*
X012471Y000791D01*
X012366Y000680D02*
X011228Y000680D01*
X011228Y000603D02*
X012366Y000603D01*
X012378Y000526D02*
X011215Y000526D01*
X011138Y000448D02*
X012456Y000448D01*
X012634Y000448D02*
X028331Y000448D01*
X028331Y000526D02*
X026507Y000526D01*
X026584Y000603D02*
X028331Y000603D01*
X028379Y000680D02*
X026621Y000680D01*
X026621Y000757D02*
X028456Y000757D01*
X028728Y001143D02*
X028843Y001143D01*
X028805Y001221D02*
X029119Y001221D01*
X029118Y001222D02*
X029257Y001083D01*
X029454Y001083D01*
X029594Y001222D01*
X029594Y001419D01*
X029454Y001558D01*
X029257Y001558D01*
X029118Y001419D01*
X029118Y001222D01*
X029118Y001298D02*
X028806Y001298D01*
X028806Y001375D02*
X029118Y001375D01*
X029152Y001452D02*
X028773Y001452D01*
X028810Y001530D02*
X028696Y001530D01*
X028713Y001916D02*
X028828Y001916D01*
X028790Y001993D02*
X029134Y001993D01*
X029118Y002009D02*
X029257Y001870D01*
X029454Y001870D01*
X029594Y002009D01*
X029594Y002206D01*
X029454Y002346D01*
X029257Y002346D01*
X029118Y002206D01*
X029118Y002009D01*
X029118Y002070D02*
X028806Y002070D01*
X028806Y002148D02*
X029118Y002148D01*
X029137Y002225D02*
X028788Y002225D01*
X028825Y002302D02*
X028711Y002302D01*
X028698Y002688D02*
X028813Y002688D01*
X028775Y002766D02*
X029149Y002766D01*
X029118Y002797D02*
X029257Y002657D01*
X029454Y002657D01*
X029594Y002797D01*
X029594Y002994D01*
X029454Y003133D01*
X029257Y003133D01*
X029118Y002994D01*
X029118Y002797D01*
X029118Y002843D02*
X028806Y002843D01*
X028806Y002920D02*
X029118Y002920D01*
X029122Y002997D02*
X028803Y002997D01*
X028726Y003075D02*
X029199Y003075D01*
X029513Y003075D02*
X029986Y003075D01*
X030045Y003133D02*
X029906Y002994D01*
X029906Y002797D01*
X030045Y002657D01*
X030242Y002657D01*
X030381Y002797D01*
X030381Y002994D01*
X030242Y003133D01*
X030045Y003133D01*
X029909Y002997D02*
X029590Y002997D01*
X029594Y002920D02*
X029906Y002920D01*
X029906Y002843D02*
X029594Y002843D01*
X029562Y002766D02*
X029937Y002766D01*
X029899Y002688D02*
X030014Y002688D01*
X029976Y002611D02*
X030310Y002611D01*
X030299Y002534D02*
X029987Y002534D01*
X029987Y002600D02*
X029987Y002403D01*
X029848Y002264D01*
X029651Y002264D01*
X029512Y002403D01*
X029512Y002600D01*
X029651Y002739D01*
X029848Y002739D01*
X029987Y002600D01*
X029987Y002457D02*
X030299Y002457D01*
X030323Y002379D02*
X029964Y002379D01*
X030001Y002302D02*
X029886Y002302D01*
X029924Y002225D02*
X029575Y002225D01*
X029594Y002148D02*
X029906Y002148D01*
X029906Y002070D02*
X029594Y002070D01*
X029577Y001993D02*
X029922Y001993D01*
X029884Y001916D02*
X029999Y001916D01*
X029615Y001916D02*
X029500Y001916D01*
X029538Y001839D02*
X029174Y001839D01*
X029200Y001761D02*
X029512Y001761D01*
X029512Y001684D02*
X029200Y001684D01*
X029191Y001607D02*
X029521Y001607D01*
X029483Y001530D02*
X029598Y001530D01*
X029560Y001452D02*
X029939Y001452D01*
X029906Y001375D02*
X029594Y001375D01*
X029594Y001298D02*
X029906Y001298D01*
X029907Y001221D02*
X029592Y001221D01*
X029630Y001143D02*
X029515Y001143D01*
X029553Y001066D02*
X029159Y001066D01*
X029197Y001143D02*
X029082Y001143D01*
X029200Y000989D02*
X029512Y000989D01*
X029512Y000912D02*
X029200Y000912D01*
X029869Y001143D02*
X029984Y001143D01*
X030016Y001530D02*
X029901Y001530D01*
X029229Y001530D02*
X029114Y001530D01*
X029097Y001916D02*
X029212Y001916D01*
X029214Y002302D02*
X029099Y002302D01*
X029176Y002379D02*
X029536Y002379D01*
X029512Y002457D02*
X029200Y002457D01*
X029200Y002534D02*
X029512Y002534D01*
X029523Y002611D02*
X029189Y002611D01*
X029227Y002688D02*
X029112Y002688D01*
X029485Y002688D02*
X029600Y002688D01*
X029613Y002302D02*
X029498Y002302D01*
X030285Y002302D02*
X030400Y002302D01*
X030387Y002688D02*
X030273Y002688D01*
X030350Y002766D02*
X030724Y002766D01*
X030693Y002843D02*
X030381Y002843D01*
X030381Y002920D02*
X030693Y002920D01*
X030696Y002997D02*
X030378Y002997D01*
X030300Y003075D02*
X030774Y003075D01*
X030801Y002688D02*
X030687Y002688D01*
X030689Y001530D02*
X030804Y001530D01*
X030771Y001143D02*
X030657Y001143D01*
X030031Y000757D02*
X029916Y000757D01*
X026299Y000526D02*
X012711Y000526D01*
X012724Y000603D02*
X026222Y000603D01*
X026185Y000680D02*
X012724Y000680D01*
X012652Y000757D02*
X026185Y000757D01*
X013420Y002302D02*
X010237Y002302D01*
X010160Y002379D02*
X013343Y002379D01*
X013311Y002457D02*
X004895Y002457D01*
X004928Y002534D02*
X013311Y002534D01*
X013330Y002611D02*
X004928Y002611D01*
X004911Y002688D02*
X013407Y002688D01*
X004580Y003152D02*
X004447Y003152D01*
X004186Y003152D02*
X004054Y003152D01*
X005203Y020222D02*
X005752Y020222D01*
X006414Y024625D02*
X000705Y024625D01*
X000705Y024702D02*
X006337Y024702D01*
X006943Y024625D02*
X007398Y024625D01*
X007321Y024702D02*
X007021Y024702D01*
X007057Y024779D02*
X007285Y024779D01*
X007253Y024856D02*
X007089Y024856D01*
X007091Y024934D02*
X007251Y024934D01*
X007251Y025011D02*
X007091Y025011D01*
X007064Y025088D02*
X007277Y025088D01*
X007309Y025165D02*
X007032Y025165D01*
X006961Y025243D02*
X007381Y025243D01*
X007497Y025320D02*
X006844Y025320D01*
X006928Y025397D02*
X007413Y025397D01*
X007336Y025474D02*
X007006Y025474D01*
X007051Y025551D02*
X007291Y025551D01*
X007259Y025629D02*
X007083Y025629D01*
X007091Y025706D02*
X007251Y025706D01*
X007251Y025783D02*
X007091Y025783D01*
X007070Y025860D02*
X007271Y025860D01*
X007303Y025938D02*
X007038Y025938D01*
X006976Y026015D02*
X007366Y026015D01*
X007461Y026092D02*
X006881Y026092D01*
X005010Y026556D02*
X004458Y026556D01*
X004541Y026633D02*
X004926Y026633D01*
X004869Y026710D02*
X004599Y026710D01*
X004631Y026787D02*
X004837Y026787D01*
X004820Y026865D02*
X004648Y026865D01*
X004648Y026942D02*
X004820Y026942D01*
X004830Y027019D02*
X004637Y027019D01*
X004605Y027096D02*
X004862Y027096D01*
X004911Y027174D02*
X004557Y027174D01*
X004480Y027251D02*
X004988Y027251D01*
X004010Y026556D02*
X002964Y026556D01*
X002926Y026633D02*
X003926Y026633D01*
X003869Y026710D02*
X002848Y026710D01*
X002771Y026787D02*
X003837Y026787D01*
X003820Y026865D02*
X002694Y026865D01*
X002515Y026942D02*
X003820Y026942D01*
X001860Y027560D02*
X034805Y027560D01*
X035066Y027482D02*
X001599Y027482D01*
X001465Y027405D02*
X035200Y027405D01*
X004544Y024856D02*
X004404Y024856D01*
X004456Y024908D02*
X004351Y024803D01*
X004203Y024803D01*
X004098Y024908D01*
X004098Y025056D01*
X004203Y025161D01*
X004351Y025161D01*
X004456Y025056D01*
X004456Y024908D01*
X004456Y024934D02*
X004492Y024934D01*
X004492Y025011D02*
X004456Y025011D01*
X004424Y025088D02*
X004524Y025088D01*
X004131Y025088D02*
X004030Y025088D01*
X004062Y025011D02*
X004098Y025011D01*
X004098Y024934D02*
X004062Y024934D01*
X004011Y024856D02*
X004150Y024856D01*
D20*
X029750Y024155D03*
X030143Y023761D03*
X029750Y023368D03*
X030143Y022974D03*
X029750Y022580D03*
X030143Y021793D03*
X029750Y021399D03*
X030143Y021006D03*
X029750Y020612D03*
X031718Y021006D03*
X032112Y021399D03*
X031718Y021793D03*
X032112Y022580D03*
X031718Y022974D03*
X032112Y023368D03*
X031718Y023761D03*
X031324Y024155D03*
X030537Y024155D03*
X032112Y024155D03*
X032899Y024155D03*
X033293Y023761D03*
X032899Y023368D03*
X033293Y022974D03*
X032899Y022580D03*
X033293Y021793D03*
X032899Y021399D03*
X032506Y021006D03*
X032899Y020612D03*
X033293Y021006D03*
X032112Y020612D03*
X034868Y021006D03*
X035261Y021399D03*
X034868Y021793D03*
X035261Y022580D03*
X034868Y022974D03*
X035261Y023368D03*
X034868Y023761D03*
X035261Y024155D03*
X034474Y024155D03*
X033687Y024155D03*
X035261Y020612D03*
X033293Y002895D03*
X032899Y002502D03*
X032506Y002108D03*
X032899Y001714D03*
X032506Y001320D03*
X032899Y000927D03*
X032506Y000533D03*
X032112Y000927D03*
X031718Y001320D03*
X031324Y000927D03*
X030931Y001320D03*
X030537Y000927D03*
X030143Y001320D03*
X029750Y000927D03*
X029356Y001320D03*
X028962Y000927D03*
X028569Y001320D03*
X028962Y001714D03*
X028569Y002108D03*
X028962Y002502D03*
X029356Y002108D03*
X029750Y002502D03*
X030143Y002108D03*
X029750Y001714D03*
X030537Y001714D03*
X030931Y002108D03*
X031324Y002502D03*
X031718Y002108D03*
X032112Y002502D03*
X032506Y002895D03*
X031718Y002895D03*
X030931Y002895D03*
X030537Y002502D03*
X030143Y002895D03*
X029356Y002895D03*
X028569Y002895D03*
X031324Y001714D03*
X032112Y001714D03*
X031718Y000533D03*
X030931Y000533D03*
X030143Y000533D03*
X029356Y000533D03*
X028569Y000533D03*
X033293Y000533D03*
D21*
X034474Y001714D03*
X034474Y026124D03*
X002191Y026124D03*
X002191Y001714D03*
M02*
