G75*
%MOIN*%
%OFA0B0*%
%FSLAX24Y24*%
%IPPOS*%
%LPD*%
%AMOC8*
5,1,8,0,0,1.08239X$1,22.5*
%
%ADD10R,0.0118X0.0630*%
%ADD11R,0.1181X0.1181*%
%ADD12R,0.0197X0.0236*%
%ADD13R,0.0236X0.0197*%
%ADD14R,0.0630X0.0710*%
%ADD15R,0.0630X0.0118*%
%ADD16R,0.0710X0.0630*%
D10*
X011334Y001557D03*
X011590Y001557D03*
X011846Y001557D03*
X012102Y001557D03*
X012358Y001557D03*
X012614Y001557D03*
X012870Y001557D03*
X013126Y001557D03*
X013126Y003761D03*
X012870Y003761D03*
X012614Y003761D03*
X012358Y003761D03*
X012102Y003761D03*
X011846Y003761D03*
X011590Y003761D03*
X011334Y003761D03*
X024641Y003683D03*
X024897Y003683D03*
X025153Y003683D03*
X025409Y003683D03*
X025665Y003683D03*
X025921Y003683D03*
X026177Y003683D03*
X026433Y003683D03*
X026433Y001478D03*
X026177Y001478D03*
X025921Y001478D03*
X025665Y001478D03*
X025409Y001478D03*
X025153Y001478D03*
X024897Y001478D03*
X024641Y001478D03*
D11*
X025537Y002580D03*
X019356Y006242D03*
X012230Y002659D03*
D12*
X012131Y000966D03*
X012289Y000612D03*
X011856Y000612D03*
X012565Y000966D03*
X012525Y004391D03*
X012092Y004391D03*
X017250Y006360D03*
X017683Y006360D03*
X018746Y007502D03*
X019179Y007502D03*
X020990Y005533D03*
X020990Y005218D03*
X020675Y005061D03*
X020242Y005061D03*
X021423Y005218D03*
X021423Y005533D03*
X024612Y004391D03*
X025045Y004391D03*
X025281Y004194D03*
X025714Y004194D03*
X025872Y000848D03*
X025439Y000848D03*
X025557Y000533D03*
X025124Y000533D03*
D13*
X011049Y004017D03*
X011049Y004450D03*
X013529Y003269D03*
X013529Y002836D03*
X011561Y001025D03*
X011246Y001025D03*
X011246Y000592D03*
X011561Y000592D03*
X017309Y005631D03*
X017624Y005631D03*
X017624Y006065D03*
X017309Y006065D03*
X021088Y006143D03*
X021403Y006261D03*
X021088Y006576D03*
X021403Y005828D03*
X026836Y003151D03*
X026836Y002718D03*
X024828Y000946D03*
X024513Y000946D03*
X024513Y000513D03*
X024828Y000513D03*
D14*
X014719Y003801D03*
X013599Y003801D03*
D15*
X018254Y005346D03*
X018254Y005602D03*
X018254Y005858D03*
X018254Y006114D03*
X018254Y006370D03*
X018254Y006626D03*
X018254Y006881D03*
X018254Y007137D03*
X020458Y007137D03*
X020458Y006881D03*
X020458Y006626D03*
X020458Y006370D03*
X020458Y006114D03*
X020458Y005858D03*
X020458Y005602D03*
X020458Y005346D03*
D16*
X018214Y007611D03*
X018214Y008731D03*
X026954Y004833D03*
X026954Y003713D03*
M02*
