G75*
%MOIN*%
%OFA0B0*%
%FSLAX24Y24*%
%IPPOS*%
%LPD*%
%AMOC8*
5,1,8,0,0,1.08239X$1,22.5*
%
%ADD10R,0.0591X0.0276*%
%ADD11R,0.0297X0.0591*%
%ADD12R,0.0276X0.0591*%
%ADD13R,0.0118X0.0236*%
%ADD14C,0.0040*%
%ADD15R,0.0315X0.0315*%
%ADD16R,0.0236X0.0197*%
%ADD17R,0.0531X0.0157*%
%ADD18R,0.0630X0.0827*%
%ADD19R,0.0748X0.0709*%
%ADD20R,0.0748X0.0748*%
%ADD21R,0.0394X0.0433*%
%ADD22R,0.0236X0.0433*%
%ADD23R,0.0197X0.0236*%
%ADD24R,0.0512X0.0591*%
%ADD25R,0.0433X0.0236*%
%ADD26R,0.0630X0.0709*%
%ADD27R,0.0098X0.0610*%
%ADD28R,0.0610X0.0098*%
%ADD29R,0.0630X0.0118*%
%ADD30R,0.1181X0.1181*%
%ADD31R,0.0630X0.0710*%
%ADD32R,0.0295X0.0266*%
%ADD33R,0.0486X0.0618*%
%ADD34R,0.0624X0.0618*%
%ADD35R,0.0630X0.1063*%
%ADD36R,0.0610X0.1004*%
%ADD37R,0.0984X0.1280*%
%ADD38R,0.0906X0.0984*%
%ADD39R,0.0256X0.0394*%
%ADD40R,0.0610X0.0118*%
%ADD41R,0.1421X0.2500*%
%ADD42R,0.0433X0.0177*%
%ADD43R,0.0276X0.0354*%
%ADD44R,0.0354X0.0276*%
%ADD45R,0.0320X0.0660*%
%ADD46R,0.0689X0.1535*%
%ADD47R,0.0433X0.1535*%
%ADD48R,0.0591X0.0512*%
%ADD49R,0.0787X0.0787*%
%ADD50R,0.0787X0.0630*%
%ADD51R,0.0630X0.1260*%
%ADD52R,0.1260X0.0630*%
%ADD53R,0.0098X0.0364*%
%ADD54R,0.0315X0.0098*%
%ADD55R,0.0748X0.0512*%
%ADD56R,0.0551X0.0394*%
%ADD57R,0.0591X0.1339*%
%ADD58R,0.0394X0.1378*%
%ADD59C,0.0138*%
%ADD60R,0.0394X0.0256*%
D10*
X007812Y013210D03*
X007812Y013604D03*
X007812Y013998D03*
X007812Y014391D03*
X007812Y014785D03*
X007812Y015179D03*
X007812Y015572D03*
X007812Y016754D03*
X007812Y017147D03*
X007812Y017541D03*
X007812Y017935D03*
X007812Y018328D03*
X007812Y018722D03*
X007812Y019116D03*
D11*
X007191Y012589D03*
D12*
X006797Y012589D03*
X006403Y012589D03*
X006009Y012589D03*
X005616Y012589D03*
X005222Y012589D03*
X004828Y012589D03*
X004435Y012589D03*
X004041Y012589D03*
X004041Y019737D03*
X004435Y019737D03*
X004828Y019737D03*
X005222Y019737D03*
X005616Y019737D03*
X006009Y019737D03*
X006403Y019737D03*
X006797Y019737D03*
X007191Y019737D03*
D13*
X004651Y021320D03*
X004454Y021320D03*
X004257Y021320D03*
X004061Y021320D03*
X003864Y021320D03*
X003667Y021320D03*
X003667Y021714D03*
X003864Y021714D03*
X004061Y021714D03*
X004257Y021714D03*
X004454Y021714D03*
X004651Y021714D03*
X004651Y022108D03*
X004454Y022108D03*
X004257Y022108D03*
X004061Y022108D03*
X003864Y022108D03*
X003667Y022108D03*
D14*
X003342Y022177D02*
X003165Y022177D01*
X003165Y022236D01*
X003342Y022236D01*
X003342Y022177D01*
X003342Y022200D02*
X003165Y022200D01*
X003165Y022039D02*
X003165Y021980D01*
X003342Y021980D01*
X003342Y022039D01*
X003165Y022039D01*
X003165Y022008D02*
X003342Y022008D01*
X003342Y021842D02*
X003342Y021783D01*
X003165Y021783D01*
X003165Y021842D01*
X003342Y021842D01*
X003342Y021815D02*
X003165Y021815D01*
X003165Y021645D02*
X003165Y021586D01*
X003342Y021586D01*
X003342Y021645D01*
X003165Y021645D01*
X003165Y021623D02*
X003342Y021623D01*
X003342Y021448D02*
X003342Y021389D01*
X003165Y021389D01*
X003165Y021448D01*
X003342Y021448D01*
X003342Y021430D02*
X003165Y021430D01*
X003165Y021392D02*
X003342Y021392D01*
X003342Y021252D02*
X003342Y021193D01*
X003165Y021193D01*
X003165Y021252D01*
X003342Y021252D01*
X003342Y021238D02*
X003165Y021238D01*
X003165Y021199D02*
X003342Y021199D01*
X003342Y021055D02*
X003165Y021055D01*
X003165Y020996D01*
X003322Y020996D01*
X003342Y021015D01*
X003342Y021055D01*
X003342Y021045D02*
X003165Y021045D01*
X003165Y021007D02*
X003333Y021007D01*
X003454Y020891D02*
X003500Y020891D01*
X003500Y020897D02*
X003500Y020720D01*
X003441Y020720D01*
X003441Y020878D01*
X003460Y020897D01*
X003500Y020897D01*
X003500Y020853D02*
X003441Y020853D01*
X003441Y020814D02*
X003500Y020814D01*
X003500Y020776D02*
X003441Y020776D01*
X003441Y020737D02*
X003500Y020737D01*
X003637Y020737D02*
X003696Y020737D01*
X003696Y020720D02*
X003637Y020720D01*
X003637Y020897D01*
X003696Y020897D01*
X003696Y020720D01*
X003696Y020776D02*
X003637Y020776D01*
X003637Y020814D02*
X003696Y020814D01*
X003696Y020853D02*
X003637Y020853D01*
X003637Y020891D02*
X003696Y020891D01*
X003834Y020891D02*
X003893Y020891D01*
X003893Y020897D02*
X003893Y020720D01*
X003834Y020720D01*
X003834Y020897D01*
X003893Y020897D01*
X003893Y020853D02*
X003834Y020853D01*
X003834Y020814D02*
X003893Y020814D01*
X003893Y020776D02*
X003834Y020776D01*
X003834Y020737D02*
X003893Y020737D01*
X004031Y020737D02*
X004090Y020737D01*
X004090Y020720D02*
X004031Y020720D01*
X004031Y020897D01*
X004090Y020897D01*
X004090Y020720D01*
X004090Y020776D02*
X004031Y020776D01*
X004031Y020814D02*
X004090Y020814D01*
X004090Y020853D02*
X004031Y020853D01*
X004031Y020891D02*
X004090Y020891D01*
X004228Y020891D02*
X004287Y020891D01*
X004287Y020897D02*
X004287Y020720D01*
X004228Y020720D01*
X004228Y020897D01*
X004287Y020897D01*
X004287Y020853D02*
X004228Y020853D01*
X004228Y020814D02*
X004287Y020814D01*
X004287Y020776D02*
X004228Y020776D01*
X004228Y020737D02*
X004287Y020737D01*
X004425Y020737D02*
X004484Y020737D01*
X004484Y020720D02*
X004425Y020720D01*
X004425Y020897D01*
X004484Y020897D01*
X004484Y020720D01*
X004484Y020776D02*
X004425Y020776D01*
X004425Y020814D02*
X004484Y020814D01*
X004484Y020853D02*
X004425Y020853D01*
X004425Y020891D02*
X004484Y020891D01*
X004622Y020891D02*
X004681Y020891D01*
X004681Y020897D02*
X004681Y020720D01*
X004622Y020720D01*
X004622Y020897D01*
X004681Y020897D01*
X004681Y020853D02*
X004622Y020853D01*
X004622Y020814D02*
X004681Y020814D01*
X004681Y020776D02*
X004622Y020776D01*
X004622Y020737D02*
X004681Y020737D01*
X004819Y020737D02*
X004878Y020737D01*
X004878Y020720D02*
X004819Y020720D01*
X004819Y020897D01*
X004858Y020897D01*
X004878Y020878D01*
X004878Y020720D01*
X004878Y020776D02*
X004819Y020776D01*
X004819Y020814D02*
X004878Y020814D01*
X004878Y020853D02*
X004819Y020853D01*
X004819Y020891D02*
X004864Y020891D01*
X004985Y021007D02*
X005153Y021007D01*
X005153Y020996D02*
X005153Y021055D01*
X004976Y021055D01*
X004976Y021015D01*
X004996Y020996D01*
X005153Y020996D01*
X005153Y021045D02*
X004976Y021045D01*
X004976Y021193D02*
X004976Y021252D01*
X005153Y021252D01*
X005153Y021193D01*
X004976Y021193D01*
X004976Y021199D02*
X005153Y021199D01*
X005153Y021238D02*
X004976Y021238D01*
X004976Y021389D02*
X004976Y021448D01*
X005153Y021448D01*
X005153Y021389D01*
X004976Y021389D01*
X004976Y021392D02*
X005153Y021392D01*
X005153Y021430D02*
X004976Y021430D01*
X004976Y021586D02*
X004976Y021645D01*
X005153Y021645D01*
X005153Y021586D01*
X004976Y021586D01*
X004976Y021623D02*
X005153Y021623D01*
X005153Y021783D02*
X005153Y021842D01*
X004976Y021842D01*
X004976Y021783D01*
X005153Y021783D01*
X005153Y021815D02*
X004976Y021815D01*
X004976Y021980D02*
X004976Y022039D01*
X005153Y022039D01*
X005153Y021980D01*
X004976Y021980D01*
X004976Y022008D02*
X005153Y022008D01*
X005153Y022177D02*
X005153Y022236D01*
X004976Y022236D01*
X004976Y022177D01*
X005153Y022177D01*
X005153Y022200D02*
X004976Y022200D01*
X004976Y022374D02*
X005153Y022374D01*
X005153Y022433D01*
X004996Y022433D01*
X004976Y022413D01*
X004976Y022374D01*
X004976Y022393D02*
X005153Y022393D01*
X005153Y022431D02*
X004994Y022431D01*
X004878Y022551D02*
X004858Y022531D01*
X004819Y022531D01*
X004819Y022708D01*
X004878Y022708D01*
X004878Y022551D01*
X004873Y022547D02*
X004819Y022547D01*
X004819Y022585D02*
X004878Y022585D01*
X004878Y022624D02*
X004819Y022624D01*
X004819Y022662D02*
X004878Y022662D01*
X004878Y022701D02*
X004819Y022701D01*
X004681Y022701D02*
X004622Y022701D01*
X004622Y022708D02*
X004681Y022708D01*
X004681Y022531D01*
X004622Y022531D01*
X004622Y022708D01*
X004622Y022662D02*
X004681Y022662D01*
X004681Y022624D02*
X004622Y022624D01*
X004622Y022585D02*
X004681Y022585D01*
X004681Y022547D02*
X004622Y022547D01*
X004484Y022547D02*
X004425Y022547D01*
X004425Y022531D02*
X004425Y022708D01*
X004484Y022708D01*
X004484Y022531D01*
X004425Y022531D01*
X004425Y022585D02*
X004484Y022585D01*
X004484Y022624D02*
X004425Y022624D01*
X004425Y022662D02*
X004484Y022662D01*
X004484Y022701D02*
X004425Y022701D01*
X004287Y022701D02*
X004228Y022701D01*
X004228Y022708D02*
X004287Y022708D01*
X004287Y022531D01*
X004228Y022531D01*
X004228Y022708D01*
X004228Y022662D02*
X004287Y022662D01*
X004287Y022624D02*
X004228Y022624D01*
X004228Y022585D02*
X004287Y022585D01*
X004287Y022547D02*
X004228Y022547D01*
X004090Y022547D02*
X004031Y022547D01*
X004031Y022531D02*
X004031Y022708D01*
X004090Y022708D01*
X004090Y022531D01*
X004031Y022531D01*
X004031Y022585D02*
X004090Y022585D01*
X004090Y022624D02*
X004031Y022624D01*
X004031Y022662D02*
X004090Y022662D01*
X004090Y022701D02*
X004031Y022701D01*
X003893Y022701D02*
X003834Y022701D01*
X003834Y022708D02*
X003893Y022708D01*
X003893Y022531D01*
X003834Y022531D01*
X003834Y022708D01*
X003834Y022662D02*
X003893Y022662D01*
X003893Y022624D02*
X003834Y022624D01*
X003834Y022585D02*
X003893Y022585D01*
X003893Y022547D02*
X003834Y022547D01*
X003696Y022547D02*
X003637Y022547D01*
X003637Y022531D02*
X003637Y022708D01*
X003696Y022708D01*
X003696Y022531D01*
X003637Y022531D01*
X003637Y022585D02*
X003696Y022585D01*
X003696Y022624D02*
X003637Y022624D01*
X003637Y022662D02*
X003696Y022662D01*
X003696Y022701D02*
X003637Y022701D01*
X003500Y022701D02*
X003441Y022701D01*
X003441Y022708D02*
X003500Y022708D01*
X003500Y022531D01*
X003460Y022531D01*
X003441Y022551D01*
X003441Y022708D01*
X003441Y022662D02*
X003500Y022662D01*
X003500Y022624D02*
X003441Y022624D01*
X003441Y022585D02*
X003500Y022585D01*
X003500Y022547D02*
X003445Y022547D01*
X003324Y022431D02*
X003165Y022431D01*
X003165Y022433D02*
X003165Y022374D01*
X003342Y022374D01*
X003342Y022413D01*
X003322Y022433D01*
X003165Y022433D01*
X003165Y022393D02*
X003342Y022393D01*
D15*
X003883Y024057D03*
X004277Y024057D03*
X004671Y024057D03*
X004671Y024647D03*
X004277Y024647D03*
X003883Y024647D03*
X008057Y020946D03*
X008057Y020356D03*
D16*
X008017Y019962D03*
X008017Y019529D03*
X009356Y018427D03*
X009356Y017994D03*
X008883Y016143D03*
X008883Y015710D03*
X009986Y013624D03*
X009986Y013191D03*
X010734Y013269D03*
X010734Y013702D03*
X011521Y014254D03*
X011915Y014254D03*
X012309Y014254D03*
X012309Y014687D03*
X011915Y014687D03*
X011521Y014687D03*
X012702Y014687D03*
X012702Y014254D03*
X013293Y014254D03*
X013687Y014254D03*
X013687Y014687D03*
X013293Y014687D03*
X015065Y014529D03*
X015458Y014529D03*
X015458Y014096D03*
X015065Y014096D03*
X015025Y016261D03*
X015025Y016694D03*
X013687Y017679D03*
X013687Y018112D03*
X011994Y019490D03*
X011994Y019923D03*
X011364Y020907D03*
X011364Y021340D03*
X008923Y021340D03*
X008923Y020907D03*
X005813Y020750D03*
X005813Y021183D03*
X005813Y021498D03*
X005813Y021931D03*
X004277Y023230D03*
X003883Y023230D03*
X003883Y023663D03*
X004277Y023663D03*
X005104Y024293D03*
X005104Y024726D03*
X003017Y023820D03*
X003017Y023387D03*
X010655Y023899D03*
X010655Y024332D03*
X011088Y025553D03*
X011088Y025986D03*
X016718Y016616D03*
X016718Y016183D03*
X019671Y013939D03*
X019671Y013506D03*
X020104Y013230D03*
X020498Y013230D03*
X020891Y013230D03*
X020891Y012797D03*
X020498Y012797D03*
X020104Y012797D03*
X021679Y012954D03*
X021679Y012521D03*
X025891Y014608D03*
X026443Y014450D03*
X026443Y014883D03*
X025891Y015041D03*
X026443Y013584D03*
X026443Y013151D03*
X026443Y012757D03*
X026757Y012757D03*
X026757Y012324D03*
X026443Y012324D03*
X026443Y011813D03*
X026443Y011380D03*
X026443Y010828D03*
X026443Y010395D03*
X027072Y010120D03*
X027072Y009687D03*
X027072Y009411D03*
X027072Y008978D03*
X026797Y006655D03*
X026797Y006222D03*
X025694Y005868D03*
X025694Y005435D03*
X024159Y005435D03*
X024159Y005868D03*
X023332Y005789D03*
X023332Y005356D03*
X015813Y006380D03*
X015458Y006380D03*
X015458Y006813D03*
X015813Y006813D03*
X014671Y006813D03*
X014277Y006813D03*
X013883Y006813D03*
X013490Y006813D03*
X013096Y006813D03*
X012702Y006813D03*
X012309Y006813D03*
X011915Y006813D03*
X011521Y006813D03*
X011521Y006380D03*
X011915Y006380D03*
X012309Y006380D03*
X012702Y006380D03*
X013096Y006380D03*
X013490Y006380D03*
X013883Y006380D03*
X014277Y006380D03*
X014671Y006380D03*
X009002Y010710D03*
X008687Y010710D03*
X008687Y011143D03*
X009002Y011143D03*
X007191Y011498D03*
X006797Y011498D03*
X006797Y011931D03*
X007191Y011931D03*
X001876Y006655D03*
X001561Y006655D03*
X001561Y006222D03*
X001876Y006222D03*
X005380Y006065D03*
X005734Y005946D03*
X005734Y006380D03*
X005380Y005631D03*
X028175Y016852D03*
X028175Y017285D03*
D17*
X002319Y021478D03*
X002319Y021734D03*
X002319Y021990D03*
X002319Y022246D03*
X002319Y022502D03*
D18*
X002269Y023210D03*
X002269Y020769D03*
D19*
X001265Y020494D03*
X001265Y023486D03*
D20*
X001265Y022462D03*
X001265Y021517D03*
D21*
X005183Y023191D03*
X005183Y023860D03*
D22*
X009848Y024923D03*
X010222Y024923D03*
X010616Y024923D03*
X010616Y025986D03*
X009848Y025986D03*
X015478Y016694D03*
X016246Y016694D03*
X016246Y015631D03*
X015852Y015631D03*
X015478Y015631D03*
D23*
X015084Y017108D03*
X014651Y017108D03*
X012250Y017069D03*
X012250Y017462D03*
X011817Y017462D03*
X011817Y017069D03*
X011817Y017856D03*
X011817Y018250D03*
X012250Y018250D03*
X012250Y017856D03*
X011108Y018053D03*
X010675Y018053D03*
X010281Y018053D03*
X009848Y018053D03*
X009179Y018761D03*
X009179Y019076D03*
X009179Y019391D03*
X008746Y019391D03*
X008746Y019076D03*
X008746Y018761D03*
X008824Y018210D03*
X008824Y017856D03*
X008391Y017856D03*
X008391Y018210D03*
X008391Y017462D03*
X008824Y017462D03*
X008667Y015100D03*
X009100Y015100D03*
X009100Y014706D03*
X009100Y014313D03*
X008667Y014313D03*
X008667Y014706D03*
X008785Y012502D03*
X009218Y012502D03*
X009494Y012305D03*
X009218Y012108D03*
X009494Y011911D03*
X009218Y011714D03*
X009494Y011517D03*
X009336Y011124D03*
X009336Y010730D03*
X009336Y010336D03*
X009336Y009943D03*
X009769Y009943D03*
X009769Y010336D03*
X009769Y010730D03*
X009769Y011124D03*
X009927Y011517D03*
X009927Y011911D03*
X009927Y012305D03*
X008785Y012108D03*
X008785Y011714D03*
X008313Y011163D03*
X007880Y011163D03*
X009336Y009509D03*
X009769Y009509D03*
X009769Y008958D03*
X009336Y008958D03*
X009336Y008368D03*
X009769Y008368D03*
X009848Y007817D03*
X009848Y007423D03*
X010281Y007423D03*
X010281Y007817D03*
X011147Y004864D03*
X011580Y004864D03*
X016147Y006399D03*
X016147Y006793D03*
X016580Y006793D03*
X016580Y006399D03*
X017210Y008368D03*
X017210Y008761D03*
X017643Y008761D03*
X017643Y008368D03*
X017643Y009234D03*
X017919Y009549D03*
X017643Y009746D03*
X017643Y010139D03*
X017919Y010336D03*
X017643Y010533D03*
X017643Y010927D03*
X017643Y011320D03*
X017210Y011320D03*
X017210Y010927D03*
X017210Y010533D03*
X017210Y010139D03*
X017210Y009746D03*
X017210Y009234D03*
X018352Y009549D03*
X018903Y009588D03*
X018903Y009194D03*
X019336Y009194D03*
X019336Y009588D03*
X019691Y009588D03*
X020124Y009588D03*
X020872Y009391D03*
X020872Y008998D03*
X021305Y008998D03*
X021659Y008998D03*
X021659Y009391D03*
X021305Y009391D03*
X021659Y009785D03*
X021659Y010179D03*
X022092Y010179D03*
X022092Y009785D03*
X022092Y009391D03*
X022092Y008998D03*
X022722Y008604D03*
X023155Y008604D03*
X024100Y007423D03*
X024533Y007423D03*
X024887Y007423D03*
X024927Y007817D03*
X024494Y007817D03*
X025399Y007935D03*
X025832Y007935D03*
X025320Y007423D03*
X026069Y006635D03*
X026069Y006242D03*
X026502Y006242D03*
X026502Y006635D03*
X026502Y005848D03*
X026502Y005454D03*
X026069Y005454D03*
X026069Y005848D03*
X024927Y005848D03*
X024927Y005454D03*
X024494Y005454D03*
X024494Y005848D03*
X027368Y007974D03*
X027368Y008368D03*
X027801Y008368D03*
X027801Y007974D03*
X029139Y003683D03*
X029572Y003683D03*
X020124Y010376D03*
X019691Y010376D03*
X019336Y010376D03*
X019336Y009982D03*
X018903Y009982D03*
X018903Y010376D03*
X018352Y010336D03*
X018903Y010769D03*
X018903Y011163D03*
X019336Y011163D03*
X019691Y011163D03*
X020124Y011163D03*
X019336Y010769D03*
X017643Y011714D03*
X017643Y012108D03*
X017210Y012108D03*
X017210Y011714D03*
X017210Y012502D03*
X017643Y012502D03*
X017801Y014155D03*
X017368Y014155D03*
X020088Y014313D03*
X020084Y013919D03*
X020517Y013919D03*
X020521Y014313D03*
X021265Y013919D03*
X021265Y013525D03*
X021698Y013525D03*
X021698Y013919D03*
X020517Y013525D03*
X020084Y013525D03*
X021817Y012226D03*
X022250Y012226D03*
X022368Y011596D03*
X021935Y011596D03*
X024415Y015139D03*
X024848Y015139D03*
X027565Y013013D03*
X027565Y012620D03*
X027998Y012620D03*
X027998Y013013D03*
X015360Y022029D03*
X014927Y022029D03*
X011974Y020257D03*
X011541Y020257D03*
X011935Y018998D03*
X012368Y018998D03*
X008746Y019943D03*
X008313Y019943D03*
X007565Y020415D03*
X007131Y020415D03*
X007840Y021754D03*
X008273Y021754D03*
X006580Y023919D03*
X006147Y023919D03*
X009809Y024431D03*
X010242Y024431D03*
X011305Y025179D03*
X011738Y025179D03*
X010439Y027108D03*
X010006Y027108D03*
X003470Y020376D03*
X003037Y020376D03*
X004021Y007265D03*
X004454Y007265D03*
X005320Y006990D03*
X005320Y006675D03*
X005754Y006675D03*
X005754Y006990D03*
X004730Y004706D03*
X004297Y004706D03*
X001935Y005887D03*
X001502Y005887D03*
D24*
X019257Y021675D03*
X020006Y021675D03*
X024257Y015691D03*
X025006Y015691D03*
X026344Y015376D03*
X027092Y015376D03*
X025832Y008446D03*
X025084Y008446D03*
X008037Y022462D03*
X007289Y022462D03*
X006659Y022462D03*
X005911Y022462D03*
X009848Y026596D03*
X010596Y026596D03*
D25*
X007407Y021754D03*
X007407Y021360D03*
X007407Y020986D03*
X006344Y020986D03*
X006344Y021754D03*
D26*
X005813Y023289D03*
X006915Y023289D03*
X003844Y011360D03*
X002742Y011360D03*
D27*
X011128Y013525D03*
X011324Y013525D03*
X011521Y013525D03*
X011718Y013525D03*
X011915Y013525D03*
X012112Y013525D03*
X012309Y013525D03*
X012506Y013525D03*
X012702Y013525D03*
X012899Y013525D03*
X013096Y013525D03*
X013293Y013525D03*
X013490Y013525D03*
X013687Y013525D03*
X013883Y013525D03*
X014080Y013525D03*
X014277Y013525D03*
X014474Y013525D03*
X014671Y013525D03*
X014868Y013525D03*
X015065Y013525D03*
X015261Y013525D03*
X015458Y013525D03*
X015655Y013525D03*
X015852Y013525D03*
X015852Y007541D03*
X015655Y007541D03*
X015458Y007541D03*
X015261Y007541D03*
X015065Y007541D03*
X014868Y007541D03*
X014671Y007541D03*
X014474Y007541D03*
X014277Y007541D03*
X014080Y007541D03*
X013883Y007541D03*
X013687Y007541D03*
X013490Y007541D03*
X013293Y007541D03*
X013096Y007541D03*
X012899Y007541D03*
X012702Y007541D03*
X012506Y007541D03*
X012309Y007541D03*
X012112Y007541D03*
X011915Y007541D03*
X011718Y007541D03*
X011521Y007541D03*
X011324Y007541D03*
X011128Y007541D03*
D28*
X010498Y008171D03*
X010498Y008368D03*
X010498Y008565D03*
X010498Y008761D03*
X010498Y008958D03*
X010498Y009155D03*
X010498Y009352D03*
X010498Y009549D03*
X010498Y009746D03*
X010498Y009943D03*
X010498Y010139D03*
X010498Y010336D03*
X010498Y010533D03*
X010498Y010730D03*
X010498Y010927D03*
X010498Y011124D03*
X010498Y011320D03*
X010498Y011517D03*
X010498Y011714D03*
X010498Y011911D03*
X010498Y012108D03*
X010498Y012305D03*
X010498Y012502D03*
X010498Y012698D03*
X010498Y012895D03*
X016482Y012895D03*
X016482Y012698D03*
X016482Y012502D03*
X016482Y012305D03*
X016482Y012108D03*
X016482Y011911D03*
X016482Y011714D03*
X016482Y011517D03*
X016482Y011320D03*
X016482Y011124D03*
X016482Y010927D03*
X016482Y010730D03*
X016482Y010533D03*
X016482Y010336D03*
X016482Y010139D03*
X016482Y009943D03*
X016482Y009746D03*
X016482Y009549D03*
X016482Y009352D03*
X016482Y009155D03*
X016482Y008958D03*
X016482Y008761D03*
X016482Y008565D03*
X016482Y008368D03*
X016482Y008171D03*
D29*
X004789Y006901D03*
X004789Y006645D03*
X004789Y006389D03*
X004789Y006133D03*
X004789Y005878D03*
X004789Y005622D03*
X004789Y005366D03*
X004789Y005110D03*
X002584Y005110D03*
X002584Y005366D03*
X002584Y005622D03*
X002584Y005878D03*
X002584Y006133D03*
X002584Y006389D03*
X002584Y006645D03*
X002584Y006901D03*
D30*
X003687Y006006D03*
D31*
X003735Y004509D03*
X002615Y004509D03*
D32*
X014078Y017628D03*
X014078Y018147D03*
X014078Y018667D03*
X014078Y019187D03*
X019354Y019439D03*
X019354Y019958D03*
X019354Y020478D03*
X019354Y020998D03*
X030771Y014698D03*
X030771Y014179D03*
X030771Y013659D03*
X030771Y013139D03*
X033059Y012336D03*
X033059Y011817D03*
X033059Y011297D03*
X033059Y010777D03*
X030771Y009974D03*
X030771Y009454D03*
X030771Y008935D03*
X030771Y008415D03*
X033059Y007612D03*
X033059Y007092D03*
X033059Y006572D03*
X033059Y006053D03*
X030771Y005250D03*
X030771Y004730D03*
X030771Y004210D03*
X030771Y003691D03*
X033059Y015502D03*
X033059Y016021D03*
X033059Y016541D03*
X033059Y017061D03*
D33*
X032060Y016742D03*
X032060Y015820D03*
X031770Y014380D03*
X031770Y013458D03*
X032060Y012017D03*
X032060Y011096D03*
X031770Y009655D03*
X031770Y008734D03*
X032060Y007293D03*
X032060Y006372D03*
X031770Y004931D03*
X031770Y004009D03*
X015077Y017946D03*
X015077Y018868D03*
X020353Y019757D03*
X020353Y020679D03*
D34*
X021105Y020679D03*
X021105Y019757D03*
X015829Y018868D03*
X015829Y017946D03*
X031308Y016742D03*
X031308Y015820D03*
X032522Y014380D03*
X032522Y013458D03*
X031308Y012017D03*
X031308Y011096D03*
X032522Y009655D03*
X032522Y008734D03*
X031308Y007293D03*
X031308Y006372D03*
X032522Y004931D03*
X032522Y004009D03*
D35*
X030301Y007226D03*
X029198Y007226D03*
X029198Y011950D03*
X030301Y011950D03*
X030301Y016675D03*
X029198Y016675D03*
X025183Y016675D03*
X024080Y016675D03*
X024080Y017856D03*
X025183Y017856D03*
D36*
X028559Y015484D03*
X029366Y015484D03*
X029366Y013929D03*
X028559Y013929D03*
X028559Y010759D03*
X029366Y010759D03*
X029366Y009204D03*
X028559Y009204D03*
X028559Y006035D03*
X029366Y006035D03*
X029366Y004480D03*
X028559Y004480D03*
D37*
X023057Y017069D03*
X020694Y017069D03*
D38*
X019120Y016498D03*
X019120Y014805D03*
D39*
X021019Y011714D03*
X021630Y011714D03*
D40*
X022939Y011781D03*
X022939Y011584D03*
X022939Y011387D03*
X022939Y011191D03*
X022939Y010994D03*
X022939Y010797D03*
X022939Y010600D03*
X022939Y010403D03*
X022939Y010206D03*
X022939Y010009D03*
X022939Y009813D03*
X022939Y009616D03*
X022939Y009419D03*
X022939Y009222D03*
X022939Y009025D03*
X025891Y009025D03*
X025891Y009222D03*
X025891Y009419D03*
X025891Y009616D03*
X025891Y009813D03*
X025891Y010009D03*
X025891Y010206D03*
X025891Y010403D03*
X025891Y010600D03*
X025891Y010797D03*
X025891Y010994D03*
X025891Y011191D03*
X025891Y011387D03*
X025891Y011584D03*
X025891Y011781D03*
X025891Y011978D03*
X025891Y012175D03*
X025891Y012372D03*
X025891Y012569D03*
X025891Y012765D03*
X025891Y012962D03*
X025891Y013159D03*
X025891Y013356D03*
X025891Y013553D03*
X025891Y013750D03*
X025891Y013946D03*
X025891Y014143D03*
X025891Y014340D03*
X022939Y014340D03*
X022939Y014143D03*
X022939Y013946D03*
X022939Y013750D03*
X022939Y013553D03*
X022939Y013356D03*
X022939Y013159D03*
X022939Y012962D03*
X022939Y012765D03*
X022939Y012569D03*
X022939Y012372D03*
X022939Y012175D03*
X022939Y011978D03*
D41*
X024415Y011683D03*
D42*
X024198Y007019D03*
X024198Y006763D03*
X024198Y006507D03*
X024198Y006252D03*
X025222Y006252D03*
X025222Y006507D03*
X025222Y006763D03*
X025222Y007019D03*
D43*
X016974Y007777D03*
X016462Y007777D03*
X004013Y012037D03*
X003502Y012037D03*
D44*
X010372Y013187D03*
X010372Y013698D03*
D45*
X017227Y014691D03*
X017927Y014691D03*
X017927Y016691D03*
X017227Y016691D03*
D46*
X015941Y020691D03*
X013480Y020691D03*
D47*
X014710Y020691D03*
D48*
X013135Y018269D03*
X013135Y017521D03*
D49*
X011049Y016439D03*
D50*
X009474Y016901D03*
X009474Y015976D03*
D51*
X019317Y007659D03*
X019317Y005691D03*
X030931Y021202D03*
X030931Y023171D03*
X034080Y023171D03*
X034080Y021202D03*
D52*
X004317Y001990D03*
X006285Y001990D03*
X011718Y002698D03*
X013687Y002698D03*
X024986Y002541D03*
X026954Y002541D03*
D53*
X011462Y018451D03*
X011265Y018451D03*
X011069Y018451D03*
X010872Y018451D03*
X010675Y018451D03*
X010478Y018451D03*
X010281Y018451D03*
X010084Y018451D03*
X009887Y018451D03*
X009691Y018451D03*
X009691Y019859D03*
X009887Y019859D03*
X010084Y019859D03*
X010281Y019859D03*
X010478Y019859D03*
X010675Y019859D03*
X010872Y019859D03*
X011069Y019859D03*
X011265Y019859D03*
X011462Y019859D03*
D54*
X011570Y019450D03*
X011570Y019254D03*
X011570Y019057D03*
X011570Y018860D03*
X009582Y018860D03*
X009582Y019057D03*
X009582Y019254D03*
X009582Y019450D03*
D55*
X009513Y020907D03*
X010773Y020907D03*
X010773Y023072D03*
X009513Y023072D03*
D56*
X011285Y023939D03*
X012151Y024313D03*
X011285Y024687D03*
X014513Y023191D03*
X014513Y022443D03*
X015380Y022817D03*
X013096Y016734D03*
X013096Y015986D03*
X012230Y016360D03*
D57*
X012761Y026557D03*
X015399Y026557D03*
D58*
X014474Y024293D03*
X013687Y024293D03*
D59*
X005616Y011242D03*
X005616Y010848D03*
X005616Y010454D03*
X005222Y010454D03*
X004828Y010454D03*
X004828Y010848D03*
X004828Y011242D03*
X005222Y011242D03*
X005222Y010848D03*
D60*
X006049Y010543D03*
X006049Y011153D03*
M02*
